G04 #@! TF.GenerationSoftware,KiCad,Pcbnew,(5.1.4-0-10_14)*
G04 #@! TF.CreationDate,2019-08-30T09:08:26-07:00*
G04 #@! TF.ProjectId,VUMeter,56554d65-7465-4722-9e6b-696361645f70,rev?*
G04 #@! TF.SameCoordinates,Original*
G04 #@! TF.FileFunction,Legend,Top*
G04 #@! TF.FilePolarity,Positive*
%FSLAX46Y46*%
G04 Gerber Fmt 4.6, Leading zero omitted, Abs format (unit mm)*
G04 Created by KiCad (PCBNEW (5.1.4-0-10_14)) date 2019-08-30 09:08:26*
%MOMM*%
%LPD*%
G04 APERTURE LIST*
%ADD10C,0.150000*%
%ADD11C,0.120000*%
G04 APERTURE END LIST*
D10*
X69554285Y-90509285D02*
X68804285Y-90509285D01*
X69054285Y-90152142D02*
X69554285Y-90152142D01*
X69125714Y-90152142D02*
X69090000Y-90116428D01*
X69054285Y-90045000D01*
X69054285Y-89937857D01*
X69090000Y-89866428D01*
X69161428Y-89830714D01*
X69554285Y-89830714D01*
X69268571Y-88272857D02*
X69268571Y-87701428D01*
X69554285Y-87987142D02*
X68982857Y-87987142D01*
X68804285Y-86987142D02*
X68804285Y-87344285D01*
X69161428Y-87380000D01*
X69125714Y-87344285D01*
X69090000Y-87272857D01*
X69090000Y-87094285D01*
X69125714Y-87022857D01*
X69161428Y-86987142D01*
X69232857Y-86951428D01*
X69411428Y-86951428D01*
X69482857Y-86987142D01*
X69518571Y-87022857D01*
X69554285Y-87094285D01*
X69554285Y-87272857D01*
X69518571Y-87344285D01*
X69482857Y-87380000D01*
X69518571Y-94521571D02*
X69554285Y-94450142D01*
X69554285Y-94307285D01*
X69518571Y-94235857D01*
X69447142Y-94200142D01*
X69411428Y-94200142D01*
X69340000Y-94235857D01*
X69304285Y-94307285D01*
X69304285Y-94414428D01*
X69268571Y-94485857D01*
X69197142Y-94521571D01*
X69161428Y-94521571D01*
X69090000Y-94485857D01*
X69054285Y-94414428D01*
X69054285Y-94307285D01*
X69090000Y-94235857D01*
X68840000Y-93485857D02*
X68804285Y-93557285D01*
X68804285Y-93664428D01*
X68840000Y-93771571D01*
X68911428Y-93843000D01*
X68982857Y-93878714D01*
X69125714Y-93914428D01*
X69232857Y-93914428D01*
X69375714Y-93878714D01*
X69447142Y-93843000D01*
X69518571Y-93771571D01*
X69554285Y-93664428D01*
X69554285Y-93593000D01*
X69518571Y-93485857D01*
X69482857Y-93450142D01*
X69232857Y-93450142D01*
X69232857Y-93593000D01*
X69554285Y-93128714D02*
X68804285Y-93128714D01*
X69554285Y-92700142D01*
X68804285Y-92700142D01*
X69554285Y-92343000D02*
X68804285Y-92343000D01*
X68804285Y-92164428D01*
X68840000Y-92057285D01*
X68911428Y-91985857D01*
X68982857Y-91950142D01*
X69125714Y-91914428D01*
X69232857Y-91914428D01*
X69375714Y-91950142D01*
X69447142Y-91985857D01*
X69518571Y-92057285D01*
X69554285Y-92164428D01*
X69554285Y-92343000D01*
X68815000Y-85445523D02*
X68776904Y-85521714D01*
X68776904Y-85636000D01*
X68815000Y-85750285D01*
X68891190Y-85826476D01*
X68967380Y-85864571D01*
X69119761Y-85902666D01*
X69234047Y-85902666D01*
X69386428Y-85864571D01*
X69462619Y-85826476D01*
X69538809Y-85750285D01*
X69576904Y-85636000D01*
X69576904Y-85559809D01*
X69538809Y-85445523D01*
X69500714Y-85407428D01*
X69234047Y-85407428D01*
X69234047Y-85559809D01*
X69576904Y-85064571D02*
X68776904Y-85064571D01*
X69576904Y-84607428D01*
X68776904Y-84607428D01*
X69576904Y-84226476D02*
X68776904Y-84226476D01*
X68776904Y-84036000D01*
X68815000Y-83921714D01*
X68891190Y-83845523D01*
X68967380Y-83807428D01*
X69119761Y-83769333D01*
X69234047Y-83769333D01*
X69386428Y-83807428D01*
X69462619Y-83845523D01*
X69538809Y-83921714D01*
X69576904Y-84036000D01*
X69576904Y-84226476D01*
D11*
X88610000Y-71060000D02*
X87360000Y-71060000D01*
X88610000Y-94040000D02*
X88610000Y-71060000D01*
X84110000Y-94040000D02*
X88610000Y-94040000D01*
X84110000Y-71060000D02*
X84110000Y-94040000D01*
X85360000Y-71060000D02*
X84110000Y-71060000D01*
X87360000Y-71060000D02*
G75*
G02X85360000Y-71060000I-1000000J0D01*
G01*
X89630000Y-97890000D02*
X89630000Y-97560000D01*
X83090000Y-97890000D02*
X89630000Y-97890000D01*
X83090000Y-97560000D02*
X83090000Y-97890000D01*
X89630000Y-95150000D02*
X89630000Y-95480000D01*
X83090000Y-95150000D02*
X89630000Y-95150000D01*
X83090000Y-95480000D02*
X83090000Y-95150000D01*
X70390000Y-78640000D02*
X70390000Y-78970000D01*
X76930000Y-78640000D02*
X70390000Y-78640000D01*
X76930000Y-78970000D02*
X76930000Y-78640000D01*
X70390000Y-81380000D02*
X70390000Y-81050000D01*
X76930000Y-81380000D02*
X70390000Y-81380000D01*
X76930000Y-81050000D02*
X76930000Y-81380000D01*
X77370000Y-90900000D02*
X77700000Y-90900000D01*
X77370000Y-84360000D02*
X77370000Y-90900000D01*
X77700000Y-84360000D02*
X77370000Y-84360000D01*
X80110000Y-90900000D02*
X79780000Y-90900000D01*
X80110000Y-84360000D02*
X80110000Y-90900000D01*
X79780000Y-84360000D02*
X80110000Y-84360000D01*
X65980000Y-83760000D02*
X67310000Y-83760000D01*
X65980000Y-85090000D02*
X65980000Y-83760000D01*
X65980000Y-86360000D02*
X68640000Y-86360000D01*
X68640000Y-86360000D02*
X68640000Y-94040000D01*
X65980000Y-86360000D02*
X65980000Y-94040000D01*
X65980000Y-94040000D02*
X68640000Y-94040000D01*
X70000000Y-89150000D02*
X72240000Y-89150000D01*
X70000000Y-88910000D02*
X72240000Y-88910000D01*
X70000000Y-89030000D02*
X72240000Y-89030000D01*
X71120000Y-84860000D02*
X71120000Y-85510000D01*
X71120000Y-90400000D02*
X71120000Y-89750000D01*
X70000000Y-85510000D02*
X70000000Y-89750000D01*
X72240000Y-85510000D02*
X70000000Y-85510000D01*
X72240000Y-89750000D02*
X72240000Y-85510000D01*
X70000000Y-89750000D02*
X72240000Y-89750000D01*
X97260000Y-97345000D02*
X97260000Y-97530000D01*
X97260000Y-95510000D02*
X97260000Y-95695000D01*
X97250000Y-97530000D02*
X97260000Y-97530000D01*
X95060000Y-97530000D02*
X95791000Y-97530000D01*
X97250000Y-95510000D02*
X97260000Y-95510000D01*
X95060000Y-95510000D02*
X95791000Y-95510000D01*
X76050000Y-86110000D02*
X73810000Y-86110000D01*
X76050000Y-86350000D02*
X73810000Y-86350000D01*
X76050000Y-86230000D02*
X73810000Y-86230000D01*
X74930000Y-90400000D02*
X74930000Y-89750000D01*
X74930000Y-84860000D02*
X74930000Y-85510000D01*
X76050000Y-89750000D02*
X76050000Y-85510000D01*
X73810000Y-89750000D02*
X76050000Y-89750000D01*
X73810000Y-85510000D02*
X73810000Y-89750000D01*
X76050000Y-85510000D02*
X73810000Y-85510000D01*
X97260000Y-94522776D02*
X97260000Y-94707776D01*
X97260000Y-92687776D02*
X97260000Y-92872776D01*
X97250000Y-94707776D02*
X97260000Y-94707776D01*
X95060000Y-94707776D02*
X95791000Y-94707776D01*
X97250000Y-92687776D02*
X97260000Y-92687776D01*
X95060000Y-92687776D02*
X95791000Y-92687776D01*
X97260000Y-91700554D02*
X97260000Y-91885554D01*
X97260000Y-89865554D02*
X97260000Y-90050554D01*
X97250000Y-91885554D02*
X97260000Y-91885554D01*
X95060000Y-91885554D02*
X95791000Y-91885554D01*
X97250000Y-89865554D02*
X97260000Y-89865554D01*
X95060000Y-89865554D02*
X95791000Y-89865554D01*
X97260000Y-88878332D02*
X97260000Y-89063332D01*
X97260000Y-87043332D02*
X97260000Y-87228332D01*
X97250000Y-89063332D02*
X97260000Y-89063332D01*
X95060000Y-89063332D02*
X95791000Y-89063332D01*
X97250000Y-87043332D02*
X97260000Y-87043332D01*
X95060000Y-87043332D02*
X95791000Y-87043332D01*
X97260000Y-86056110D02*
X97260000Y-86241110D01*
X97260000Y-84221110D02*
X97260000Y-84406110D01*
X97250000Y-86241110D02*
X97260000Y-86241110D01*
X95060000Y-86241110D02*
X95791000Y-86241110D01*
X97250000Y-84221110D02*
X97260000Y-84221110D01*
X95060000Y-84221110D02*
X95791000Y-84221110D01*
X97260000Y-83233888D02*
X97260000Y-83418888D01*
X97260000Y-81398888D02*
X97260000Y-81583888D01*
X97250000Y-83418888D02*
X97260000Y-83418888D01*
X95060000Y-83418888D02*
X95791000Y-83418888D01*
X97250000Y-81398888D02*
X97260000Y-81398888D01*
X95060000Y-81398888D02*
X95791000Y-81398888D01*
X97260000Y-80411666D02*
X97260000Y-80596666D01*
X97260000Y-78576666D02*
X97260000Y-78761666D01*
X97250000Y-80596666D02*
X97260000Y-80596666D01*
X95060000Y-80596666D02*
X95791000Y-80596666D01*
X97250000Y-78576666D02*
X97260000Y-78576666D01*
X95060000Y-78576666D02*
X95791000Y-78576666D01*
X97260000Y-77589444D02*
X97260000Y-77774444D01*
X97260000Y-75754444D02*
X97260000Y-75939444D01*
X97250000Y-77774444D02*
X97260000Y-77774444D01*
X95060000Y-77774444D02*
X95791000Y-77774444D01*
X97250000Y-75754444D02*
X97260000Y-75754444D01*
X95060000Y-75754444D02*
X95791000Y-75754444D01*
X97260000Y-74767222D02*
X97260000Y-74952222D01*
X97260000Y-72932222D02*
X97260000Y-73117222D01*
X97250000Y-74952222D02*
X97260000Y-74952222D01*
X95060000Y-74952222D02*
X95791000Y-74952222D01*
X97250000Y-72932222D02*
X97260000Y-72932222D01*
X95060000Y-72932222D02*
X95791000Y-72932222D01*
X97260000Y-71945000D02*
X97260000Y-72130000D01*
X97260000Y-70110000D02*
X97260000Y-70295000D01*
X97250000Y-72130000D02*
X97260000Y-72130000D01*
X95060000Y-72130000D02*
X95791000Y-72130000D01*
X97250000Y-70110000D02*
X97260000Y-70110000D01*
X95060000Y-70110000D02*
X95791000Y-70110000D01*
X73055241Y-75814000D02*
X73055241Y-75184000D01*
X73370241Y-75499000D02*
X72740241Y-75499000D01*
X66629000Y-74062000D02*
X66629000Y-73258000D01*
X66669000Y-74293000D02*
X66669000Y-73027000D01*
X66709000Y-74462000D02*
X66709000Y-72858000D01*
X66749000Y-74600000D02*
X66749000Y-72720000D01*
X66789000Y-74719000D02*
X66789000Y-72601000D01*
X66829000Y-74825000D02*
X66829000Y-72495000D01*
X66869000Y-74922000D02*
X66869000Y-72398000D01*
X66909000Y-75010000D02*
X66909000Y-72310000D01*
X66949000Y-75092000D02*
X66949000Y-72228000D01*
X66989000Y-75169000D02*
X66989000Y-72151000D01*
X67029000Y-75241000D02*
X67029000Y-72079000D01*
X67069000Y-75310000D02*
X67069000Y-72010000D01*
X67109000Y-75374000D02*
X67109000Y-71946000D01*
X67149000Y-75436000D02*
X67149000Y-71884000D01*
X67189000Y-75494000D02*
X67189000Y-71826000D01*
X67229000Y-75550000D02*
X67229000Y-71770000D01*
X67269000Y-75604000D02*
X67269000Y-71716000D01*
X67309000Y-75655000D02*
X67309000Y-71665000D01*
X67349000Y-75704000D02*
X67349000Y-71616000D01*
X67389000Y-75752000D02*
X67389000Y-71568000D01*
X67429000Y-75797000D02*
X67429000Y-71523000D01*
X67469000Y-75842000D02*
X67469000Y-71478000D01*
X67509000Y-75884000D02*
X67509000Y-71436000D01*
X67549000Y-75925000D02*
X67549000Y-71395000D01*
X67589000Y-72620000D02*
X67589000Y-71355000D01*
X67589000Y-75965000D02*
X67589000Y-74700000D01*
X67629000Y-72620000D02*
X67629000Y-71317000D01*
X67629000Y-76003000D02*
X67629000Y-74700000D01*
X67669000Y-72620000D02*
X67669000Y-71280000D01*
X67669000Y-76040000D02*
X67669000Y-74700000D01*
X67709000Y-72620000D02*
X67709000Y-71244000D01*
X67709000Y-76076000D02*
X67709000Y-74700000D01*
X67749000Y-72620000D02*
X67749000Y-71210000D01*
X67749000Y-76110000D02*
X67749000Y-74700000D01*
X67789000Y-72620000D02*
X67789000Y-71176000D01*
X67789000Y-76144000D02*
X67789000Y-74700000D01*
X67829000Y-72620000D02*
X67829000Y-71144000D01*
X67829000Y-76176000D02*
X67829000Y-74700000D01*
X67869000Y-72620000D02*
X67869000Y-71112000D01*
X67869000Y-76208000D02*
X67869000Y-74700000D01*
X67909000Y-72620000D02*
X67909000Y-71082000D01*
X67909000Y-76238000D02*
X67909000Y-74700000D01*
X67949000Y-72620000D02*
X67949000Y-71053000D01*
X67949000Y-76267000D02*
X67949000Y-74700000D01*
X67989000Y-72620000D02*
X67989000Y-71024000D01*
X67989000Y-76296000D02*
X67989000Y-74700000D01*
X68029000Y-72620000D02*
X68029000Y-70996000D01*
X68029000Y-76324000D02*
X68029000Y-74700000D01*
X68069000Y-72620000D02*
X68069000Y-70970000D01*
X68069000Y-76350000D02*
X68069000Y-74700000D01*
X68109000Y-72620000D02*
X68109000Y-70944000D01*
X68109000Y-76376000D02*
X68109000Y-74700000D01*
X68149000Y-72620000D02*
X68149000Y-70918000D01*
X68149000Y-76402000D02*
X68149000Y-74700000D01*
X68189000Y-72620000D02*
X68189000Y-70894000D01*
X68189000Y-76426000D02*
X68189000Y-74700000D01*
X68229000Y-72620000D02*
X68229000Y-70870000D01*
X68229000Y-76450000D02*
X68229000Y-74700000D01*
X68269000Y-72620000D02*
X68269000Y-70848000D01*
X68269000Y-76472000D02*
X68269000Y-74700000D01*
X68309000Y-72620000D02*
X68309000Y-70826000D01*
X68309000Y-76494000D02*
X68309000Y-74700000D01*
X68349000Y-72620000D02*
X68349000Y-70804000D01*
X68349000Y-76516000D02*
X68349000Y-74700000D01*
X68389000Y-72620000D02*
X68389000Y-70784000D01*
X68389000Y-76536000D02*
X68389000Y-74700000D01*
X68429000Y-72620000D02*
X68429000Y-70764000D01*
X68429000Y-76556000D02*
X68429000Y-74700000D01*
X68469000Y-72620000D02*
X68469000Y-70744000D01*
X68469000Y-76576000D02*
X68469000Y-74700000D01*
X68509000Y-72620000D02*
X68509000Y-70726000D01*
X68509000Y-76594000D02*
X68509000Y-74700000D01*
X68549000Y-72620000D02*
X68549000Y-70708000D01*
X68549000Y-76612000D02*
X68549000Y-74700000D01*
X68589000Y-72620000D02*
X68589000Y-70690000D01*
X68589000Y-76630000D02*
X68589000Y-74700000D01*
X68629000Y-72620000D02*
X68629000Y-70674000D01*
X68629000Y-76646000D02*
X68629000Y-74700000D01*
X68669000Y-72620000D02*
X68669000Y-70658000D01*
X68669000Y-76662000D02*
X68669000Y-74700000D01*
X68709000Y-72620000D02*
X68709000Y-70642000D01*
X68709000Y-76678000D02*
X68709000Y-74700000D01*
X68749000Y-72620000D02*
X68749000Y-70627000D01*
X68749000Y-76693000D02*
X68749000Y-74700000D01*
X68789000Y-72620000D02*
X68789000Y-70613000D01*
X68789000Y-76707000D02*
X68789000Y-74700000D01*
X68829000Y-72620000D02*
X68829000Y-70599000D01*
X68829000Y-76721000D02*
X68829000Y-74700000D01*
X68869000Y-72620000D02*
X68869000Y-70586000D01*
X68869000Y-76734000D02*
X68869000Y-74700000D01*
X68909000Y-72620000D02*
X68909000Y-70574000D01*
X68909000Y-76746000D02*
X68909000Y-74700000D01*
X68949000Y-72620000D02*
X68949000Y-70562000D01*
X68949000Y-76758000D02*
X68949000Y-74700000D01*
X68989000Y-72620000D02*
X68989000Y-70550000D01*
X68989000Y-76770000D02*
X68989000Y-74700000D01*
X69029000Y-72620000D02*
X69029000Y-70539000D01*
X69029000Y-76781000D02*
X69029000Y-74700000D01*
X69069000Y-72620000D02*
X69069000Y-70529000D01*
X69069000Y-76791000D02*
X69069000Y-74700000D01*
X69109000Y-72620000D02*
X69109000Y-70519000D01*
X69109000Y-76801000D02*
X69109000Y-74700000D01*
X69149000Y-72620000D02*
X69149000Y-70510000D01*
X69149000Y-76810000D02*
X69149000Y-74700000D01*
X69190000Y-72620000D02*
X69190000Y-70501000D01*
X69190000Y-76819000D02*
X69190000Y-74700000D01*
X69230000Y-72620000D02*
X69230000Y-70493000D01*
X69230000Y-76827000D02*
X69230000Y-74700000D01*
X69270000Y-72620000D02*
X69270000Y-70485000D01*
X69270000Y-76835000D02*
X69270000Y-74700000D01*
X69310000Y-72620000D02*
X69310000Y-70478000D01*
X69310000Y-76842000D02*
X69310000Y-74700000D01*
X69350000Y-72620000D02*
X69350000Y-70471000D01*
X69350000Y-76849000D02*
X69350000Y-74700000D01*
X69390000Y-72620000D02*
X69390000Y-70465000D01*
X69390000Y-76855000D02*
X69390000Y-74700000D01*
X69430000Y-72620000D02*
X69430000Y-70459000D01*
X69430000Y-76861000D02*
X69430000Y-74700000D01*
X69470000Y-72620000D02*
X69470000Y-70454000D01*
X69470000Y-76866000D02*
X69470000Y-74700000D01*
X69510000Y-72620000D02*
X69510000Y-70449000D01*
X69510000Y-76871000D02*
X69510000Y-74700000D01*
X69550000Y-72620000D02*
X69550000Y-70445000D01*
X69550000Y-76875000D02*
X69550000Y-74700000D01*
X69590000Y-72620000D02*
X69590000Y-70442000D01*
X69590000Y-76878000D02*
X69590000Y-74700000D01*
X69630000Y-72620000D02*
X69630000Y-70438000D01*
X69630000Y-76882000D02*
X69630000Y-74700000D01*
X69670000Y-76884000D02*
X69670000Y-70436000D01*
X69710000Y-76887000D02*
X69710000Y-70433000D01*
X69750000Y-76888000D02*
X69750000Y-70432000D01*
X69790000Y-76890000D02*
X69790000Y-70430000D01*
X69830000Y-76890000D02*
X69830000Y-70430000D01*
X69870000Y-76890000D02*
X69870000Y-70430000D01*
X73140000Y-73660000D02*
G75*
G03X73140000Y-73660000I-3270000J0D01*
G01*
X78354000Y-93060759D02*
X77724000Y-93060759D01*
X78039000Y-92745759D02*
X78039000Y-93375759D01*
X76602000Y-99487000D02*
X75798000Y-99487000D01*
X76833000Y-99447000D02*
X75567000Y-99447000D01*
X77002000Y-99407000D02*
X75398000Y-99407000D01*
X77140000Y-99367000D02*
X75260000Y-99367000D01*
X77259000Y-99327000D02*
X75141000Y-99327000D01*
X77365000Y-99287000D02*
X75035000Y-99287000D01*
X77462000Y-99247000D02*
X74938000Y-99247000D01*
X77550000Y-99207000D02*
X74850000Y-99207000D01*
X77632000Y-99167000D02*
X74768000Y-99167000D01*
X77709000Y-99127000D02*
X74691000Y-99127000D01*
X77781000Y-99087000D02*
X74619000Y-99087000D01*
X77850000Y-99047000D02*
X74550000Y-99047000D01*
X77914000Y-99007000D02*
X74486000Y-99007000D01*
X77976000Y-98967000D02*
X74424000Y-98967000D01*
X78034000Y-98927000D02*
X74366000Y-98927000D01*
X78090000Y-98887000D02*
X74310000Y-98887000D01*
X78144000Y-98847000D02*
X74256000Y-98847000D01*
X78195000Y-98807000D02*
X74205000Y-98807000D01*
X78244000Y-98767000D02*
X74156000Y-98767000D01*
X78292000Y-98727000D02*
X74108000Y-98727000D01*
X78337000Y-98687000D02*
X74063000Y-98687000D01*
X78382000Y-98647000D02*
X74018000Y-98647000D01*
X78424000Y-98607000D02*
X73976000Y-98607000D01*
X78465000Y-98567000D02*
X73935000Y-98567000D01*
X75160000Y-98527000D02*
X73895000Y-98527000D01*
X78505000Y-98527000D02*
X77240000Y-98527000D01*
X75160000Y-98487000D02*
X73857000Y-98487000D01*
X78543000Y-98487000D02*
X77240000Y-98487000D01*
X75160000Y-98447000D02*
X73820000Y-98447000D01*
X78580000Y-98447000D02*
X77240000Y-98447000D01*
X75160000Y-98407000D02*
X73784000Y-98407000D01*
X78616000Y-98407000D02*
X77240000Y-98407000D01*
X75160000Y-98367000D02*
X73750000Y-98367000D01*
X78650000Y-98367000D02*
X77240000Y-98367000D01*
X75160000Y-98327000D02*
X73716000Y-98327000D01*
X78684000Y-98327000D02*
X77240000Y-98327000D01*
X75160000Y-98287000D02*
X73684000Y-98287000D01*
X78716000Y-98287000D02*
X77240000Y-98287000D01*
X75160000Y-98247000D02*
X73652000Y-98247000D01*
X78748000Y-98247000D02*
X77240000Y-98247000D01*
X75160000Y-98207000D02*
X73622000Y-98207000D01*
X78778000Y-98207000D02*
X77240000Y-98207000D01*
X75160000Y-98167000D02*
X73593000Y-98167000D01*
X78807000Y-98167000D02*
X77240000Y-98167000D01*
X75160000Y-98127000D02*
X73564000Y-98127000D01*
X78836000Y-98127000D02*
X77240000Y-98127000D01*
X75160000Y-98087000D02*
X73536000Y-98087000D01*
X78864000Y-98087000D02*
X77240000Y-98087000D01*
X75160000Y-98047000D02*
X73510000Y-98047000D01*
X78890000Y-98047000D02*
X77240000Y-98047000D01*
X75160000Y-98007000D02*
X73484000Y-98007000D01*
X78916000Y-98007000D02*
X77240000Y-98007000D01*
X75160000Y-97967000D02*
X73458000Y-97967000D01*
X78942000Y-97967000D02*
X77240000Y-97967000D01*
X75160000Y-97927000D02*
X73434000Y-97927000D01*
X78966000Y-97927000D02*
X77240000Y-97927000D01*
X75160000Y-97887000D02*
X73410000Y-97887000D01*
X78990000Y-97887000D02*
X77240000Y-97887000D01*
X75160000Y-97847000D02*
X73388000Y-97847000D01*
X79012000Y-97847000D02*
X77240000Y-97847000D01*
X75160000Y-97807000D02*
X73366000Y-97807000D01*
X79034000Y-97807000D02*
X77240000Y-97807000D01*
X75160000Y-97767000D02*
X73344000Y-97767000D01*
X79056000Y-97767000D02*
X77240000Y-97767000D01*
X75160000Y-97727000D02*
X73324000Y-97727000D01*
X79076000Y-97727000D02*
X77240000Y-97727000D01*
X75160000Y-97687000D02*
X73304000Y-97687000D01*
X79096000Y-97687000D02*
X77240000Y-97687000D01*
X75160000Y-97647000D02*
X73284000Y-97647000D01*
X79116000Y-97647000D02*
X77240000Y-97647000D01*
X75160000Y-97607000D02*
X73266000Y-97607000D01*
X79134000Y-97607000D02*
X77240000Y-97607000D01*
X75160000Y-97567000D02*
X73248000Y-97567000D01*
X79152000Y-97567000D02*
X77240000Y-97567000D01*
X75160000Y-97527000D02*
X73230000Y-97527000D01*
X79170000Y-97527000D02*
X77240000Y-97527000D01*
X75160000Y-97487000D02*
X73214000Y-97487000D01*
X79186000Y-97487000D02*
X77240000Y-97487000D01*
X75160000Y-97447000D02*
X73198000Y-97447000D01*
X79202000Y-97447000D02*
X77240000Y-97447000D01*
X75160000Y-97407000D02*
X73182000Y-97407000D01*
X79218000Y-97407000D02*
X77240000Y-97407000D01*
X75160000Y-97367000D02*
X73167000Y-97367000D01*
X79233000Y-97367000D02*
X77240000Y-97367000D01*
X75160000Y-97327000D02*
X73153000Y-97327000D01*
X79247000Y-97327000D02*
X77240000Y-97327000D01*
X75160000Y-97287000D02*
X73139000Y-97287000D01*
X79261000Y-97287000D02*
X77240000Y-97287000D01*
X75160000Y-97247000D02*
X73126000Y-97247000D01*
X79274000Y-97247000D02*
X77240000Y-97247000D01*
X75160000Y-97207000D02*
X73114000Y-97207000D01*
X79286000Y-97207000D02*
X77240000Y-97207000D01*
X75160000Y-97167000D02*
X73102000Y-97167000D01*
X79298000Y-97167000D02*
X77240000Y-97167000D01*
X75160000Y-97127000D02*
X73090000Y-97127000D01*
X79310000Y-97127000D02*
X77240000Y-97127000D01*
X75160000Y-97087000D02*
X73079000Y-97087000D01*
X79321000Y-97087000D02*
X77240000Y-97087000D01*
X75160000Y-97047000D02*
X73069000Y-97047000D01*
X79331000Y-97047000D02*
X77240000Y-97047000D01*
X75160000Y-97007000D02*
X73059000Y-97007000D01*
X79341000Y-97007000D02*
X77240000Y-97007000D01*
X75160000Y-96967000D02*
X73050000Y-96967000D01*
X79350000Y-96967000D02*
X77240000Y-96967000D01*
X75160000Y-96926000D02*
X73041000Y-96926000D01*
X79359000Y-96926000D02*
X77240000Y-96926000D01*
X75160000Y-96886000D02*
X73033000Y-96886000D01*
X79367000Y-96886000D02*
X77240000Y-96886000D01*
X75160000Y-96846000D02*
X73025000Y-96846000D01*
X79375000Y-96846000D02*
X77240000Y-96846000D01*
X75160000Y-96806000D02*
X73018000Y-96806000D01*
X79382000Y-96806000D02*
X77240000Y-96806000D01*
X75160000Y-96766000D02*
X73011000Y-96766000D01*
X79389000Y-96766000D02*
X77240000Y-96766000D01*
X75160000Y-96726000D02*
X73005000Y-96726000D01*
X79395000Y-96726000D02*
X77240000Y-96726000D01*
X75160000Y-96686000D02*
X72999000Y-96686000D01*
X79401000Y-96686000D02*
X77240000Y-96686000D01*
X75160000Y-96646000D02*
X72994000Y-96646000D01*
X79406000Y-96646000D02*
X77240000Y-96646000D01*
X75160000Y-96606000D02*
X72989000Y-96606000D01*
X79411000Y-96606000D02*
X77240000Y-96606000D01*
X75160000Y-96566000D02*
X72985000Y-96566000D01*
X79415000Y-96566000D02*
X77240000Y-96566000D01*
X75160000Y-96526000D02*
X72982000Y-96526000D01*
X79418000Y-96526000D02*
X77240000Y-96526000D01*
X75160000Y-96486000D02*
X72978000Y-96486000D01*
X79422000Y-96486000D02*
X77240000Y-96486000D01*
X79424000Y-96446000D02*
X72976000Y-96446000D01*
X79427000Y-96406000D02*
X72973000Y-96406000D01*
X79428000Y-96366000D02*
X72972000Y-96366000D01*
X79430000Y-96326000D02*
X72970000Y-96326000D01*
X79430000Y-96286000D02*
X72970000Y-96286000D01*
X79430000Y-96246000D02*
X72970000Y-96246000D01*
X79470000Y-96246000D02*
G75*
G03X79470000Y-96246000I-3270000J0D01*
G01*
X75316000Y-76825241D02*
X75946000Y-76825241D01*
X75631000Y-77140241D02*
X75631000Y-76510241D01*
X77068000Y-70399000D02*
X77872000Y-70399000D01*
X76837000Y-70439000D02*
X78103000Y-70439000D01*
X76668000Y-70479000D02*
X78272000Y-70479000D01*
X76530000Y-70519000D02*
X78410000Y-70519000D01*
X76411000Y-70559000D02*
X78529000Y-70559000D01*
X76305000Y-70599000D02*
X78635000Y-70599000D01*
X76208000Y-70639000D02*
X78732000Y-70639000D01*
X76120000Y-70679000D02*
X78820000Y-70679000D01*
X76038000Y-70719000D02*
X78902000Y-70719000D01*
X75961000Y-70759000D02*
X78979000Y-70759000D01*
X75889000Y-70799000D02*
X79051000Y-70799000D01*
X75820000Y-70839000D02*
X79120000Y-70839000D01*
X75756000Y-70879000D02*
X79184000Y-70879000D01*
X75694000Y-70919000D02*
X79246000Y-70919000D01*
X75636000Y-70959000D02*
X79304000Y-70959000D01*
X75580000Y-70999000D02*
X79360000Y-70999000D01*
X75526000Y-71039000D02*
X79414000Y-71039000D01*
X75475000Y-71079000D02*
X79465000Y-71079000D01*
X75426000Y-71119000D02*
X79514000Y-71119000D01*
X75378000Y-71159000D02*
X79562000Y-71159000D01*
X75333000Y-71199000D02*
X79607000Y-71199000D01*
X75288000Y-71239000D02*
X79652000Y-71239000D01*
X75246000Y-71279000D02*
X79694000Y-71279000D01*
X75205000Y-71319000D02*
X79735000Y-71319000D01*
X78510000Y-71359000D02*
X79775000Y-71359000D01*
X75165000Y-71359000D02*
X76430000Y-71359000D01*
X78510000Y-71399000D02*
X79813000Y-71399000D01*
X75127000Y-71399000D02*
X76430000Y-71399000D01*
X78510000Y-71439000D02*
X79850000Y-71439000D01*
X75090000Y-71439000D02*
X76430000Y-71439000D01*
X78510000Y-71479000D02*
X79886000Y-71479000D01*
X75054000Y-71479000D02*
X76430000Y-71479000D01*
X78510000Y-71519000D02*
X79920000Y-71519000D01*
X75020000Y-71519000D02*
X76430000Y-71519000D01*
X78510000Y-71559000D02*
X79954000Y-71559000D01*
X74986000Y-71559000D02*
X76430000Y-71559000D01*
X78510000Y-71599000D02*
X79986000Y-71599000D01*
X74954000Y-71599000D02*
X76430000Y-71599000D01*
X78510000Y-71639000D02*
X80018000Y-71639000D01*
X74922000Y-71639000D02*
X76430000Y-71639000D01*
X78510000Y-71679000D02*
X80048000Y-71679000D01*
X74892000Y-71679000D02*
X76430000Y-71679000D01*
X78510000Y-71719000D02*
X80077000Y-71719000D01*
X74863000Y-71719000D02*
X76430000Y-71719000D01*
X78510000Y-71759000D02*
X80106000Y-71759000D01*
X74834000Y-71759000D02*
X76430000Y-71759000D01*
X78510000Y-71799000D02*
X80134000Y-71799000D01*
X74806000Y-71799000D02*
X76430000Y-71799000D01*
X78510000Y-71839000D02*
X80160000Y-71839000D01*
X74780000Y-71839000D02*
X76430000Y-71839000D01*
X78510000Y-71879000D02*
X80186000Y-71879000D01*
X74754000Y-71879000D02*
X76430000Y-71879000D01*
X78510000Y-71919000D02*
X80212000Y-71919000D01*
X74728000Y-71919000D02*
X76430000Y-71919000D01*
X78510000Y-71959000D02*
X80236000Y-71959000D01*
X74704000Y-71959000D02*
X76430000Y-71959000D01*
X78510000Y-71999000D02*
X80260000Y-71999000D01*
X74680000Y-71999000D02*
X76430000Y-71999000D01*
X78510000Y-72039000D02*
X80282000Y-72039000D01*
X74658000Y-72039000D02*
X76430000Y-72039000D01*
X78510000Y-72079000D02*
X80304000Y-72079000D01*
X74636000Y-72079000D02*
X76430000Y-72079000D01*
X78510000Y-72119000D02*
X80326000Y-72119000D01*
X74614000Y-72119000D02*
X76430000Y-72119000D01*
X78510000Y-72159000D02*
X80346000Y-72159000D01*
X74594000Y-72159000D02*
X76430000Y-72159000D01*
X78510000Y-72199000D02*
X80366000Y-72199000D01*
X74574000Y-72199000D02*
X76430000Y-72199000D01*
X78510000Y-72239000D02*
X80386000Y-72239000D01*
X74554000Y-72239000D02*
X76430000Y-72239000D01*
X78510000Y-72279000D02*
X80404000Y-72279000D01*
X74536000Y-72279000D02*
X76430000Y-72279000D01*
X78510000Y-72319000D02*
X80422000Y-72319000D01*
X74518000Y-72319000D02*
X76430000Y-72319000D01*
X78510000Y-72359000D02*
X80440000Y-72359000D01*
X74500000Y-72359000D02*
X76430000Y-72359000D01*
X78510000Y-72399000D02*
X80456000Y-72399000D01*
X74484000Y-72399000D02*
X76430000Y-72399000D01*
X78510000Y-72439000D02*
X80472000Y-72439000D01*
X74468000Y-72439000D02*
X76430000Y-72439000D01*
X78510000Y-72479000D02*
X80488000Y-72479000D01*
X74452000Y-72479000D02*
X76430000Y-72479000D01*
X78510000Y-72519000D02*
X80503000Y-72519000D01*
X74437000Y-72519000D02*
X76430000Y-72519000D01*
X78510000Y-72559000D02*
X80517000Y-72559000D01*
X74423000Y-72559000D02*
X76430000Y-72559000D01*
X78510000Y-72599000D02*
X80531000Y-72599000D01*
X74409000Y-72599000D02*
X76430000Y-72599000D01*
X78510000Y-72639000D02*
X80544000Y-72639000D01*
X74396000Y-72639000D02*
X76430000Y-72639000D01*
X78510000Y-72679000D02*
X80556000Y-72679000D01*
X74384000Y-72679000D02*
X76430000Y-72679000D01*
X78510000Y-72719000D02*
X80568000Y-72719000D01*
X74372000Y-72719000D02*
X76430000Y-72719000D01*
X78510000Y-72759000D02*
X80580000Y-72759000D01*
X74360000Y-72759000D02*
X76430000Y-72759000D01*
X78510000Y-72799000D02*
X80591000Y-72799000D01*
X74349000Y-72799000D02*
X76430000Y-72799000D01*
X78510000Y-72839000D02*
X80601000Y-72839000D01*
X74339000Y-72839000D02*
X76430000Y-72839000D01*
X78510000Y-72879000D02*
X80611000Y-72879000D01*
X74329000Y-72879000D02*
X76430000Y-72879000D01*
X78510000Y-72919000D02*
X80620000Y-72919000D01*
X74320000Y-72919000D02*
X76430000Y-72919000D01*
X78510000Y-72960000D02*
X80629000Y-72960000D01*
X74311000Y-72960000D02*
X76430000Y-72960000D01*
X78510000Y-73000000D02*
X80637000Y-73000000D01*
X74303000Y-73000000D02*
X76430000Y-73000000D01*
X78510000Y-73040000D02*
X80645000Y-73040000D01*
X74295000Y-73040000D02*
X76430000Y-73040000D01*
X78510000Y-73080000D02*
X80652000Y-73080000D01*
X74288000Y-73080000D02*
X76430000Y-73080000D01*
X78510000Y-73120000D02*
X80659000Y-73120000D01*
X74281000Y-73120000D02*
X76430000Y-73120000D01*
X78510000Y-73160000D02*
X80665000Y-73160000D01*
X74275000Y-73160000D02*
X76430000Y-73160000D01*
X78510000Y-73200000D02*
X80671000Y-73200000D01*
X74269000Y-73200000D02*
X76430000Y-73200000D01*
X78510000Y-73240000D02*
X80676000Y-73240000D01*
X74264000Y-73240000D02*
X76430000Y-73240000D01*
X78510000Y-73280000D02*
X80681000Y-73280000D01*
X74259000Y-73280000D02*
X76430000Y-73280000D01*
X78510000Y-73320000D02*
X80685000Y-73320000D01*
X74255000Y-73320000D02*
X76430000Y-73320000D01*
X78510000Y-73360000D02*
X80688000Y-73360000D01*
X74252000Y-73360000D02*
X76430000Y-73360000D01*
X78510000Y-73400000D02*
X80692000Y-73400000D01*
X74248000Y-73400000D02*
X76430000Y-73400000D01*
X74246000Y-73440000D02*
X80694000Y-73440000D01*
X74243000Y-73480000D02*
X80697000Y-73480000D01*
X74242000Y-73520000D02*
X80698000Y-73520000D01*
X74240000Y-73560000D02*
X80700000Y-73560000D01*
X74240000Y-73600000D02*
X80700000Y-73600000D01*
X74240000Y-73640000D02*
X80700000Y-73640000D01*
X80740000Y-73640000D02*
G75*
G03X80740000Y-73640000I-3270000J0D01*
G01*
D10*
X85598095Y-69512380D02*
X85598095Y-70321904D01*
X85645714Y-70417142D01*
X85693333Y-70464761D01*
X85788571Y-70512380D01*
X85979047Y-70512380D01*
X86074285Y-70464761D01*
X86121904Y-70417142D01*
X86169523Y-70321904D01*
X86169523Y-69512380D01*
X87169523Y-70512380D02*
X86598095Y-70512380D01*
X86883809Y-70512380D02*
X86883809Y-69512380D01*
X86788571Y-69655238D01*
X86693333Y-69750476D01*
X86598095Y-69798095D01*
X86812380Y-85351666D02*
X86812380Y-85827857D01*
X85812380Y-85827857D01*
X86812380Y-85018333D02*
X85812380Y-85018333D01*
X86526666Y-84685000D01*
X85812380Y-84351666D01*
X86812380Y-84351666D01*
X85812380Y-83970714D02*
X85812380Y-83351666D01*
X86193333Y-83685000D01*
X86193333Y-83542142D01*
X86240952Y-83446904D01*
X86288571Y-83399285D01*
X86383809Y-83351666D01*
X86621904Y-83351666D01*
X86717142Y-83399285D01*
X86764761Y-83446904D01*
X86812380Y-83542142D01*
X86812380Y-83827857D01*
X86764761Y-83923095D01*
X86717142Y-83970714D01*
X86812380Y-82875476D02*
X86812380Y-82685000D01*
X86764761Y-82589761D01*
X86717142Y-82542142D01*
X86574285Y-82446904D01*
X86383809Y-82399285D01*
X86002857Y-82399285D01*
X85907619Y-82446904D01*
X85860000Y-82494523D01*
X85812380Y-82589761D01*
X85812380Y-82780238D01*
X85860000Y-82875476D01*
X85907619Y-82923095D01*
X86002857Y-82970714D01*
X86240952Y-82970714D01*
X86336190Y-82923095D01*
X86383809Y-82875476D01*
X86431428Y-82780238D01*
X86431428Y-82589761D01*
X86383809Y-82494523D01*
X86336190Y-82446904D01*
X86240952Y-82399285D01*
X86812380Y-81446904D02*
X86812380Y-82018333D01*
X86812380Y-81732619D02*
X85812380Y-81732619D01*
X85955238Y-81827857D01*
X86050476Y-81923095D01*
X86098095Y-82018333D01*
X85812380Y-80542142D02*
X85812380Y-81018333D01*
X86288571Y-81065952D01*
X86240952Y-81018333D01*
X86193333Y-80923095D01*
X86193333Y-80685000D01*
X86240952Y-80589761D01*
X86288571Y-80542142D01*
X86383809Y-80494523D01*
X86621904Y-80494523D01*
X86717142Y-80542142D01*
X86764761Y-80589761D01*
X86812380Y-80685000D01*
X86812380Y-80923095D01*
X86764761Y-81018333D01*
X86717142Y-81065952D01*
X86193333Y-99512380D02*
X85860000Y-99036190D01*
X85621904Y-99512380D02*
X85621904Y-98512380D01*
X86002857Y-98512380D01*
X86098095Y-98560000D01*
X86145714Y-98607619D01*
X86193333Y-98702857D01*
X86193333Y-98845714D01*
X86145714Y-98940952D01*
X86098095Y-98988571D01*
X86002857Y-99036190D01*
X85621904Y-99036190D01*
X86526666Y-98512380D02*
X87145714Y-98512380D01*
X86812380Y-98893333D01*
X86955238Y-98893333D01*
X87050476Y-98940952D01*
X87098095Y-98988571D01*
X87145714Y-99083809D01*
X87145714Y-99321904D01*
X87098095Y-99417142D01*
X87050476Y-99464761D01*
X86955238Y-99512380D01*
X86669523Y-99512380D01*
X86574285Y-99464761D01*
X86526666Y-99417142D01*
X84907619Y-95972380D02*
X85526666Y-95972380D01*
X85193333Y-96353333D01*
X85336190Y-96353333D01*
X85431428Y-96400952D01*
X85479047Y-96448571D01*
X85526666Y-96543809D01*
X85526666Y-96781904D01*
X85479047Y-96877142D01*
X85431428Y-96924761D01*
X85336190Y-96972380D01*
X85050476Y-96972380D01*
X84955238Y-96924761D01*
X84907619Y-96877142D01*
X85955238Y-96877142D02*
X86002857Y-96924761D01*
X85955238Y-96972380D01*
X85907619Y-96924761D01*
X85955238Y-96877142D01*
X85955238Y-96972380D01*
X86479047Y-96972380D02*
X86669523Y-96972380D01*
X86764761Y-96924761D01*
X86812380Y-96877142D01*
X86907619Y-96734285D01*
X86955238Y-96543809D01*
X86955238Y-96162857D01*
X86907619Y-96067619D01*
X86860000Y-96020000D01*
X86764761Y-95972380D01*
X86574285Y-95972380D01*
X86479047Y-96020000D01*
X86431428Y-96067619D01*
X86383809Y-96162857D01*
X86383809Y-96400952D01*
X86431428Y-96496190D01*
X86479047Y-96543809D01*
X86574285Y-96591428D01*
X86764761Y-96591428D01*
X86860000Y-96543809D01*
X86907619Y-96496190D01*
X86955238Y-96400952D01*
X87383809Y-96972380D02*
X87383809Y-95972380D01*
X87479047Y-96591428D02*
X87764761Y-96972380D01*
X87764761Y-96305714D02*
X87383809Y-96686666D01*
X73239333Y-78430380D02*
X72906000Y-77954190D01*
X72667904Y-78430380D02*
X72667904Y-77430380D01*
X73048857Y-77430380D01*
X73144095Y-77478000D01*
X73191714Y-77525619D01*
X73239333Y-77620857D01*
X73239333Y-77763714D01*
X73191714Y-77858952D01*
X73144095Y-77906571D01*
X73048857Y-77954190D01*
X72667904Y-77954190D01*
X73620285Y-77525619D02*
X73667904Y-77478000D01*
X73763142Y-77430380D01*
X74001238Y-77430380D01*
X74096476Y-77478000D01*
X74144095Y-77525619D01*
X74191714Y-77620857D01*
X74191714Y-77716095D01*
X74144095Y-77858952D01*
X73572666Y-78430380D01*
X74191714Y-78430380D01*
X79954380Y-81827666D02*
X79478190Y-82161000D01*
X79954380Y-82399095D02*
X78954380Y-82399095D01*
X78954380Y-82018142D01*
X79002000Y-81922904D01*
X79049619Y-81875285D01*
X79144857Y-81827666D01*
X79287714Y-81827666D01*
X79382952Y-81875285D01*
X79430571Y-81922904D01*
X79478190Y-82018142D01*
X79478190Y-82399095D01*
X79954380Y-80875285D02*
X79954380Y-81446714D01*
X79954380Y-81161000D02*
X78954380Y-81161000D01*
X79097238Y-81256238D01*
X79192476Y-81351476D01*
X79240095Y-81446714D01*
X78287619Y-89034761D02*
X78240000Y-88987142D01*
X78192380Y-88891904D01*
X78192380Y-88653809D01*
X78240000Y-88558571D01*
X78287619Y-88510952D01*
X78382857Y-88463333D01*
X78478095Y-88463333D01*
X78620952Y-88510952D01*
X79192380Y-89082380D01*
X79192380Y-88463333D01*
X79097142Y-88034761D02*
X79144761Y-87987142D01*
X79192380Y-88034761D01*
X79144761Y-88082380D01*
X79097142Y-88034761D01*
X79192380Y-88034761D01*
X78192380Y-87653809D02*
X78192380Y-86987142D01*
X79192380Y-87415714D01*
X79192380Y-86606190D02*
X78192380Y-86606190D01*
X78811428Y-86510952D02*
X79192380Y-86225238D01*
X78525714Y-86225238D02*
X78906666Y-86606190D01*
X66976666Y-82212380D02*
X66976666Y-82926666D01*
X66929047Y-83069523D01*
X66833809Y-83164761D01*
X66690952Y-83212380D01*
X66595714Y-83212380D01*
X67976666Y-83212380D02*
X67405238Y-83212380D01*
X67690952Y-83212380D02*
X67690952Y-82212380D01*
X67595714Y-82355238D01*
X67500476Y-82450476D01*
X67405238Y-82498095D01*
X71572380Y-88463285D02*
X70572380Y-88463285D01*
X70572380Y-88225190D01*
X70620000Y-88082333D01*
X70715238Y-87987095D01*
X70810476Y-87939476D01*
X71000952Y-87891857D01*
X71143809Y-87891857D01*
X71334285Y-87939476D01*
X71429523Y-87987095D01*
X71524761Y-88082333D01*
X71572380Y-88225190D01*
X71572380Y-88463285D01*
X71572380Y-86939476D02*
X71572380Y-87510904D01*
X71572380Y-87225190D02*
X70572380Y-87225190D01*
X70715238Y-87320428D01*
X70810476Y-87415666D01*
X70858095Y-87510904D01*
X70667619Y-86558523D02*
X70620000Y-86510904D01*
X70572380Y-86415666D01*
X70572380Y-86177571D01*
X70620000Y-86082333D01*
X70667619Y-86034714D01*
X70762857Y-85987095D01*
X70858095Y-85987095D01*
X71000952Y-86034714D01*
X71572380Y-86606142D01*
X71572380Y-85987095D01*
X92527380Y-97734285D02*
X91527380Y-97734285D01*
X91527380Y-97496190D01*
X91575000Y-97353333D01*
X91670238Y-97258095D01*
X91765476Y-97210476D01*
X91955952Y-97162857D01*
X92098809Y-97162857D01*
X92289285Y-97210476D01*
X92384523Y-97258095D01*
X92479761Y-97353333D01*
X92527380Y-97496190D01*
X92527380Y-97734285D01*
X92527380Y-96210476D02*
X92527380Y-96781904D01*
X92527380Y-96496190D02*
X91527380Y-96496190D01*
X91670238Y-96591428D01*
X91765476Y-96686666D01*
X91813095Y-96781904D01*
X91527380Y-95591428D02*
X91527380Y-95496190D01*
X91575000Y-95400952D01*
X91622619Y-95353333D01*
X91717857Y-95305714D01*
X91908333Y-95258095D01*
X92146428Y-95258095D01*
X92336904Y-95305714D01*
X92432142Y-95353333D01*
X92479761Y-95400952D01*
X92527380Y-95496190D01*
X92527380Y-95591428D01*
X92479761Y-95686666D01*
X92432142Y-95734285D01*
X92336904Y-95781904D01*
X92146428Y-95829523D01*
X91908333Y-95829523D01*
X91717857Y-95781904D01*
X91622619Y-95734285D01*
X91575000Y-95686666D01*
X91527380Y-95591428D01*
X75382380Y-89098285D02*
X74382380Y-89098285D01*
X74382380Y-88860190D01*
X74430000Y-88717333D01*
X74525238Y-88622095D01*
X74620476Y-88574476D01*
X74810952Y-88526857D01*
X74953809Y-88526857D01*
X75144285Y-88574476D01*
X75239523Y-88622095D01*
X75334761Y-88717333D01*
X75382380Y-88860190D01*
X75382380Y-89098285D01*
X75382380Y-87574476D02*
X75382380Y-88145904D01*
X75382380Y-87860190D02*
X74382380Y-87860190D01*
X74525238Y-87955428D01*
X74620476Y-88050666D01*
X74668095Y-88145904D01*
X75382380Y-86622095D02*
X75382380Y-87193523D01*
X75382380Y-86907809D02*
X74382380Y-86907809D01*
X74525238Y-87003047D01*
X74620476Y-87098285D01*
X74668095Y-87193523D01*
X92654380Y-94464095D02*
X91654380Y-94464095D01*
X91654380Y-94226000D01*
X91702000Y-94083142D01*
X91797238Y-93987904D01*
X91892476Y-93940285D01*
X92082952Y-93892666D01*
X92225809Y-93892666D01*
X92416285Y-93940285D01*
X92511523Y-93987904D01*
X92606761Y-94083142D01*
X92654380Y-94226000D01*
X92654380Y-94464095D01*
X92654380Y-93416476D02*
X92654380Y-93226000D01*
X92606761Y-93130761D01*
X92559142Y-93083142D01*
X92416285Y-92987904D01*
X92225809Y-92940285D01*
X91844857Y-92940285D01*
X91749619Y-92987904D01*
X91702000Y-93035523D01*
X91654380Y-93130761D01*
X91654380Y-93321238D01*
X91702000Y-93416476D01*
X91749619Y-93464095D01*
X91844857Y-93511714D01*
X92082952Y-93511714D01*
X92178190Y-93464095D01*
X92225809Y-93416476D01*
X92273428Y-93321238D01*
X92273428Y-93130761D01*
X92225809Y-93035523D01*
X92178190Y-92987904D01*
X92082952Y-92940285D01*
X92781380Y-91670095D02*
X91781380Y-91670095D01*
X91781380Y-91432000D01*
X91829000Y-91289142D01*
X91924238Y-91193904D01*
X92019476Y-91146285D01*
X92209952Y-91098666D01*
X92352809Y-91098666D01*
X92543285Y-91146285D01*
X92638523Y-91193904D01*
X92733761Y-91289142D01*
X92781380Y-91432000D01*
X92781380Y-91670095D01*
X92209952Y-90527238D02*
X92162333Y-90622476D01*
X92114714Y-90670095D01*
X92019476Y-90717714D01*
X91971857Y-90717714D01*
X91876619Y-90670095D01*
X91829000Y-90622476D01*
X91781380Y-90527238D01*
X91781380Y-90336761D01*
X91829000Y-90241523D01*
X91876619Y-90193904D01*
X91971857Y-90146285D01*
X92019476Y-90146285D01*
X92114714Y-90193904D01*
X92162333Y-90241523D01*
X92209952Y-90336761D01*
X92209952Y-90527238D01*
X92257571Y-90622476D01*
X92305190Y-90670095D01*
X92400428Y-90717714D01*
X92590904Y-90717714D01*
X92686142Y-90670095D01*
X92733761Y-90622476D01*
X92781380Y-90527238D01*
X92781380Y-90336761D01*
X92733761Y-90241523D01*
X92686142Y-90193904D01*
X92590904Y-90146285D01*
X92400428Y-90146285D01*
X92305190Y-90193904D01*
X92257571Y-90241523D01*
X92209952Y-90336761D01*
X92781380Y-88749095D02*
X91781380Y-88749095D01*
X91781380Y-88511000D01*
X91829000Y-88368142D01*
X91924238Y-88272904D01*
X92019476Y-88225285D01*
X92209952Y-88177666D01*
X92352809Y-88177666D01*
X92543285Y-88225285D01*
X92638523Y-88272904D01*
X92733761Y-88368142D01*
X92781380Y-88511000D01*
X92781380Y-88749095D01*
X91781380Y-87844333D02*
X91781380Y-87177666D01*
X92781380Y-87606238D01*
X92781380Y-85955095D02*
X91781380Y-85955095D01*
X91781380Y-85717000D01*
X91829000Y-85574142D01*
X91924238Y-85478904D01*
X92019476Y-85431285D01*
X92209952Y-85383666D01*
X92352809Y-85383666D01*
X92543285Y-85431285D01*
X92638523Y-85478904D01*
X92733761Y-85574142D01*
X92781380Y-85717000D01*
X92781380Y-85955095D01*
X91781380Y-84526523D02*
X91781380Y-84717000D01*
X91829000Y-84812238D01*
X91876619Y-84859857D01*
X92019476Y-84955095D01*
X92209952Y-85002714D01*
X92590904Y-85002714D01*
X92686142Y-84955095D01*
X92733761Y-84907476D01*
X92781380Y-84812238D01*
X92781380Y-84621761D01*
X92733761Y-84526523D01*
X92686142Y-84478904D01*
X92590904Y-84431285D01*
X92352809Y-84431285D01*
X92257571Y-84478904D01*
X92209952Y-84526523D01*
X92162333Y-84621761D01*
X92162333Y-84812238D01*
X92209952Y-84907476D01*
X92257571Y-84955095D01*
X92352809Y-85002714D01*
X92781380Y-83161095D02*
X91781380Y-83161095D01*
X91781380Y-82923000D01*
X91829000Y-82780142D01*
X91924238Y-82684904D01*
X92019476Y-82637285D01*
X92209952Y-82589666D01*
X92352809Y-82589666D01*
X92543285Y-82637285D01*
X92638523Y-82684904D01*
X92733761Y-82780142D01*
X92781380Y-82923000D01*
X92781380Y-83161095D01*
X91781380Y-81684904D02*
X91781380Y-82161095D01*
X92257571Y-82208714D01*
X92209952Y-82161095D01*
X92162333Y-82065857D01*
X92162333Y-81827761D01*
X92209952Y-81732523D01*
X92257571Y-81684904D01*
X92352809Y-81637285D01*
X92590904Y-81637285D01*
X92686142Y-81684904D01*
X92733761Y-81732523D01*
X92781380Y-81827761D01*
X92781380Y-82065857D01*
X92733761Y-82161095D01*
X92686142Y-82208714D01*
X92781380Y-80240095D02*
X91781380Y-80240095D01*
X91781380Y-80002000D01*
X91829000Y-79859142D01*
X91924238Y-79763904D01*
X92019476Y-79716285D01*
X92209952Y-79668666D01*
X92352809Y-79668666D01*
X92543285Y-79716285D01*
X92638523Y-79763904D01*
X92733761Y-79859142D01*
X92781380Y-80002000D01*
X92781380Y-80240095D01*
X92114714Y-78811523D02*
X92781380Y-78811523D01*
X91733761Y-79049619D02*
X92448047Y-79287714D01*
X92448047Y-78668666D01*
X92781380Y-77573095D02*
X91781380Y-77573095D01*
X91781380Y-77335000D01*
X91829000Y-77192142D01*
X91924238Y-77096904D01*
X92019476Y-77049285D01*
X92209952Y-77001666D01*
X92352809Y-77001666D01*
X92543285Y-77049285D01*
X92638523Y-77096904D01*
X92733761Y-77192142D01*
X92781380Y-77335000D01*
X92781380Y-77573095D01*
X91781380Y-76668333D02*
X91781380Y-76049285D01*
X92162333Y-76382619D01*
X92162333Y-76239761D01*
X92209952Y-76144523D01*
X92257571Y-76096904D01*
X92352809Y-76049285D01*
X92590904Y-76049285D01*
X92686142Y-76096904D01*
X92733761Y-76144523D01*
X92781380Y-76239761D01*
X92781380Y-76525476D01*
X92733761Y-76620714D01*
X92686142Y-76668333D01*
X92781380Y-74652095D02*
X91781380Y-74652095D01*
X91781380Y-74414000D01*
X91829000Y-74271142D01*
X91924238Y-74175904D01*
X92019476Y-74128285D01*
X92209952Y-74080666D01*
X92352809Y-74080666D01*
X92543285Y-74128285D01*
X92638523Y-74175904D01*
X92733761Y-74271142D01*
X92781380Y-74414000D01*
X92781380Y-74652095D01*
X91876619Y-73699714D02*
X91829000Y-73652095D01*
X91781380Y-73556857D01*
X91781380Y-73318761D01*
X91829000Y-73223523D01*
X91876619Y-73175904D01*
X91971857Y-73128285D01*
X92067095Y-73128285D01*
X92209952Y-73175904D01*
X92781380Y-73747333D01*
X92781380Y-73128285D01*
X92781380Y-71731095D02*
X91781380Y-71731095D01*
X91781380Y-71493000D01*
X91829000Y-71350142D01*
X91924238Y-71254904D01*
X92019476Y-71207285D01*
X92209952Y-71159666D01*
X92352809Y-71159666D01*
X92543285Y-71207285D01*
X92638523Y-71254904D01*
X92733761Y-71350142D01*
X92781380Y-71493000D01*
X92781380Y-71731095D01*
X92781380Y-70207285D02*
X92781380Y-70778714D01*
X92781380Y-70493000D02*
X91781380Y-70493000D01*
X91924238Y-70588238D01*
X92019476Y-70683476D01*
X92067095Y-70778714D01*
X66508333Y-77827142D02*
X66460714Y-77874761D01*
X66317857Y-77922380D01*
X66222619Y-77922380D01*
X66079761Y-77874761D01*
X65984523Y-77779523D01*
X65936904Y-77684285D01*
X65889285Y-77493809D01*
X65889285Y-77350952D01*
X65936904Y-77160476D01*
X65984523Y-77065238D01*
X66079761Y-76970000D01*
X66222619Y-76922380D01*
X66317857Y-76922380D01*
X66460714Y-76970000D01*
X66508333Y-77017619D01*
X66841666Y-76922380D02*
X67460714Y-76922380D01*
X67127380Y-77303333D01*
X67270238Y-77303333D01*
X67365476Y-77350952D01*
X67413095Y-77398571D01*
X67460714Y-77493809D01*
X67460714Y-77731904D01*
X67413095Y-77827142D01*
X67365476Y-77874761D01*
X67270238Y-77922380D01*
X66984523Y-77922380D01*
X66889285Y-77874761D01*
X66841666Y-77827142D01*
X71969333Y-99036142D02*
X71921714Y-99083761D01*
X71778857Y-99131380D01*
X71683619Y-99131380D01*
X71540761Y-99083761D01*
X71445523Y-98988523D01*
X71397904Y-98893285D01*
X71350285Y-98702809D01*
X71350285Y-98559952D01*
X71397904Y-98369476D01*
X71445523Y-98274238D01*
X71540761Y-98179000D01*
X71683619Y-98131380D01*
X71778857Y-98131380D01*
X71921714Y-98179000D01*
X71969333Y-98226619D01*
X72350285Y-98226619D02*
X72397904Y-98179000D01*
X72493142Y-98131380D01*
X72731238Y-98131380D01*
X72826476Y-98179000D01*
X72874095Y-98226619D01*
X72921714Y-98321857D01*
X72921714Y-98417095D01*
X72874095Y-98559952D01*
X72302666Y-99131380D01*
X72921714Y-99131380D01*
X70794619Y-96591380D02*
X70223190Y-96591380D01*
X70508904Y-96591380D02*
X70508904Y-95591380D01*
X70413666Y-95734238D01*
X70318428Y-95829476D01*
X70223190Y-95877095D01*
X71651761Y-95924714D02*
X71651761Y-96591380D01*
X71223190Y-95924714D02*
X71223190Y-96448523D01*
X71270809Y-96543761D01*
X71366047Y-96591380D01*
X71508904Y-96591380D01*
X71604142Y-96543761D01*
X71651761Y-96496142D01*
X71985095Y-95924714D02*
X72366047Y-95924714D01*
X72127952Y-96591380D02*
X72127952Y-95734238D01*
X72175571Y-95639000D01*
X72270809Y-95591380D01*
X72366047Y-95591380D01*
X79843333Y-77827142D02*
X79795714Y-77874761D01*
X79652857Y-77922380D01*
X79557619Y-77922380D01*
X79414761Y-77874761D01*
X79319523Y-77779523D01*
X79271904Y-77684285D01*
X79224285Y-77493809D01*
X79224285Y-77350952D01*
X79271904Y-77160476D01*
X79319523Y-77065238D01*
X79414761Y-76970000D01*
X79557619Y-76922380D01*
X79652857Y-76922380D01*
X79795714Y-76970000D01*
X79843333Y-77017619D01*
X80795714Y-77922380D02*
X80224285Y-77922380D01*
X80510000Y-77922380D02*
X80510000Y-76922380D01*
X80414761Y-77065238D01*
X80319523Y-77160476D01*
X80224285Y-77208095D01*
M02*
