G04 #@! TF.GenerationSoftware,KiCad,Pcbnew,(5.1.4-0-10_14)*
G04 #@! TF.CreationDate,2019-08-30T09:08:26-07:00*
G04 #@! TF.ProjectId,VUMeter,56554d65-7465-4722-9e6b-696361645f70,rev?*
G04 #@! TF.SameCoordinates,Original*
G04 #@! TF.FileFunction,Soldermask,Top*
G04 #@! TF.FilePolarity,Negative*
%FSLAX46Y46*%
G04 Gerber Fmt 4.6, Leading zero omitted, Abs format (unit mm)*
G04 Created by KiCad (PCBNEW (5.1.4-0-10_14)) date 2019-08-30 09:08:26*
%MOMM*%
%LPD*%
G04 APERTURE LIST*
%ADD10C,0.100000*%
G04 APERTURE END LIST*
D10*
G36*
X76448228Y-96677703D02*
G01*
X76603100Y-96741853D01*
X76742481Y-96834985D01*
X76861015Y-96953519D01*
X76954147Y-97092900D01*
X77018297Y-97247772D01*
X77051000Y-97412184D01*
X77051000Y-97579816D01*
X77018297Y-97744228D01*
X76954147Y-97899100D01*
X76861015Y-98038481D01*
X76742481Y-98157015D01*
X76603100Y-98250147D01*
X76448228Y-98314297D01*
X76283816Y-98347000D01*
X76116184Y-98347000D01*
X75951772Y-98314297D01*
X75796900Y-98250147D01*
X75657519Y-98157015D01*
X75538985Y-98038481D01*
X75445853Y-97899100D01*
X75381703Y-97744228D01*
X75349000Y-97579816D01*
X75349000Y-97412184D01*
X75381703Y-97247772D01*
X75445853Y-97092900D01*
X75538985Y-96953519D01*
X75657519Y-96834985D01*
X75796900Y-96741853D01*
X75951772Y-96677703D01*
X76116184Y-96645000D01*
X76283816Y-96645000D01*
X76448228Y-96677703D01*
X76448228Y-96677703D01*
G37*
G36*
X96797395Y-95605546D02*
G01*
X96970466Y-95677234D01*
X96976572Y-95681314D01*
X97126227Y-95781310D01*
X97258690Y-95913773D01*
X97301284Y-95977520D01*
X97362766Y-96069534D01*
X97434454Y-96242605D01*
X97471000Y-96426333D01*
X97471000Y-96613667D01*
X97434454Y-96797395D01*
X97362766Y-96970466D01*
X97362765Y-96970467D01*
X97258690Y-97126227D01*
X97126227Y-97258690D01*
X97103092Y-97274148D01*
X96970466Y-97362766D01*
X96797395Y-97434454D01*
X96613667Y-97471000D01*
X96426333Y-97471000D01*
X96242605Y-97434454D01*
X96069534Y-97362766D01*
X95936908Y-97274148D01*
X95913773Y-97258690D01*
X95781310Y-97126227D01*
X95677235Y-96970467D01*
X95677234Y-96970466D01*
X95605546Y-96797395D01*
X95569000Y-96613667D01*
X95569000Y-96426333D01*
X95605546Y-96242605D01*
X95677234Y-96069534D01*
X95738716Y-95977520D01*
X95781310Y-95913773D01*
X95913773Y-95781310D01*
X96063428Y-95681314D01*
X96069534Y-95677234D01*
X96242605Y-95605546D01*
X96426333Y-95569000D01*
X96613667Y-95569000D01*
X96797395Y-95605546D01*
X96797395Y-95605546D01*
G37*
G36*
X94931000Y-97471000D02*
G01*
X93029000Y-97471000D01*
X93029000Y-95569000D01*
X94931000Y-95569000D01*
X94931000Y-97471000D01*
X94931000Y-97471000D01*
G37*
G36*
X90336823Y-95681313D02*
G01*
X90497242Y-95729976D01*
X90564361Y-95765852D01*
X90645078Y-95808996D01*
X90774659Y-95915341D01*
X90881004Y-96044922D01*
X90881005Y-96044924D01*
X90960024Y-96192758D01*
X91008687Y-96353177D01*
X91025117Y-96520000D01*
X91008687Y-96686823D01*
X90960024Y-96847242D01*
X90919477Y-96923100D01*
X90881004Y-96995078D01*
X90774659Y-97124659D01*
X90645078Y-97231004D01*
X90645076Y-97231005D01*
X90497242Y-97310024D01*
X90336823Y-97358687D01*
X90211804Y-97371000D01*
X90128196Y-97371000D01*
X90003177Y-97358687D01*
X89842758Y-97310024D01*
X89694924Y-97231005D01*
X89694922Y-97231004D01*
X89565341Y-97124659D01*
X89458996Y-96995078D01*
X89420523Y-96923100D01*
X89379976Y-96847242D01*
X89331313Y-96686823D01*
X89314883Y-96520000D01*
X89331313Y-96353177D01*
X89379976Y-96192758D01*
X89458995Y-96044924D01*
X89458996Y-96044922D01*
X89565341Y-95915341D01*
X89694922Y-95808996D01*
X89775639Y-95765852D01*
X89842758Y-95729976D01*
X90003177Y-95681313D01*
X90128196Y-95669000D01*
X90211804Y-95669000D01*
X90336823Y-95681313D01*
X90336823Y-95681313D01*
G37*
G36*
X82798228Y-95701703D02*
G01*
X82953100Y-95765853D01*
X83092481Y-95858985D01*
X83211015Y-95977519D01*
X83304147Y-96116900D01*
X83368297Y-96271772D01*
X83401000Y-96436184D01*
X83401000Y-96603816D01*
X83368297Y-96768228D01*
X83304147Y-96923100D01*
X83211015Y-97062481D01*
X83092481Y-97181015D01*
X82953100Y-97274147D01*
X82798228Y-97338297D01*
X82633816Y-97371000D01*
X82466184Y-97371000D01*
X82301772Y-97338297D01*
X82146900Y-97274147D01*
X82007519Y-97181015D01*
X81888985Y-97062481D01*
X81795853Y-96923100D01*
X81731703Y-96768228D01*
X81699000Y-96603816D01*
X81699000Y-96436184D01*
X81731703Y-96271772D01*
X81795853Y-96116900D01*
X81888985Y-95977519D01*
X82007519Y-95858985D01*
X82146900Y-95765853D01*
X82301772Y-95701703D01*
X82466184Y-95669000D01*
X82633816Y-95669000D01*
X82798228Y-95701703D01*
X82798228Y-95701703D01*
G37*
G36*
X77051000Y-95847000D02*
G01*
X75349000Y-95847000D01*
X75349000Y-94145000D01*
X77051000Y-94145000D01*
X77051000Y-95847000D01*
X77051000Y-95847000D01*
G37*
G36*
X94931000Y-94648776D02*
G01*
X93029000Y-94648776D01*
X93029000Y-92746776D01*
X94931000Y-92746776D01*
X94931000Y-94648776D01*
X94931000Y-94648776D01*
G37*
G36*
X96797395Y-92783322D02*
G01*
X96970466Y-92855010D01*
X96970467Y-92855011D01*
X97126227Y-92959086D01*
X97258690Y-93091549D01*
X97258691Y-93091551D01*
X97362766Y-93247310D01*
X97434454Y-93420381D01*
X97471000Y-93604109D01*
X97471000Y-93791443D01*
X97434454Y-93975171D01*
X97362766Y-94148242D01*
X97362765Y-94148243D01*
X97258690Y-94304003D01*
X97126227Y-94436466D01*
X97047818Y-94488857D01*
X96970466Y-94540542D01*
X96797395Y-94612230D01*
X96613667Y-94648776D01*
X96426333Y-94648776D01*
X96242605Y-94612230D01*
X96069534Y-94540542D01*
X95992182Y-94488857D01*
X95913773Y-94436466D01*
X95781310Y-94304003D01*
X95677235Y-94148243D01*
X95677234Y-94148242D01*
X95605546Y-93975171D01*
X95569000Y-93791443D01*
X95569000Y-93604109D01*
X95605546Y-93420381D01*
X95677234Y-93247310D01*
X95781309Y-93091551D01*
X95781310Y-93091549D01*
X95913773Y-92959086D01*
X96069533Y-92855011D01*
X96069534Y-92855010D01*
X96242605Y-92783322D01*
X96426333Y-92746776D01*
X96613667Y-92746776D01*
X96797395Y-92783322D01*
X96797395Y-92783322D01*
G37*
G36*
X67420442Y-91815518D02*
G01*
X67486627Y-91822037D01*
X67656466Y-91873557D01*
X67812991Y-91957222D01*
X67848729Y-91986552D01*
X67950186Y-92069814D01*
X68033448Y-92171271D01*
X68062778Y-92207009D01*
X68146443Y-92363534D01*
X68197963Y-92533373D01*
X68215359Y-92710000D01*
X68197963Y-92886627D01*
X68146443Y-93056466D01*
X68062778Y-93212991D01*
X68034614Y-93247309D01*
X67950186Y-93350186D01*
X67848729Y-93433448D01*
X67812991Y-93462778D01*
X67656466Y-93546443D01*
X67486627Y-93597963D01*
X67424225Y-93604109D01*
X67354260Y-93611000D01*
X67265740Y-93611000D01*
X67195775Y-93604109D01*
X67133373Y-93597963D01*
X66963534Y-93546443D01*
X66807009Y-93462778D01*
X66771271Y-93433448D01*
X66669814Y-93350186D01*
X66585386Y-93247309D01*
X66557222Y-93212991D01*
X66473557Y-93056466D01*
X66422037Y-92886627D01*
X66404641Y-92710000D01*
X66422037Y-92533373D01*
X66473557Y-92363534D01*
X66557222Y-92207009D01*
X66586552Y-92171271D01*
X66669814Y-92069814D01*
X66771271Y-91986552D01*
X66807009Y-91957222D01*
X66963534Y-91873557D01*
X67133373Y-91822037D01*
X67199558Y-91815518D01*
X67265740Y-91809000D01*
X67354260Y-91809000D01*
X67420442Y-91815518D01*
X67420442Y-91815518D01*
G37*
G36*
X90736823Y-91871313D02*
G01*
X90897242Y-91919976D01*
X90966922Y-91957221D01*
X91045078Y-91998996D01*
X91174659Y-92105341D01*
X91281004Y-92234922D01*
X91281005Y-92234924D01*
X91360024Y-92382758D01*
X91408687Y-92543177D01*
X91425117Y-92710000D01*
X91408687Y-92876823D01*
X91360024Y-93037242D01*
X91349747Y-93056468D01*
X91281004Y-93185078D01*
X91174659Y-93314659D01*
X91045078Y-93421004D01*
X91045076Y-93421005D01*
X90897242Y-93500024D01*
X90736823Y-93548687D01*
X90611804Y-93561000D01*
X89728196Y-93561000D01*
X89603177Y-93548687D01*
X89442758Y-93500024D01*
X89294924Y-93421005D01*
X89294922Y-93421004D01*
X89165341Y-93314659D01*
X89058996Y-93185078D01*
X88990253Y-93056468D01*
X88979976Y-93037242D01*
X88931313Y-92876823D01*
X88914883Y-92710000D01*
X88931313Y-92543177D01*
X88979976Y-92382758D01*
X89058995Y-92234924D01*
X89058996Y-92234922D01*
X89165341Y-92105341D01*
X89294922Y-91998996D01*
X89373078Y-91957221D01*
X89442758Y-91919976D01*
X89603177Y-91871313D01*
X89728196Y-91859000D01*
X90611804Y-91859000D01*
X90736823Y-91871313D01*
X90736823Y-91871313D01*
G37*
G36*
X83116823Y-91871313D02*
G01*
X83277242Y-91919976D01*
X83346922Y-91957221D01*
X83425078Y-91998996D01*
X83554659Y-92105341D01*
X83661004Y-92234922D01*
X83661005Y-92234924D01*
X83740024Y-92382758D01*
X83788687Y-92543177D01*
X83805117Y-92710000D01*
X83788687Y-92876823D01*
X83740024Y-93037242D01*
X83729747Y-93056468D01*
X83661004Y-93185078D01*
X83554659Y-93314659D01*
X83425078Y-93421004D01*
X83425076Y-93421005D01*
X83277242Y-93500024D01*
X83116823Y-93548687D01*
X82991804Y-93561000D01*
X82108196Y-93561000D01*
X81983177Y-93548687D01*
X81822758Y-93500024D01*
X81674924Y-93421005D01*
X81674922Y-93421004D01*
X81545341Y-93314659D01*
X81438996Y-93185078D01*
X81370253Y-93056468D01*
X81359976Y-93037242D01*
X81311313Y-92876823D01*
X81294883Y-92710000D01*
X81311313Y-92543177D01*
X81359976Y-92382758D01*
X81438995Y-92234924D01*
X81438996Y-92234922D01*
X81545341Y-92105341D01*
X81674922Y-91998996D01*
X81753078Y-91957221D01*
X81822758Y-91919976D01*
X81983177Y-91871313D01*
X82108196Y-91859000D01*
X82991804Y-91859000D01*
X83116823Y-91871313D01*
X83116823Y-91871313D01*
G37*
G36*
X78906823Y-90601313D02*
G01*
X79067242Y-90649976D01*
X79199906Y-90720886D01*
X79215078Y-90728996D01*
X79344659Y-90835341D01*
X79451004Y-90964922D01*
X79451005Y-90964924D01*
X79530024Y-91112758D01*
X79578687Y-91273177D01*
X79595117Y-91440000D01*
X79578687Y-91606823D01*
X79530024Y-91767242D01*
X79500735Y-91822037D01*
X79451004Y-91915078D01*
X79344659Y-92044659D01*
X79215078Y-92151004D01*
X79215076Y-92151005D01*
X79067242Y-92230024D01*
X78906823Y-92278687D01*
X78781804Y-92291000D01*
X78698196Y-92291000D01*
X78573177Y-92278687D01*
X78412758Y-92230024D01*
X78264924Y-92151005D01*
X78264922Y-92151004D01*
X78135341Y-92044659D01*
X78028996Y-91915078D01*
X77979265Y-91822037D01*
X77949976Y-91767242D01*
X77901313Y-91606823D01*
X77884883Y-91440000D01*
X77901313Y-91273177D01*
X77949976Y-91112758D01*
X78028995Y-90964924D01*
X78028996Y-90964922D01*
X78135341Y-90835341D01*
X78264922Y-90728996D01*
X78280094Y-90720886D01*
X78412758Y-90649976D01*
X78573177Y-90601313D01*
X78698196Y-90589000D01*
X78781804Y-90589000D01*
X78906823Y-90601313D01*
X78906823Y-90601313D01*
G37*
G36*
X75096823Y-90601313D02*
G01*
X75257242Y-90649976D01*
X75389906Y-90720886D01*
X75405078Y-90728996D01*
X75534659Y-90835341D01*
X75641004Y-90964922D01*
X75641005Y-90964924D01*
X75720024Y-91112758D01*
X75768687Y-91273177D01*
X75785117Y-91440000D01*
X75768687Y-91606823D01*
X75720024Y-91767242D01*
X75690735Y-91822037D01*
X75641004Y-91915078D01*
X75534659Y-92044659D01*
X75405078Y-92151004D01*
X75405076Y-92151005D01*
X75257242Y-92230024D01*
X75096823Y-92278687D01*
X74971804Y-92291000D01*
X74888196Y-92291000D01*
X74763177Y-92278687D01*
X74602758Y-92230024D01*
X74454924Y-92151005D01*
X74454922Y-92151004D01*
X74325341Y-92044659D01*
X74218996Y-91915078D01*
X74169265Y-91822037D01*
X74139976Y-91767242D01*
X74091313Y-91606823D01*
X74074883Y-91440000D01*
X74091313Y-91273177D01*
X74139976Y-91112758D01*
X74218995Y-90964924D01*
X74218996Y-90964922D01*
X74325341Y-90835341D01*
X74454922Y-90728996D01*
X74470094Y-90720886D01*
X74602758Y-90649976D01*
X74763177Y-90601313D01*
X74888196Y-90589000D01*
X74971804Y-90589000D01*
X75096823Y-90601313D01*
X75096823Y-90601313D01*
G37*
G36*
X71971000Y-92291000D02*
G01*
X70269000Y-92291000D01*
X70269000Y-90589000D01*
X71971000Y-90589000D01*
X71971000Y-92291000D01*
X71971000Y-92291000D01*
G37*
G36*
X94931000Y-91826554D02*
G01*
X93029000Y-91826554D01*
X93029000Y-89924554D01*
X94931000Y-89924554D01*
X94931000Y-91826554D01*
X94931000Y-91826554D01*
G37*
G36*
X96797395Y-89961100D02*
G01*
X96970466Y-90032788D01*
X96970467Y-90032789D01*
X97126227Y-90136864D01*
X97258690Y-90269327D01*
X97310339Y-90346625D01*
X97362766Y-90425088D01*
X97434454Y-90598159D01*
X97471000Y-90781887D01*
X97471000Y-90969221D01*
X97434454Y-91152949D01*
X97362766Y-91326020D01*
X97362765Y-91326021D01*
X97258690Y-91481781D01*
X97126227Y-91614244D01*
X97047818Y-91666635D01*
X96970466Y-91718320D01*
X96797395Y-91790008D01*
X96613667Y-91826554D01*
X96426333Y-91826554D01*
X96242605Y-91790008D01*
X96069534Y-91718320D01*
X95992182Y-91666635D01*
X95913773Y-91614244D01*
X95781310Y-91481781D01*
X95677235Y-91326021D01*
X95677234Y-91326020D01*
X95605546Y-91152949D01*
X95569000Y-90969221D01*
X95569000Y-90781887D01*
X95605546Y-90598159D01*
X95677234Y-90425088D01*
X95729661Y-90346625D01*
X95781310Y-90269327D01*
X95913773Y-90136864D01*
X96069533Y-90032789D01*
X96069534Y-90032788D01*
X96242605Y-89961100D01*
X96426333Y-89924554D01*
X96613667Y-89924554D01*
X96797395Y-89961100D01*
X96797395Y-89961100D01*
G37*
G36*
X67420443Y-89275519D02*
G01*
X67486627Y-89282037D01*
X67656466Y-89333557D01*
X67812991Y-89417222D01*
X67848729Y-89446552D01*
X67950186Y-89529814D01*
X68033448Y-89631271D01*
X68062778Y-89667009D01*
X68146443Y-89823534D01*
X68197963Y-89993373D01*
X68215359Y-90170000D01*
X68197963Y-90346627D01*
X68146443Y-90516466D01*
X68062778Y-90672991D01*
X68033448Y-90708729D01*
X67950186Y-90810186D01*
X67848729Y-90893448D01*
X67812991Y-90922778D01*
X67656466Y-91006443D01*
X67486627Y-91057963D01*
X67420442Y-91064482D01*
X67354260Y-91071000D01*
X67265740Y-91071000D01*
X67199558Y-91064482D01*
X67133373Y-91057963D01*
X66963534Y-91006443D01*
X66807009Y-90922778D01*
X66771271Y-90893448D01*
X66669814Y-90810186D01*
X66586552Y-90708729D01*
X66557222Y-90672991D01*
X66473557Y-90516466D01*
X66422037Y-90346627D01*
X66404641Y-90170000D01*
X66422037Y-89993373D01*
X66473557Y-89823534D01*
X66557222Y-89667009D01*
X66586552Y-89631271D01*
X66669814Y-89529814D01*
X66771271Y-89446552D01*
X66807009Y-89417222D01*
X66963534Y-89333557D01*
X67133373Y-89282037D01*
X67199557Y-89275519D01*
X67265740Y-89269000D01*
X67354260Y-89269000D01*
X67420443Y-89275519D01*
X67420443Y-89275519D01*
G37*
G36*
X90736823Y-89331313D02*
G01*
X90897242Y-89379976D01*
X90966922Y-89417221D01*
X91045078Y-89458996D01*
X91174659Y-89565341D01*
X91281004Y-89694922D01*
X91281005Y-89694924D01*
X91360024Y-89842758D01*
X91408687Y-90003177D01*
X91425117Y-90170000D01*
X91408687Y-90336823D01*
X91360024Y-90497242D01*
X91349747Y-90516468D01*
X91281004Y-90645078D01*
X91174659Y-90774659D01*
X91045078Y-90881004D01*
X91045076Y-90881005D01*
X90897242Y-90960024D01*
X90736823Y-91008687D01*
X90611804Y-91021000D01*
X89728196Y-91021000D01*
X89603177Y-91008687D01*
X89442758Y-90960024D01*
X89294924Y-90881005D01*
X89294922Y-90881004D01*
X89165341Y-90774659D01*
X89058996Y-90645078D01*
X88990253Y-90516468D01*
X88979976Y-90497242D01*
X88931313Y-90336823D01*
X88914883Y-90170000D01*
X88931313Y-90003177D01*
X88979976Y-89842758D01*
X89058995Y-89694924D01*
X89058996Y-89694922D01*
X89165341Y-89565341D01*
X89294922Y-89458996D01*
X89373078Y-89417221D01*
X89442758Y-89379976D01*
X89603177Y-89331313D01*
X89728196Y-89319000D01*
X90611804Y-89319000D01*
X90736823Y-89331313D01*
X90736823Y-89331313D01*
G37*
G36*
X83116823Y-89331313D02*
G01*
X83277242Y-89379976D01*
X83346922Y-89417221D01*
X83425078Y-89458996D01*
X83554659Y-89565341D01*
X83661004Y-89694922D01*
X83661005Y-89694924D01*
X83740024Y-89842758D01*
X83788687Y-90003177D01*
X83805117Y-90170000D01*
X83788687Y-90336823D01*
X83740024Y-90497242D01*
X83729747Y-90516468D01*
X83661004Y-90645078D01*
X83554659Y-90774659D01*
X83425078Y-90881004D01*
X83425076Y-90881005D01*
X83277242Y-90960024D01*
X83116823Y-91008687D01*
X82991804Y-91021000D01*
X82108196Y-91021000D01*
X81983177Y-91008687D01*
X81822758Y-90960024D01*
X81674924Y-90881005D01*
X81674922Y-90881004D01*
X81545341Y-90774659D01*
X81438996Y-90645078D01*
X81370253Y-90516468D01*
X81359976Y-90497242D01*
X81311313Y-90336823D01*
X81294883Y-90170000D01*
X81311313Y-90003177D01*
X81359976Y-89842758D01*
X81438995Y-89694924D01*
X81438996Y-89694922D01*
X81545341Y-89565341D01*
X81674922Y-89458996D01*
X81753078Y-89417221D01*
X81822758Y-89379976D01*
X81983177Y-89331313D01*
X82108196Y-89319000D01*
X82991804Y-89319000D01*
X83116823Y-89331313D01*
X83116823Y-89331313D01*
G37*
G36*
X94931000Y-89004332D02*
G01*
X93029000Y-89004332D01*
X93029000Y-87102332D01*
X94931000Y-87102332D01*
X94931000Y-89004332D01*
X94931000Y-89004332D01*
G37*
G36*
X96797395Y-87138878D02*
G01*
X96970466Y-87210566D01*
X96970467Y-87210567D01*
X97126227Y-87314642D01*
X97258690Y-87447105D01*
X97269429Y-87463177D01*
X97362766Y-87602866D01*
X97434454Y-87775937D01*
X97471000Y-87959665D01*
X97471000Y-88146999D01*
X97434454Y-88330727D01*
X97362766Y-88503798D01*
X97362765Y-88503799D01*
X97258690Y-88659559D01*
X97126227Y-88792022D01*
X97047818Y-88844413D01*
X96970466Y-88896098D01*
X96797395Y-88967786D01*
X96613667Y-89004332D01*
X96426333Y-89004332D01*
X96242605Y-88967786D01*
X96069534Y-88896098D01*
X95992182Y-88844413D01*
X95913773Y-88792022D01*
X95781310Y-88659559D01*
X95677235Y-88503799D01*
X95677234Y-88503798D01*
X95605546Y-88330727D01*
X95569000Y-88146999D01*
X95569000Y-87959665D01*
X95605546Y-87775937D01*
X95677234Y-87602866D01*
X95770571Y-87463177D01*
X95781310Y-87447105D01*
X95913773Y-87314642D01*
X96069533Y-87210567D01*
X96069534Y-87210566D01*
X96242605Y-87138878D01*
X96426333Y-87102332D01*
X96613667Y-87102332D01*
X96797395Y-87138878D01*
X96797395Y-87138878D01*
G37*
G36*
X67420442Y-86735518D02*
G01*
X67486627Y-86742037D01*
X67656466Y-86793557D01*
X67812991Y-86877222D01*
X67848729Y-86906552D01*
X67950186Y-86989814D01*
X68033448Y-87091271D01*
X68062778Y-87127009D01*
X68146443Y-87283534D01*
X68197963Y-87453373D01*
X68215359Y-87630000D01*
X68197963Y-87806627D01*
X68146443Y-87976466D01*
X68062778Y-88132991D01*
X68033448Y-88168729D01*
X67950186Y-88270186D01*
X67848729Y-88353448D01*
X67812991Y-88382778D01*
X67656466Y-88466443D01*
X67486627Y-88517963D01*
X67420442Y-88524482D01*
X67354260Y-88531000D01*
X67265740Y-88531000D01*
X67199558Y-88524482D01*
X67133373Y-88517963D01*
X66963534Y-88466443D01*
X66807009Y-88382778D01*
X66771271Y-88353448D01*
X66669814Y-88270186D01*
X66586552Y-88168729D01*
X66557222Y-88132991D01*
X66473557Y-87976466D01*
X66422037Y-87806627D01*
X66404641Y-87630000D01*
X66422037Y-87453373D01*
X66473557Y-87283534D01*
X66557222Y-87127009D01*
X66586552Y-87091271D01*
X66669814Y-86989814D01*
X66771271Y-86906552D01*
X66807009Y-86877222D01*
X66963534Y-86793557D01*
X67133373Y-86742037D01*
X67199558Y-86735518D01*
X67265740Y-86729000D01*
X67354260Y-86729000D01*
X67420442Y-86735518D01*
X67420442Y-86735518D01*
G37*
G36*
X83116823Y-86791313D02*
G01*
X83277242Y-86839976D01*
X83346922Y-86877221D01*
X83425078Y-86918996D01*
X83554659Y-87025341D01*
X83661004Y-87154922D01*
X83661005Y-87154924D01*
X83740024Y-87302758D01*
X83788687Y-87463177D01*
X83805117Y-87630000D01*
X83788687Y-87796823D01*
X83740024Y-87957242D01*
X83729747Y-87976468D01*
X83661004Y-88105078D01*
X83554659Y-88234659D01*
X83425078Y-88341004D01*
X83425076Y-88341005D01*
X83277242Y-88420024D01*
X83116823Y-88468687D01*
X82991804Y-88481000D01*
X82108196Y-88481000D01*
X81983177Y-88468687D01*
X81822758Y-88420024D01*
X81674924Y-88341005D01*
X81674922Y-88341004D01*
X81545341Y-88234659D01*
X81438996Y-88105078D01*
X81370253Y-87976468D01*
X81359976Y-87957242D01*
X81311313Y-87796823D01*
X81294883Y-87630000D01*
X81311313Y-87463177D01*
X81359976Y-87302758D01*
X81438995Y-87154924D01*
X81438996Y-87154922D01*
X81545341Y-87025341D01*
X81674922Y-86918996D01*
X81753078Y-86877221D01*
X81822758Y-86839976D01*
X81983177Y-86791313D01*
X82108196Y-86779000D01*
X82991804Y-86779000D01*
X83116823Y-86791313D01*
X83116823Y-86791313D01*
G37*
G36*
X90736823Y-86791313D02*
G01*
X90897242Y-86839976D01*
X90966922Y-86877221D01*
X91045078Y-86918996D01*
X91174659Y-87025341D01*
X91281004Y-87154922D01*
X91281005Y-87154924D01*
X91360024Y-87302758D01*
X91408687Y-87463177D01*
X91425117Y-87630000D01*
X91408687Y-87796823D01*
X91360024Y-87957242D01*
X91349747Y-87976468D01*
X91281004Y-88105078D01*
X91174659Y-88234659D01*
X91045078Y-88341004D01*
X91045076Y-88341005D01*
X90897242Y-88420024D01*
X90736823Y-88468687D01*
X90611804Y-88481000D01*
X89728196Y-88481000D01*
X89603177Y-88468687D01*
X89442758Y-88420024D01*
X89294924Y-88341005D01*
X89294922Y-88341004D01*
X89165341Y-88234659D01*
X89058996Y-88105078D01*
X88990253Y-87976468D01*
X88979976Y-87957242D01*
X88931313Y-87796823D01*
X88914883Y-87630000D01*
X88931313Y-87463177D01*
X88979976Y-87302758D01*
X89058995Y-87154924D01*
X89058996Y-87154922D01*
X89165341Y-87025341D01*
X89294922Y-86918996D01*
X89373078Y-86877221D01*
X89442758Y-86839976D01*
X89603177Y-86791313D01*
X89728196Y-86779000D01*
X90611804Y-86779000D01*
X90736823Y-86791313D01*
X90736823Y-86791313D01*
G37*
G36*
X96797395Y-84316656D02*
G01*
X96970466Y-84388344D01*
X96970467Y-84388345D01*
X97126227Y-84492420D01*
X97258690Y-84624883D01*
X97267653Y-84638297D01*
X97362766Y-84780644D01*
X97434454Y-84953715D01*
X97471000Y-85137443D01*
X97471000Y-85324777D01*
X97434454Y-85508505D01*
X97362766Y-85681576D01*
X97362765Y-85681577D01*
X97258690Y-85837337D01*
X97126227Y-85969800D01*
X97094499Y-85991000D01*
X96970466Y-86073876D01*
X96797395Y-86145564D01*
X96613667Y-86182110D01*
X96426333Y-86182110D01*
X96242605Y-86145564D01*
X96069534Y-86073876D01*
X95945501Y-85991000D01*
X95913773Y-85969800D01*
X95781310Y-85837337D01*
X95677235Y-85681577D01*
X95677234Y-85681576D01*
X95605546Y-85508505D01*
X95569000Y-85324777D01*
X95569000Y-85137443D01*
X95605546Y-84953715D01*
X95677234Y-84780644D01*
X95772347Y-84638297D01*
X95781310Y-84624883D01*
X95913773Y-84492420D01*
X96069533Y-84388345D01*
X96069534Y-84388344D01*
X96242605Y-84316656D01*
X96426333Y-84280110D01*
X96613667Y-84280110D01*
X96797395Y-84316656D01*
X96797395Y-84316656D01*
G37*
G36*
X94931000Y-86182110D02*
G01*
X93029000Y-86182110D01*
X93029000Y-84280110D01*
X94931000Y-84280110D01*
X94931000Y-86182110D01*
X94931000Y-86182110D01*
G37*
G36*
X68211000Y-85991000D02*
G01*
X66409000Y-85991000D01*
X66409000Y-84189000D01*
X68211000Y-84189000D01*
X68211000Y-85991000D01*
X68211000Y-85991000D01*
G37*
G36*
X90736823Y-84251313D02*
G01*
X90897242Y-84299976D01*
X91029906Y-84370886D01*
X91045078Y-84378996D01*
X91174659Y-84485341D01*
X91281004Y-84614922D01*
X91281005Y-84614924D01*
X91360024Y-84762758D01*
X91408687Y-84923177D01*
X91425117Y-85090000D01*
X91408687Y-85256823D01*
X91360024Y-85417242D01*
X91311243Y-85508505D01*
X91281004Y-85565078D01*
X91174659Y-85694659D01*
X91045078Y-85801004D01*
X91045076Y-85801005D01*
X90897242Y-85880024D01*
X90736823Y-85928687D01*
X90611804Y-85941000D01*
X89728196Y-85941000D01*
X89603177Y-85928687D01*
X89442758Y-85880024D01*
X89294924Y-85801005D01*
X89294922Y-85801004D01*
X89165341Y-85694659D01*
X89058996Y-85565078D01*
X89028757Y-85508505D01*
X88979976Y-85417242D01*
X88931313Y-85256823D01*
X88914883Y-85090000D01*
X88931313Y-84923177D01*
X88979976Y-84762758D01*
X89058995Y-84614924D01*
X89058996Y-84614922D01*
X89165341Y-84485341D01*
X89294922Y-84378996D01*
X89310094Y-84370886D01*
X89442758Y-84299976D01*
X89603177Y-84251313D01*
X89728196Y-84239000D01*
X90611804Y-84239000D01*
X90736823Y-84251313D01*
X90736823Y-84251313D01*
G37*
G36*
X83116823Y-84251313D02*
G01*
X83277242Y-84299976D01*
X83409906Y-84370886D01*
X83425078Y-84378996D01*
X83554659Y-84485341D01*
X83661004Y-84614922D01*
X83661005Y-84614924D01*
X83740024Y-84762758D01*
X83788687Y-84923177D01*
X83805117Y-85090000D01*
X83788687Y-85256823D01*
X83740024Y-85417242D01*
X83691243Y-85508505D01*
X83661004Y-85565078D01*
X83554659Y-85694659D01*
X83425078Y-85801004D01*
X83425076Y-85801005D01*
X83277242Y-85880024D01*
X83116823Y-85928687D01*
X82991804Y-85941000D01*
X82108196Y-85941000D01*
X81983177Y-85928687D01*
X81822758Y-85880024D01*
X81674924Y-85801005D01*
X81674922Y-85801004D01*
X81545341Y-85694659D01*
X81438996Y-85565078D01*
X81408757Y-85508505D01*
X81359976Y-85417242D01*
X81311313Y-85256823D01*
X81294883Y-85090000D01*
X81311313Y-84923177D01*
X81359976Y-84762758D01*
X81438995Y-84614924D01*
X81438996Y-84614922D01*
X81545341Y-84485341D01*
X81674922Y-84378996D01*
X81690094Y-84370886D01*
X81822758Y-84299976D01*
X81983177Y-84251313D01*
X82108196Y-84239000D01*
X82991804Y-84239000D01*
X83116823Y-84251313D01*
X83116823Y-84251313D01*
G37*
G36*
X78988228Y-83001703D02*
G01*
X79143100Y-83065853D01*
X79282481Y-83158985D01*
X79401015Y-83277519D01*
X79494147Y-83416900D01*
X79558297Y-83571772D01*
X79591000Y-83736184D01*
X79591000Y-83903816D01*
X79558297Y-84068228D01*
X79494147Y-84223100D01*
X79401015Y-84362481D01*
X79282481Y-84481015D01*
X79143100Y-84574147D01*
X78988228Y-84638297D01*
X78823816Y-84671000D01*
X78656184Y-84671000D01*
X78491772Y-84638297D01*
X78336900Y-84574147D01*
X78197519Y-84481015D01*
X78078985Y-84362481D01*
X77985853Y-84223100D01*
X77921703Y-84068228D01*
X77889000Y-83903816D01*
X77889000Y-83736184D01*
X77921703Y-83571772D01*
X77985853Y-83416900D01*
X78078985Y-83277519D01*
X78197519Y-83158985D01*
X78336900Y-83065853D01*
X78491772Y-83001703D01*
X78656184Y-82969000D01*
X78823816Y-82969000D01*
X78988228Y-83001703D01*
X78988228Y-83001703D01*
G37*
G36*
X71286823Y-82981313D02*
G01*
X71447242Y-83029976D01*
X71514361Y-83065852D01*
X71595078Y-83108996D01*
X71724659Y-83215341D01*
X71831004Y-83344922D01*
X71831005Y-83344924D01*
X71910024Y-83492758D01*
X71958687Y-83653177D01*
X71975117Y-83820000D01*
X71958687Y-83986823D01*
X71910024Y-84147242D01*
X71869477Y-84223100D01*
X71831004Y-84295078D01*
X71724659Y-84424659D01*
X71595078Y-84531004D01*
X71595076Y-84531005D01*
X71447242Y-84610024D01*
X71286823Y-84658687D01*
X71161804Y-84671000D01*
X71078196Y-84671000D01*
X70953177Y-84658687D01*
X70792758Y-84610024D01*
X70644924Y-84531005D01*
X70644922Y-84531004D01*
X70515341Y-84424659D01*
X70408996Y-84295078D01*
X70370523Y-84223100D01*
X70329976Y-84147242D01*
X70281313Y-83986823D01*
X70264883Y-83820000D01*
X70281313Y-83653177D01*
X70329976Y-83492758D01*
X70408995Y-83344924D01*
X70408996Y-83344922D01*
X70515341Y-83215341D01*
X70644922Y-83108996D01*
X70725639Y-83065852D01*
X70792758Y-83029976D01*
X70953177Y-82981313D01*
X71078196Y-82969000D01*
X71161804Y-82969000D01*
X71286823Y-82981313D01*
X71286823Y-82981313D01*
G37*
G36*
X75781000Y-84671000D02*
G01*
X74079000Y-84671000D01*
X74079000Y-82969000D01*
X75781000Y-82969000D01*
X75781000Y-84671000D01*
X75781000Y-84671000D01*
G37*
G36*
X83116823Y-81711313D02*
G01*
X83277242Y-81759976D01*
X83409906Y-81830886D01*
X83425078Y-81838996D01*
X83554659Y-81945341D01*
X83661004Y-82074922D01*
X83661005Y-82074924D01*
X83740024Y-82222758D01*
X83788687Y-82383177D01*
X83805117Y-82550000D01*
X83788687Y-82716823D01*
X83740024Y-82877242D01*
X83690978Y-82969000D01*
X83661004Y-83025078D01*
X83554659Y-83154659D01*
X83425078Y-83261004D01*
X83425076Y-83261005D01*
X83277242Y-83340024D01*
X83116823Y-83388687D01*
X82991804Y-83401000D01*
X82108196Y-83401000D01*
X81983177Y-83388687D01*
X81822758Y-83340024D01*
X81674924Y-83261005D01*
X81674922Y-83261004D01*
X81545341Y-83154659D01*
X81438996Y-83025078D01*
X81409022Y-82969000D01*
X81359976Y-82877242D01*
X81311313Y-82716823D01*
X81294883Y-82550000D01*
X81311313Y-82383177D01*
X81359976Y-82222758D01*
X81438995Y-82074924D01*
X81438996Y-82074922D01*
X81545341Y-81945341D01*
X81674922Y-81838996D01*
X81690094Y-81830886D01*
X81822758Y-81759976D01*
X81983177Y-81711313D01*
X82108196Y-81699000D01*
X82991804Y-81699000D01*
X83116823Y-81711313D01*
X83116823Y-81711313D01*
G37*
G36*
X90736823Y-81711313D02*
G01*
X90897242Y-81759976D01*
X91029906Y-81830886D01*
X91045078Y-81838996D01*
X91174659Y-81945341D01*
X91281004Y-82074922D01*
X91281005Y-82074924D01*
X91360024Y-82222758D01*
X91408687Y-82383177D01*
X91425117Y-82550000D01*
X91408687Y-82716823D01*
X91360024Y-82877242D01*
X91310978Y-82969000D01*
X91281004Y-83025078D01*
X91174659Y-83154659D01*
X91045078Y-83261004D01*
X91045076Y-83261005D01*
X90897242Y-83340024D01*
X90736823Y-83388687D01*
X90611804Y-83401000D01*
X89728196Y-83401000D01*
X89603177Y-83388687D01*
X89442758Y-83340024D01*
X89294924Y-83261005D01*
X89294922Y-83261004D01*
X89165341Y-83154659D01*
X89058996Y-83025078D01*
X89029022Y-82969000D01*
X88979976Y-82877242D01*
X88931313Y-82716823D01*
X88914883Y-82550000D01*
X88931313Y-82383177D01*
X88979976Y-82222758D01*
X89058995Y-82074924D01*
X89058996Y-82074922D01*
X89165341Y-81945341D01*
X89294922Y-81838996D01*
X89310094Y-81830886D01*
X89442758Y-81759976D01*
X89603177Y-81711313D01*
X89728196Y-81699000D01*
X90611804Y-81699000D01*
X90736823Y-81711313D01*
X90736823Y-81711313D01*
G37*
G36*
X94931000Y-83359888D02*
G01*
X93029000Y-83359888D01*
X93029000Y-81457888D01*
X94931000Y-81457888D01*
X94931000Y-83359888D01*
X94931000Y-83359888D01*
G37*
G36*
X96797395Y-81494434D02*
G01*
X96970466Y-81566122D01*
X96970467Y-81566123D01*
X97126227Y-81670198D01*
X97258690Y-81802661D01*
X97258691Y-81802663D01*
X97362766Y-81958422D01*
X97434454Y-82131493D01*
X97471000Y-82315221D01*
X97471000Y-82502555D01*
X97434454Y-82686283D01*
X97362766Y-82859354D01*
X97311081Y-82936706D01*
X97258690Y-83015115D01*
X97126227Y-83147578D01*
X97115629Y-83154659D01*
X96970466Y-83251654D01*
X96797395Y-83323342D01*
X96613667Y-83359888D01*
X96426333Y-83359888D01*
X96242605Y-83323342D01*
X96069534Y-83251654D01*
X95924371Y-83154659D01*
X95913773Y-83147578D01*
X95781310Y-83015115D01*
X95728919Y-82936706D01*
X95677234Y-82859354D01*
X95605546Y-82686283D01*
X95569000Y-82502555D01*
X95569000Y-82315221D01*
X95605546Y-82131493D01*
X95677234Y-81958422D01*
X95781309Y-81802663D01*
X95781310Y-81802661D01*
X95913773Y-81670198D01*
X96069533Y-81566123D01*
X96069534Y-81566122D01*
X96242605Y-81494434D01*
X96426333Y-81457888D01*
X96613667Y-81457888D01*
X96797395Y-81494434D01*
X96797395Y-81494434D01*
G37*
G36*
X83116823Y-79171313D02*
G01*
X83277242Y-79219976D01*
X83344361Y-79255852D01*
X83425078Y-79298996D01*
X83554659Y-79405341D01*
X83661004Y-79534922D01*
X83661005Y-79534924D01*
X83740024Y-79682758D01*
X83788687Y-79843177D01*
X83805117Y-80010000D01*
X83788687Y-80176823D01*
X83740024Y-80337242D01*
X83699477Y-80413100D01*
X83661004Y-80485078D01*
X83554659Y-80614659D01*
X83425078Y-80721004D01*
X83425076Y-80721005D01*
X83277242Y-80800024D01*
X83116823Y-80848687D01*
X82991804Y-80861000D01*
X82108196Y-80861000D01*
X81983177Y-80848687D01*
X81822758Y-80800024D01*
X81674924Y-80721005D01*
X81674922Y-80721004D01*
X81545341Y-80614659D01*
X81438996Y-80485078D01*
X81400523Y-80413100D01*
X81359976Y-80337242D01*
X81311313Y-80176823D01*
X81294883Y-80010000D01*
X81311313Y-79843177D01*
X81359976Y-79682758D01*
X81438995Y-79534924D01*
X81438996Y-79534922D01*
X81545341Y-79405341D01*
X81674922Y-79298996D01*
X81755639Y-79255852D01*
X81822758Y-79219976D01*
X81983177Y-79171313D01*
X82108196Y-79159000D01*
X82991804Y-79159000D01*
X83116823Y-79171313D01*
X83116823Y-79171313D01*
G37*
G36*
X90736823Y-79171313D02*
G01*
X90897242Y-79219976D01*
X90964361Y-79255852D01*
X91045078Y-79298996D01*
X91174659Y-79405341D01*
X91281004Y-79534922D01*
X91281005Y-79534924D01*
X91360024Y-79682758D01*
X91408687Y-79843177D01*
X91425117Y-80010000D01*
X91408687Y-80176823D01*
X91360024Y-80337242D01*
X91319477Y-80413100D01*
X91281004Y-80485078D01*
X91174659Y-80614659D01*
X91045078Y-80721004D01*
X91045076Y-80721005D01*
X90897242Y-80800024D01*
X90736823Y-80848687D01*
X90611804Y-80861000D01*
X89728196Y-80861000D01*
X89603177Y-80848687D01*
X89442758Y-80800024D01*
X89294924Y-80721005D01*
X89294922Y-80721004D01*
X89165341Y-80614659D01*
X89058996Y-80485078D01*
X89020523Y-80413100D01*
X88979976Y-80337242D01*
X88931313Y-80176823D01*
X88914883Y-80010000D01*
X88931313Y-79843177D01*
X88979976Y-79682758D01*
X89058995Y-79534924D01*
X89058996Y-79534922D01*
X89165341Y-79405341D01*
X89294922Y-79298996D01*
X89375639Y-79255852D01*
X89442758Y-79219976D01*
X89603177Y-79171313D01*
X89728196Y-79159000D01*
X90611804Y-79159000D01*
X90736823Y-79171313D01*
X90736823Y-79171313D01*
G37*
G36*
X70016823Y-79171313D02*
G01*
X70177242Y-79219976D01*
X70244361Y-79255852D01*
X70325078Y-79298996D01*
X70454659Y-79405341D01*
X70561004Y-79534922D01*
X70561005Y-79534924D01*
X70640024Y-79682758D01*
X70688687Y-79843177D01*
X70705117Y-80010000D01*
X70688687Y-80176823D01*
X70640024Y-80337242D01*
X70599477Y-80413100D01*
X70561004Y-80485078D01*
X70454659Y-80614659D01*
X70325078Y-80721004D01*
X70325076Y-80721005D01*
X70177242Y-80800024D01*
X70016823Y-80848687D01*
X69891804Y-80861000D01*
X69808196Y-80861000D01*
X69683177Y-80848687D01*
X69522758Y-80800024D01*
X69374924Y-80721005D01*
X69374922Y-80721004D01*
X69245341Y-80614659D01*
X69138996Y-80485078D01*
X69100523Y-80413100D01*
X69059976Y-80337242D01*
X69011313Y-80176823D01*
X68994883Y-80010000D01*
X69011313Y-79843177D01*
X69059976Y-79682758D01*
X69138995Y-79534924D01*
X69138996Y-79534922D01*
X69245341Y-79405341D01*
X69374922Y-79298996D01*
X69455639Y-79255852D01*
X69522758Y-79219976D01*
X69683177Y-79171313D01*
X69808196Y-79159000D01*
X69891804Y-79159000D01*
X70016823Y-79171313D01*
X70016823Y-79171313D01*
G37*
G36*
X77718228Y-79191703D02*
G01*
X77873100Y-79255853D01*
X78012481Y-79348985D01*
X78131015Y-79467519D01*
X78224147Y-79606900D01*
X78288297Y-79761772D01*
X78321000Y-79926184D01*
X78321000Y-80093816D01*
X78288297Y-80258228D01*
X78224147Y-80413100D01*
X78131015Y-80552481D01*
X78012481Y-80671015D01*
X77873100Y-80764147D01*
X77718228Y-80828297D01*
X77553816Y-80861000D01*
X77386184Y-80861000D01*
X77221772Y-80828297D01*
X77066900Y-80764147D01*
X76927519Y-80671015D01*
X76808985Y-80552481D01*
X76715853Y-80413100D01*
X76651703Y-80258228D01*
X76619000Y-80093816D01*
X76619000Y-79926184D01*
X76651703Y-79761772D01*
X76715853Y-79606900D01*
X76808985Y-79467519D01*
X76927519Y-79348985D01*
X77066900Y-79255853D01*
X77221772Y-79191703D01*
X77386184Y-79159000D01*
X77553816Y-79159000D01*
X77718228Y-79191703D01*
X77718228Y-79191703D01*
G37*
G36*
X96797395Y-78672212D02*
G01*
X96970466Y-78743900D01*
X96970467Y-78743901D01*
X97126227Y-78847976D01*
X97258690Y-78980439D01*
X97258691Y-78980441D01*
X97362766Y-79136200D01*
X97434454Y-79309271D01*
X97471000Y-79492999D01*
X97471000Y-79680333D01*
X97434454Y-79864061D01*
X97362766Y-80037132D01*
X97324891Y-80093816D01*
X97258690Y-80192893D01*
X97126227Y-80325356D01*
X97108438Y-80337242D01*
X96970466Y-80429432D01*
X96797395Y-80501120D01*
X96613667Y-80537666D01*
X96426333Y-80537666D01*
X96242605Y-80501120D01*
X96069534Y-80429432D01*
X95931562Y-80337242D01*
X95913773Y-80325356D01*
X95781310Y-80192893D01*
X95715109Y-80093816D01*
X95677234Y-80037132D01*
X95605546Y-79864061D01*
X95569000Y-79680333D01*
X95569000Y-79492999D01*
X95605546Y-79309271D01*
X95677234Y-79136200D01*
X95781309Y-78980441D01*
X95781310Y-78980439D01*
X95913773Y-78847976D01*
X96069533Y-78743901D01*
X96069534Y-78743900D01*
X96242605Y-78672212D01*
X96426333Y-78635666D01*
X96613667Y-78635666D01*
X96797395Y-78672212D01*
X96797395Y-78672212D01*
G37*
G36*
X94931000Y-80537666D02*
G01*
X93029000Y-80537666D01*
X93029000Y-78635666D01*
X94931000Y-78635666D01*
X94931000Y-80537666D01*
X94931000Y-80537666D01*
G37*
G36*
X83116823Y-76631313D02*
G01*
X83277242Y-76679976D01*
X83409906Y-76750886D01*
X83425078Y-76758996D01*
X83554659Y-76865341D01*
X83661004Y-76994922D01*
X83661005Y-76994924D01*
X83740024Y-77142758D01*
X83788687Y-77303177D01*
X83805117Y-77470000D01*
X83788687Y-77636823D01*
X83740024Y-77797242D01*
X83669114Y-77929906D01*
X83661004Y-77945078D01*
X83554659Y-78074659D01*
X83425078Y-78181004D01*
X83425076Y-78181005D01*
X83277242Y-78260024D01*
X83116823Y-78308687D01*
X82991804Y-78321000D01*
X82108196Y-78321000D01*
X81983177Y-78308687D01*
X81822758Y-78260024D01*
X81674924Y-78181005D01*
X81674922Y-78181004D01*
X81545341Y-78074659D01*
X81438996Y-77945078D01*
X81430886Y-77929906D01*
X81359976Y-77797242D01*
X81311313Y-77636823D01*
X81294883Y-77470000D01*
X81311313Y-77303177D01*
X81359976Y-77142758D01*
X81438995Y-76994924D01*
X81438996Y-76994922D01*
X81545341Y-76865341D01*
X81674922Y-76758996D01*
X81690094Y-76750886D01*
X81822758Y-76679976D01*
X81983177Y-76631313D01*
X82108196Y-76619000D01*
X82991804Y-76619000D01*
X83116823Y-76631313D01*
X83116823Y-76631313D01*
G37*
G36*
X90736823Y-76631313D02*
G01*
X90897242Y-76679976D01*
X91029906Y-76750886D01*
X91045078Y-76758996D01*
X91174659Y-76865341D01*
X91281004Y-76994922D01*
X91281005Y-76994924D01*
X91360024Y-77142758D01*
X91408687Y-77303177D01*
X91425117Y-77470000D01*
X91408687Y-77636823D01*
X91360024Y-77797242D01*
X91289114Y-77929906D01*
X91281004Y-77945078D01*
X91174659Y-78074659D01*
X91045078Y-78181004D01*
X91045076Y-78181005D01*
X90897242Y-78260024D01*
X90736823Y-78308687D01*
X90611804Y-78321000D01*
X89728196Y-78321000D01*
X89603177Y-78308687D01*
X89442758Y-78260024D01*
X89294924Y-78181005D01*
X89294922Y-78181004D01*
X89165341Y-78074659D01*
X89058996Y-77945078D01*
X89050886Y-77929906D01*
X88979976Y-77797242D01*
X88931313Y-77636823D01*
X88914883Y-77470000D01*
X88931313Y-77303177D01*
X88979976Y-77142758D01*
X89058995Y-76994924D01*
X89058996Y-76994922D01*
X89165341Y-76865341D01*
X89294922Y-76758996D01*
X89310094Y-76750886D01*
X89442758Y-76679976D01*
X89603177Y-76631313D01*
X89728196Y-76619000D01*
X90611804Y-76619000D01*
X90736823Y-76631313D01*
X90736823Y-76631313D01*
G37*
G36*
X96797395Y-75849990D02*
G01*
X96970466Y-75921678D01*
X96970467Y-75921679D01*
X97126227Y-76025754D01*
X97258690Y-76158217D01*
X97258691Y-76158219D01*
X97362766Y-76313978D01*
X97434454Y-76487049D01*
X97471000Y-76670777D01*
X97471000Y-76858111D01*
X97434454Y-77041839D01*
X97362766Y-77214910D01*
X97362765Y-77214911D01*
X97258690Y-77370671D01*
X97126227Y-77503134D01*
X97047818Y-77555525D01*
X96970466Y-77607210D01*
X96797395Y-77678898D01*
X96613667Y-77715444D01*
X96426333Y-77715444D01*
X96242605Y-77678898D01*
X96069534Y-77607210D01*
X95992182Y-77555525D01*
X95913773Y-77503134D01*
X95781310Y-77370671D01*
X95677235Y-77214911D01*
X95677234Y-77214910D01*
X95605546Y-77041839D01*
X95569000Y-76858111D01*
X95569000Y-76670777D01*
X95605546Y-76487049D01*
X95677234Y-76313978D01*
X95781309Y-76158219D01*
X95781310Y-76158217D01*
X95913773Y-76025754D01*
X96069533Y-75921679D01*
X96069534Y-75921678D01*
X96242605Y-75849990D01*
X96426333Y-75813444D01*
X96613667Y-75813444D01*
X96797395Y-75849990D01*
X96797395Y-75849990D01*
G37*
G36*
X94931000Y-77715444D02*
G01*
X93029000Y-77715444D01*
X93029000Y-75813444D01*
X94931000Y-75813444D01*
X94931000Y-77715444D01*
X94931000Y-77715444D01*
G37*
G36*
X83116823Y-74091313D02*
G01*
X83277242Y-74139976D01*
X83409906Y-74210886D01*
X83425078Y-74218996D01*
X83554659Y-74325341D01*
X83661004Y-74454922D01*
X83661005Y-74454924D01*
X83740024Y-74602758D01*
X83788687Y-74763177D01*
X83805117Y-74930000D01*
X83788687Y-75096823D01*
X83740024Y-75257242D01*
X83669114Y-75389906D01*
X83661004Y-75405078D01*
X83554659Y-75534659D01*
X83425078Y-75641004D01*
X83425076Y-75641005D01*
X83277242Y-75720024D01*
X83116823Y-75768687D01*
X82991804Y-75781000D01*
X82108196Y-75781000D01*
X81983177Y-75768687D01*
X81822758Y-75720024D01*
X81674924Y-75641005D01*
X81674922Y-75641004D01*
X81545341Y-75534659D01*
X81438996Y-75405078D01*
X81430886Y-75389906D01*
X81359976Y-75257242D01*
X81311313Y-75096823D01*
X81294883Y-74930000D01*
X81311313Y-74763177D01*
X81359976Y-74602758D01*
X81438995Y-74454924D01*
X81438996Y-74454922D01*
X81545341Y-74325341D01*
X81674922Y-74218996D01*
X81690094Y-74210886D01*
X81822758Y-74139976D01*
X81983177Y-74091313D01*
X82108196Y-74079000D01*
X82991804Y-74079000D01*
X83116823Y-74091313D01*
X83116823Y-74091313D01*
G37*
G36*
X90736823Y-74091313D02*
G01*
X90897242Y-74139976D01*
X91029906Y-74210886D01*
X91045078Y-74218996D01*
X91174659Y-74325341D01*
X91281004Y-74454922D01*
X91281005Y-74454924D01*
X91360024Y-74602758D01*
X91408687Y-74763177D01*
X91425117Y-74930000D01*
X91408687Y-75096823D01*
X91360024Y-75257242D01*
X91289114Y-75389906D01*
X91281004Y-75405078D01*
X91174659Y-75534659D01*
X91045078Y-75641004D01*
X91045076Y-75641005D01*
X90897242Y-75720024D01*
X90736823Y-75768687D01*
X90611804Y-75781000D01*
X89728196Y-75781000D01*
X89603177Y-75768687D01*
X89442758Y-75720024D01*
X89294924Y-75641005D01*
X89294922Y-75641004D01*
X89165341Y-75534659D01*
X89058996Y-75405078D01*
X89050886Y-75389906D01*
X88979976Y-75257242D01*
X88931313Y-75096823D01*
X88914883Y-74930000D01*
X88931313Y-74763177D01*
X88979976Y-74602758D01*
X89058995Y-74454924D01*
X89058996Y-74454922D01*
X89165341Y-74325341D01*
X89294922Y-74218996D01*
X89310094Y-74210886D01*
X89442758Y-74139976D01*
X89603177Y-74091313D01*
X89728196Y-74079000D01*
X90611804Y-74079000D01*
X90736823Y-74091313D01*
X90736823Y-74091313D01*
G37*
G36*
X78321000Y-75741000D02*
G01*
X76619000Y-75741000D01*
X76619000Y-74039000D01*
X78321000Y-74039000D01*
X78321000Y-75741000D01*
X78321000Y-75741000D01*
G37*
G36*
X94931000Y-74893222D02*
G01*
X93029000Y-74893222D01*
X93029000Y-72991222D01*
X94931000Y-72991222D01*
X94931000Y-74893222D01*
X94931000Y-74893222D01*
G37*
G36*
X96797395Y-73027768D02*
G01*
X96970466Y-73099456D01*
X97037351Y-73144147D01*
X97126227Y-73203532D01*
X97258690Y-73335995D01*
X97258691Y-73335997D01*
X97362766Y-73491756D01*
X97434454Y-73664827D01*
X97471000Y-73848555D01*
X97471000Y-74035889D01*
X97434454Y-74219617D01*
X97362766Y-74392688D01*
X97321181Y-74454924D01*
X97258690Y-74548449D01*
X97126227Y-74680912D01*
X97047818Y-74733303D01*
X96970466Y-74784988D01*
X96797395Y-74856676D01*
X96613667Y-74893222D01*
X96426333Y-74893222D01*
X96242605Y-74856676D01*
X96069534Y-74784988D01*
X95992182Y-74733303D01*
X95913773Y-74680912D01*
X95781310Y-74548449D01*
X95718819Y-74454924D01*
X95677234Y-74392688D01*
X95605546Y-74219617D01*
X95569000Y-74035889D01*
X95569000Y-73848555D01*
X95605546Y-73664827D01*
X95677234Y-73491756D01*
X95781309Y-73335997D01*
X95781310Y-73335995D01*
X95913773Y-73203532D01*
X96002649Y-73144147D01*
X96069534Y-73099456D01*
X96242605Y-73027768D01*
X96426333Y-72991222D01*
X96613667Y-72991222D01*
X96797395Y-73027768D01*
X96797395Y-73027768D01*
G37*
G36*
X68868228Y-72841703D02*
G01*
X69023100Y-72905853D01*
X69162481Y-72998985D01*
X69281015Y-73117519D01*
X69374147Y-73256900D01*
X69438297Y-73411772D01*
X69471000Y-73576184D01*
X69471000Y-73743816D01*
X69438297Y-73908228D01*
X69374147Y-74063100D01*
X69281015Y-74202481D01*
X69162481Y-74321015D01*
X69023100Y-74414147D01*
X68868228Y-74478297D01*
X68703816Y-74511000D01*
X68536184Y-74511000D01*
X68371772Y-74478297D01*
X68216900Y-74414147D01*
X68077519Y-74321015D01*
X67958985Y-74202481D01*
X67865853Y-74063100D01*
X67801703Y-73908228D01*
X67769000Y-73743816D01*
X67769000Y-73576184D01*
X67801703Y-73411772D01*
X67865853Y-73256900D01*
X67958985Y-73117519D01*
X68077519Y-72998985D01*
X68216900Y-72905853D01*
X68371772Y-72841703D01*
X68536184Y-72809000D01*
X68703816Y-72809000D01*
X68868228Y-72841703D01*
X68868228Y-72841703D01*
G37*
G36*
X71971000Y-74511000D02*
G01*
X70269000Y-74511000D01*
X70269000Y-72809000D01*
X71971000Y-72809000D01*
X71971000Y-74511000D01*
X71971000Y-74511000D01*
G37*
G36*
X83801000Y-73241000D02*
G01*
X81299000Y-73241000D01*
X81299000Y-71539000D01*
X83801000Y-71539000D01*
X83801000Y-73241000D01*
X83801000Y-73241000D01*
G37*
G36*
X77718228Y-71571703D02*
G01*
X77873100Y-71635853D01*
X78012481Y-71728985D01*
X78131015Y-71847519D01*
X78224147Y-71986900D01*
X78288297Y-72141772D01*
X78321000Y-72306184D01*
X78321000Y-72473816D01*
X78288297Y-72638228D01*
X78224147Y-72793100D01*
X78131015Y-72932481D01*
X78012481Y-73051015D01*
X77873100Y-73144147D01*
X77718228Y-73208297D01*
X77553816Y-73241000D01*
X77386184Y-73241000D01*
X77221772Y-73208297D01*
X77066900Y-73144147D01*
X76927519Y-73051015D01*
X76808985Y-72932481D01*
X76715853Y-72793100D01*
X76651703Y-72638228D01*
X76619000Y-72473816D01*
X76619000Y-72306184D01*
X76651703Y-72141772D01*
X76715853Y-71986900D01*
X76808985Y-71847519D01*
X76927519Y-71728985D01*
X77066900Y-71635853D01*
X77221772Y-71571703D01*
X77386184Y-71539000D01*
X77553816Y-71539000D01*
X77718228Y-71571703D01*
X77718228Y-71571703D01*
G37*
G36*
X90736823Y-71551313D02*
G01*
X90897242Y-71599976D01*
X90964361Y-71635852D01*
X91045078Y-71678996D01*
X91174659Y-71785341D01*
X91281004Y-71914922D01*
X91281005Y-71914924D01*
X91360024Y-72062758D01*
X91408687Y-72223177D01*
X91425117Y-72390000D01*
X91408687Y-72556823D01*
X91360024Y-72717242D01*
X91319477Y-72793100D01*
X91281004Y-72865078D01*
X91174659Y-72994659D01*
X91045078Y-73101004D01*
X91045076Y-73101005D01*
X90897242Y-73180024D01*
X90736823Y-73228687D01*
X90611804Y-73241000D01*
X89728196Y-73241000D01*
X89603177Y-73228687D01*
X89442758Y-73180024D01*
X89294924Y-73101005D01*
X89294922Y-73101004D01*
X89165341Y-72994659D01*
X89058996Y-72865078D01*
X89020523Y-72793100D01*
X88979976Y-72717242D01*
X88931313Y-72556823D01*
X88914883Y-72390000D01*
X88931313Y-72223177D01*
X88979976Y-72062758D01*
X89058995Y-71914924D01*
X89058996Y-71914922D01*
X89165341Y-71785341D01*
X89294922Y-71678996D01*
X89375639Y-71635852D01*
X89442758Y-71599976D01*
X89603177Y-71551313D01*
X89728196Y-71539000D01*
X90611804Y-71539000D01*
X90736823Y-71551313D01*
X90736823Y-71551313D01*
G37*
G36*
X94931000Y-72071000D02*
G01*
X93029000Y-72071000D01*
X93029000Y-70169000D01*
X94931000Y-70169000D01*
X94931000Y-72071000D01*
X94931000Y-72071000D01*
G37*
G36*
X96797395Y-70205546D02*
G01*
X96970466Y-70277234D01*
X96970467Y-70277235D01*
X97126227Y-70381310D01*
X97258690Y-70513773D01*
X97258691Y-70513775D01*
X97362766Y-70669534D01*
X97434454Y-70842605D01*
X97471000Y-71026333D01*
X97471000Y-71213667D01*
X97434454Y-71397395D01*
X97362766Y-71570466D01*
X97343048Y-71599976D01*
X97258690Y-71726227D01*
X97126227Y-71858690D01*
X97047818Y-71911081D01*
X96970466Y-71962766D01*
X96797395Y-72034454D01*
X96613667Y-72071000D01*
X96426333Y-72071000D01*
X96242605Y-72034454D01*
X96069534Y-71962766D01*
X95992182Y-71911081D01*
X95913773Y-71858690D01*
X95781310Y-71726227D01*
X95696952Y-71599976D01*
X95677234Y-71570466D01*
X95605546Y-71397395D01*
X95569000Y-71213667D01*
X95569000Y-71026333D01*
X95605546Y-70842605D01*
X95677234Y-70669534D01*
X95781309Y-70513775D01*
X95781310Y-70513773D01*
X95913773Y-70381310D01*
X96069533Y-70277235D01*
X96069534Y-70277234D01*
X96242605Y-70205546D01*
X96426333Y-70169000D01*
X96613667Y-70169000D01*
X96797395Y-70205546D01*
X96797395Y-70205546D01*
G37*
M02*
