M48
; DRILL file {KiCad (5.1.4-0-10_14)} date Friday, August 30, 2019 at 09:08:29 AM
; FORMAT={-:-/ absolute / inch / decimal}
; #@! TF.CreationDate,2019-08-30T09:08:29-07:00
; #@! TF.GenerationSoftware,Kicad,Pcbnew,(5.1.4-0-10_14)
; #@! TF.FileFunction,Plated,1,2,PTH
FMAT,2
INCH
T1C0.0315
T2C0.0354
T3C0.0394
%
G90
G05
T1
X3.0Y-3.74
X3.0Y-3.8384
X2.8Y-3.3
X2.8Y-3.6
X3.25Y-2.85
X3.25Y-2.95
X3.25Y-3.05
X3.25Y-3.15
X3.25Y-3.25
X3.25Y-3.35
X3.25Y-3.45
X3.25Y-3.55
X3.25Y-3.65
X3.55Y-2.85
X2.95Y-3.3
X2.95Y-3.6
X3.05Y-2.85
X3.55Y-3.25
X2.75Y-3.15
X3.05Y-3.15
X3.55Y-2.95
X3.55Y-3.05
X3.55Y-3.55
X2.8Y-2.9
X3.55Y-3.15
X3.55Y-3.35
X3.55Y-3.45
X3.55Y-3.65
X3.05Y-2.9484
X2.7016Y-2.9
X3.25Y-3.8
X3.55Y-3.8
X3.1Y-3.3
X3.1Y-3.6
T2
X3.7Y-3.6889
X3.8Y-3.6889
X3.7Y-3.1333
X3.7Y-3.3556
X3.8Y-3.3556
X3.8Y-3.1333
X3.7Y-3.8
X3.8Y-3.8
X3.7Y-3.4667
X3.8Y-3.4667
X3.7Y-3.0222
X3.8Y-3.0222
X3.7Y-3.5778
X3.8Y-3.5778
X3.7Y-2.9111
X3.8Y-2.9111
X3.7Y-3.2444
X3.8Y-3.2444
X3.7Y-2.8
X3.8Y-2.8
T3
X2.65Y-3.35
X2.65Y-3.45
X2.65Y-3.55
X2.65Y-3.65
T0
M30
