G04 #@! TF.GenerationSoftware,KiCad,Pcbnew,(5.1.4-0-10_14)*
G04 #@! TF.CreationDate,2019-08-30T09:08:26-07:00*
G04 #@! TF.ProjectId,VUMeter,56554d65-7465-4722-9e6b-696361645f70,rev?*
G04 #@! TF.SameCoordinates,Original*
G04 #@! TF.FileFunction,Copper,L2,Bot*
G04 #@! TF.FilePolarity,Positive*
%FSLAX46Y46*%
G04 Gerber Fmt 4.6, Leading zero omitted, Abs format (unit mm)*
G04 Created by KiCad (PCBNEW (5.1.4-0-10_14)) date 2019-08-30 09:08:26*
%MOMM*%
%LPD*%
G04 APERTURE LIST*
%ADD10O,2.400000X1.600000*%
%ADD11R,2.400000X1.600000*%
%ADD12O,1.600000X1.600000*%
%ADD13C,1.600000*%
%ADD14O,1.700000X1.700000*%
%ADD15R,1.700000X1.700000*%
%ADD16R,1.600000X1.600000*%
%ADD17C,1.800000*%
%ADD18R,1.800000X1.800000*%
%ADD19C,0.254000*%
G04 APERTURE END LIST*
D10*
X90170000Y-72390000D03*
X82550000Y-92710000D03*
X90170000Y-74930000D03*
X82550000Y-90170000D03*
X90170000Y-77470000D03*
X82550000Y-87630000D03*
X90170000Y-80010000D03*
X82550000Y-85090000D03*
X90170000Y-82550000D03*
X82550000Y-82550000D03*
X90170000Y-85090000D03*
X82550000Y-80010000D03*
X90170000Y-87630000D03*
X82550000Y-77470000D03*
X90170000Y-90170000D03*
X82550000Y-74930000D03*
X90170000Y-92710000D03*
D11*
X82550000Y-72390000D03*
D12*
X90170000Y-96520000D03*
D13*
X82550000Y-96520000D03*
D12*
X69850000Y-80010000D03*
D13*
X77470000Y-80010000D03*
D12*
X78740000Y-91440000D03*
D13*
X78740000Y-83820000D03*
D14*
X67310000Y-92710000D03*
X67310000Y-90170000D03*
X67310000Y-87630000D03*
D15*
X67310000Y-85090000D03*
D12*
X71120000Y-83820000D03*
D16*
X71120000Y-91440000D03*
D17*
X96520000Y-96520000D03*
D18*
X93980000Y-96520000D03*
D12*
X74930000Y-91440000D03*
D16*
X74930000Y-83820000D03*
D17*
X96520000Y-93697776D03*
D18*
X93980000Y-93697776D03*
D17*
X96520000Y-90875554D03*
D18*
X93980000Y-90875554D03*
D17*
X96520000Y-88053332D03*
D18*
X93980000Y-88053332D03*
D17*
X96520000Y-85231110D03*
D18*
X93980000Y-85231110D03*
D17*
X96520000Y-82408888D03*
D18*
X93980000Y-82408888D03*
D17*
X96520000Y-79586666D03*
D18*
X93980000Y-79586666D03*
D17*
X96520000Y-76764444D03*
D18*
X93980000Y-76764444D03*
D17*
X96520000Y-73942222D03*
D18*
X93980000Y-73942222D03*
D17*
X96520000Y-71120000D03*
D18*
X93980000Y-71120000D03*
D13*
X68620000Y-73660000D03*
D16*
X71120000Y-73660000D03*
D13*
X76200000Y-97496000D03*
D16*
X76200000Y-94996000D03*
D13*
X77470000Y-72390000D03*
D16*
X77470000Y-74890000D03*
D19*
G36*
X92490498Y-69975820D02*
G01*
X92454188Y-70095518D01*
X92441928Y-70220000D01*
X92441928Y-72020000D01*
X92454188Y-72144482D01*
X92490498Y-72264180D01*
X92549463Y-72374494D01*
X92628815Y-72471185D01*
X92701835Y-72531111D01*
X92628815Y-72591037D01*
X92549463Y-72687728D01*
X92490498Y-72798042D01*
X92454188Y-72917740D01*
X92441928Y-73042222D01*
X92441928Y-74842222D01*
X92454188Y-74966704D01*
X92490498Y-75086402D01*
X92549463Y-75196716D01*
X92628815Y-75293407D01*
X92701835Y-75353333D01*
X92628815Y-75413259D01*
X92549463Y-75509950D01*
X92490498Y-75620264D01*
X92454188Y-75739962D01*
X92441928Y-75864444D01*
X92441928Y-77664444D01*
X92454188Y-77788926D01*
X92490498Y-77908624D01*
X92549463Y-78018938D01*
X92628815Y-78115629D01*
X92701835Y-78175555D01*
X92628815Y-78235481D01*
X92549463Y-78332172D01*
X92490498Y-78442486D01*
X92454188Y-78562184D01*
X92441928Y-78686666D01*
X92441928Y-80486666D01*
X92454188Y-80611148D01*
X92490498Y-80730846D01*
X92549463Y-80841160D01*
X92628815Y-80937851D01*
X92701835Y-80997777D01*
X92628815Y-81057703D01*
X92549463Y-81154394D01*
X92490498Y-81264708D01*
X92454188Y-81384406D01*
X92441928Y-81508888D01*
X92441928Y-83308888D01*
X92454188Y-83433370D01*
X92490498Y-83553068D01*
X92549463Y-83663382D01*
X92628815Y-83760073D01*
X92701835Y-83819999D01*
X92628815Y-83879925D01*
X92549463Y-83976616D01*
X92490498Y-84086930D01*
X92454188Y-84206628D01*
X92441928Y-84331110D01*
X92441928Y-86131110D01*
X92454188Y-86255592D01*
X92490498Y-86375290D01*
X92549463Y-86485604D01*
X92628815Y-86582295D01*
X92701835Y-86642221D01*
X92628815Y-86702147D01*
X92549463Y-86798838D01*
X92490498Y-86909152D01*
X92454188Y-87028850D01*
X92441928Y-87153332D01*
X92441928Y-88953332D01*
X92454188Y-89077814D01*
X92490498Y-89197512D01*
X92549463Y-89307826D01*
X92628815Y-89404517D01*
X92701835Y-89464443D01*
X92628815Y-89524369D01*
X92549463Y-89621060D01*
X92490498Y-89731374D01*
X92454188Y-89851072D01*
X92441928Y-89975554D01*
X92441928Y-91775554D01*
X92454188Y-91900036D01*
X92490498Y-92019734D01*
X92549463Y-92130048D01*
X92628815Y-92226739D01*
X92701835Y-92286665D01*
X92628815Y-92346591D01*
X92549463Y-92443282D01*
X92490498Y-92553596D01*
X92454188Y-92673294D01*
X92441928Y-92797776D01*
X92441928Y-94597776D01*
X92454188Y-94722258D01*
X92490498Y-94841956D01*
X92549463Y-94952270D01*
X92628815Y-95048961D01*
X92701836Y-95108888D01*
X92628815Y-95168815D01*
X92549463Y-95265506D01*
X92490498Y-95375820D01*
X92454188Y-95495518D01*
X92441928Y-95620000D01*
X92441928Y-97420000D01*
X92454188Y-97544482D01*
X92490498Y-97664180D01*
X92549463Y-97774494D01*
X92628815Y-97871185D01*
X92725506Y-97950537D01*
X92835820Y-98009502D01*
X92955518Y-98045812D01*
X93080000Y-98058072D01*
X94880000Y-98058072D01*
X95004482Y-98045812D01*
X95124180Y-98009502D01*
X95234494Y-97950537D01*
X95331185Y-97871185D01*
X95410537Y-97774494D01*
X95469502Y-97664180D01*
X95472813Y-97653265D01*
X95519578Y-97700030D01*
X95635526Y-97584082D01*
X95719208Y-97838261D01*
X95991775Y-97969158D01*
X96284642Y-98044365D01*
X96586553Y-98060991D01*
X96885907Y-98018397D01*
X97171199Y-97918222D01*
X97320792Y-97838261D01*
X97404475Y-97584080D01*
X96520000Y-96699605D01*
X96505858Y-96713748D01*
X96326253Y-96534143D01*
X96340395Y-96520000D01*
X96699605Y-96520000D01*
X97584080Y-97404475D01*
X97838261Y-97320792D01*
X97969158Y-97048225D01*
X98044365Y-96755358D01*
X98060991Y-96453447D01*
X98018397Y-96154093D01*
X97918222Y-95868801D01*
X97838261Y-95719208D01*
X97584080Y-95635525D01*
X96699605Y-96520000D01*
X96340395Y-96520000D01*
X96326253Y-96505858D01*
X96505858Y-96326253D01*
X96520000Y-96340395D01*
X97404475Y-95455920D01*
X97320792Y-95201739D01*
X97130422Y-95110316D01*
X97171199Y-95095998D01*
X97320792Y-95016037D01*
X97404475Y-94761856D01*
X96520000Y-93877381D01*
X96505858Y-93891524D01*
X96326253Y-93711919D01*
X96340395Y-93697776D01*
X96699605Y-93697776D01*
X97584080Y-94582251D01*
X97838261Y-94498568D01*
X97969158Y-94226001D01*
X98044365Y-93933134D01*
X98060991Y-93631223D01*
X98018397Y-93331869D01*
X97918222Y-93046577D01*
X97838261Y-92896984D01*
X97584080Y-92813301D01*
X96699605Y-93697776D01*
X96340395Y-93697776D01*
X96326253Y-93683634D01*
X96505858Y-93504029D01*
X96520000Y-93518171D01*
X97404475Y-92633696D01*
X97320792Y-92379515D01*
X97130424Y-92288093D01*
X97171199Y-92273776D01*
X97320792Y-92193815D01*
X97404475Y-91939634D01*
X96520000Y-91055159D01*
X96505858Y-91069302D01*
X96326253Y-90889697D01*
X96340395Y-90875554D01*
X96699605Y-90875554D01*
X97584080Y-91760029D01*
X97838261Y-91676346D01*
X97969158Y-91403779D01*
X98044365Y-91110912D01*
X98060991Y-90809001D01*
X98018397Y-90509647D01*
X97918222Y-90224355D01*
X97838261Y-90074762D01*
X97584080Y-89991079D01*
X96699605Y-90875554D01*
X96340395Y-90875554D01*
X96326253Y-90861412D01*
X96505858Y-90681807D01*
X96520000Y-90695949D01*
X97404475Y-89811474D01*
X97320792Y-89557293D01*
X97130424Y-89465871D01*
X97171199Y-89451554D01*
X97320792Y-89371593D01*
X97404475Y-89117412D01*
X96520000Y-88232937D01*
X96505858Y-88247080D01*
X96326253Y-88067475D01*
X96340395Y-88053332D01*
X96699605Y-88053332D01*
X97584080Y-88937807D01*
X97838261Y-88854124D01*
X97969158Y-88581557D01*
X98044365Y-88288690D01*
X98060991Y-87986779D01*
X98018397Y-87687425D01*
X97918222Y-87402133D01*
X97838261Y-87252540D01*
X97584080Y-87168857D01*
X96699605Y-88053332D01*
X96340395Y-88053332D01*
X96326253Y-88039190D01*
X96505858Y-87859585D01*
X96520000Y-87873727D01*
X97404475Y-86989252D01*
X97320792Y-86735071D01*
X97130424Y-86643649D01*
X97171199Y-86629332D01*
X97320792Y-86549371D01*
X97404475Y-86295190D01*
X96520000Y-85410715D01*
X96505858Y-85424858D01*
X96326253Y-85245253D01*
X96340395Y-85231110D01*
X96699605Y-85231110D01*
X97584080Y-86115585D01*
X97838261Y-86031902D01*
X97969158Y-85759335D01*
X98044365Y-85466468D01*
X98060991Y-85164557D01*
X98018397Y-84865203D01*
X97918222Y-84579911D01*
X97838261Y-84430318D01*
X97584080Y-84346635D01*
X96699605Y-85231110D01*
X96340395Y-85231110D01*
X96326253Y-85216968D01*
X96505858Y-85037363D01*
X96520000Y-85051505D01*
X97404475Y-84167030D01*
X97320792Y-83912849D01*
X97130424Y-83821427D01*
X97171199Y-83807110D01*
X97320792Y-83727149D01*
X97404475Y-83472968D01*
X96520000Y-82588493D01*
X96505858Y-82602636D01*
X96326253Y-82423031D01*
X96340395Y-82408888D01*
X96699605Y-82408888D01*
X97584080Y-83293363D01*
X97838261Y-83209680D01*
X97969158Y-82937113D01*
X98044365Y-82644246D01*
X98060991Y-82342335D01*
X98018397Y-82042981D01*
X97918222Y-81757689D01*
X97838261Y-81608096D01*
X97584080Y-81524413D01*
X96699605Y-82408888D01*
X96340395Y-82408888D01*
X96326253Y-82394746D01*
X96505858Y-82215141D01*
X96520000Y-82229283D01*
X97404475Y-81344808D01*
X97320792Y-81090627D01*
X97130424Y-80999205D01*
X97171199Y-80984888D01*
X97320792Y-80904927D01*
X97404475Y-80650746D01*
X96520000Y-79766271D01*
X96505858Y-79780414D01*
X96326253Y-79600809D01*
X96340395Y-79586666D01*
X96699605Y-79586666D01*
X97584080Y-80471141D01*
X97838261Y-80387458D01*
X97969158Y-80114891D01*
X98044365Y-79822024D01*
X98060991Y-79520113D01*
X98018397Y-79220759D01*
X97918222Y-78935467D01*
X97838261Y-78785874D01*
X97584080Y-78702191D01*
X96699605Y-79586666D01*
X96340395Y-79586666D01*
X96326253Y-79572524D01*
X96505858Y-79392919D01*
X96520000Y-79407061D01*
X97404475Y-78522586D01*
X97320792Y-78268405D01*
X97130424Y-78176983D01*
X97171199Y-78162666D01*
X97320792Y-78082705D01*
X97404475Y-77828524D01*
X96520000Y-76944049D01*
X96505858Y-76958192D01*
X96326253Y-76778587D01*
X96340395Y-76764444D01*
X96699605Y-76764444D01*
X97584080Y-77648919D01*
X97838261Y-77565236D01*
X97969158Y-77292669D01*
X98044365Y-76999802D01*
X98060991Y-76697891D01*
X98018397Y-76398537D01*
X97918222Y-76113245D01*
X97838261Y-75963652D01*
X97584080Y-75879969D01*
X96699605Y-76764444D01*
X96340395Y-76764444D01*
X96326253Y-76750302D01*
X96505858Y-76570697D01*
X96520000Y-76584839D01*
X97404475Y-75700364D01*
X97320792Y-75446183D01*
X97130424Y-75354761D01*
X97171199Y-75340444D01*
X97320792Y-75260483D01*
X97404475Y-75006302D01*
X96520000Y-74121827D01*
X96505858Y-74135970D01*
X96326253Y-73956365D01*
X96340395Y-73942222D01*
X96699605Y-73942222D01*
X97584080Y-74826697D01*
X97838261Y-74743014D01*
X97969158Y-74470447D01*
X98044365Y-74177580D01*
X98060991Y-73875669D01*
X98018397Y-73576315D01*
X97918222Y-73291023D01*
X97838261Y-73141430D01*
X97584080Y-73057747D01*
X96699605Y-73942222D01*
X96340395Y-73942222D01*
X96326253Y-73928080D01*
X96505858Y-73748475D01*
X96520000Y-73762617D01*
X97404475Y-72878142D01*
X97320792Y-72623961D01*
X97130424Y-72532539D01*
X97171199Y-72518222D01*
X97320792Y-72438261D01*
X97404475Y-72184080D01*
X96520000Y-71299605D01*
X96505858Y-71313748D01*
X96326253Y-71134143D01*
X96340395Y-71120000D01*
X96699605Y-71120000D01*
X97584080Y-72004475D01*
X97838261Y-71920792D01*
X97969158Y-71648225D01*
X98044365Y-71355358D01*
X98060991Y-71053447D01*
X98018397Y-70754093D01*
X97918222Y-70468801D01*
X97838261Y-70319208D01*
X97584080Y-70235525D01*
X96699605Y-71120000D01*
X96340395Y-71120000D01*
X96326253Y-71105858D01*
X96505858Y-70926253D01*
X96520000Y-70940395D01*
X97404475Y-70055920D01*
X97344911Y-69875000D01*
X98400000Y-69875000D01*
X98400001Y-99035000D01*
X65430000Y-99035000D01*
X65430000Y-94196000D01*
X74761928Y-94196000D01*
X74761928Y-95796000D01*
X74774188Y-95920482D01*
X74810498Y-96040180D01*
X74869463Y-96150494D01*
X74948815Y-96247185D01*
X75045506Y-96326537D01*
X75155820Y-96385502D01*
X75251943Y-96414661D01*
X75085363Y-96581241D01*
X74928320Y-96816273D01*
X74820147Y-97077426D01*
X74765000Y-97354665D01*
X74765000Y-97637335D01*
X74820147Y-97914574D01*
X74928320Y-98175727D01*
X75085363Y-98410759D01*
X75285241Y-98610637D01*
X75520273Y-98767680D01*
X75781426Y-98875853D01*
X76058665Y-98931000D01*
X76341335Y-98931000D01*
X76618574Y-98875853D01*
X76879727Y-98767680D01*
X77114759Y-98610637D01*
X77314637Y-98410759D01*
X77471680Y-98175727D01*
X77579853Y-97914574D01*
X77635000Y-97637335D01*
X77635000Y-97354665D01*
X77579853Y-97077426D01*
X77471680Y-96816273D01*
X77314637Y-96581241D01*
X77148057Y-96414661D01*
X77244180Y-96385502D01*
X77256970Y-96378665D01*
X81115000Y-96378665D01*
X81115000Y-96661335D01*
X81170147Y-96938574D01*
X81278320Y-97199727D01*
X81435363Y-97434759D01*
X81635241Y-97634637D01*
X81870273Y-97791680D01*
X82131426Y-97899853D01*
X82408665Y-97955000D01*
X82691335Y-97955000D01*
X82968574Y-97899853D01*
X83229727Y-97791680D01*
X83464759Y-97634637D01*
X83664637Y-97434759D01*
X83821680Y-97199727D01*
X83929853Y-96938574D01*
X83985000Y-96661335D01*
X83985000Y-96520000D01*
X88728057Y-96520000D01*
X88755764Y-96801309D01*
X88837818Y-97071808D01*
X88971068Y-97321101D01*
X89150392Y-97539608D01*
X89368899Y-97718932D01*
X89618192Y-97852182D01*
X89888691Y-97934236D01*
X90099508Y-97955000D01*
X90240492Y-97955000D01*
X90451309Y-97934236D01*
X90721808Y-97852182D01*
X90971101Y-97718932D01*
X91189608Y-97539608D01*
X91368932Y-97321101D01*
X91502182Y-97071808D01*
X91584236Y-96801309D01*
X91611943Y-96520000D01*
X91584236Y-96238691D01*
X91502182Y-95968192D01*
X91368932Y-95718899D01*
X91189608Y-95500392D01*
X90971101Y-95321068D01*
X90721808Y-95187818D01*
X90451309Y-95105764D01*
X90240492Y-95085000D01*
X90099508Y-95085000D01*
X89888691Y-95105764D01*
X89618192Y-95187818D01*
X89368899Y-95321068D01*
X89150392Y-95500392D01*
X88971068Y-95718899D01*
X88837818Y-95968192D01*
X88755764Y-96238691D01*
X88728057Y-96520000D01*
X83985000Y-96520000D01*
X83985000Y-96378665D01*
X83929853Y-96101426D01*
X83821680Y-95840273D01*
X83664637Y-95605241D01*
X83464759Y-95405363D01*
X83229727Y-95248320D01*
X82968574Y-95140147D01*
X82691335Y-95085000D01*
X82408665Y-95085000D01*
X82131426Y-95140147D01*
X81870273Y-95248320D01*
X81635241Y-95405363D01*
X81435363Y-95605241D01*
X81278320Y-95840273D01*
X81170147Y-96101426D01*
X81115000Y-96378665D01*
X77256970Y-96378665D01*
X77354494Y-96326537D01*
X77451185Y-96247185D01*
X77530537Y-96150494D01*
X77589502Y-96040180D01*
X77625812Y-95920482D01*
X77638072Y-95796000D01*
X77638072Y-94196000D01*
X77625812Y-94071518D01*
X77589502Y-93951820D01*
X77530537Y-93841506D01*
X77451185Y-93744815D01*
X77354494Y-93665463D01*
X77244180Y-93606498D01*
X77124482Y-93570188D01*
X77000000Y-93557928D01*
X75400000Y-93557928D01*
X75275518Y-93570188D01*
X75155820Y-93606498D01*
X75045506Y-93665463D01*
X74948815Y-93744815D01*
X74869463Y-93841506D01*
X74810498Y-93951820D01*
X74774188Y-94071518D01*
X74761928Y-94196000D01*
X65430000Y-94196000D01*
X65430000Y-90170000D01*
X65817815Y-90170000D01*
X65846487Y-90461111D01*
X65931401Y-90741034D01*
X66069294Y-90999014D01*
X66254866Y-91225134D01*
X66480986Y-91410706D01*
X66535791Y-91440000D01*
X66480986Y-91469294D01*
X66254866Y-91654866D01*
X66069294Y-91880986D01*
X65931401Y-92138966D01*
X65846487Y-92418889D01*
X65817815Y-92710000D01*
X65846487Y-93001111D01*
X65931401Y-93281034D01*
X66069294Y-93539014D01*
X66254866Y-93765134D01*
X66480986Y-93950706D01*
X66738966Y-94088599D01*
X67018889Y-94173513D01*
X67237050Y-94195000D01*
X67382950Y-94195000D01*
X67601111Y-94173513D01*
X67881034Y-94088599D01*
X68139014Y-93950706D01*
X68365134Y-93765134D01*
X68550706Y-93539014D01*
X68688599Y-93281034D01*
X68773513Y-93001111D01*
X68802185Y-92710000D01*
X68773513Y-92418889D01*
X68688599Y-92138966D01*
X68550706Y-91880986D01*
X68365134Y-91654866D01*
X68139014Y-91469294D01*
X68084209Y-91440000D01*
X68139014Y-91410706D01*
X68365134Y-91225134D01*
X68550706Y-90999014D01*
X68688599Y-90741034D01*
X68719247Y-90640000D01*
X69681928Y-90640000D01*
X69681928Y-92240000D01*
X69694188Y-92364482D01*
X69730498Y-92484180D01*
X69789463Y-92594494D01*
X69868815Y-92691185D01*
X69965506Y-92770537D01*
X70075820Y-92829502D01*
X70195518Y-92865812D01*
X70320000Y-92878072D01*
X71920000Y-92878072D01*
X72044482Y-92865812D01*
X72164180Y-92829502D01*
X72274494Y-92770537D01*
X72371185Y-92691185D01*
X72450537Y-92594494D01*
X72509502Y-92484180D01*
X72545812Y-92364482D01*
X72558072Y-92240000D01*
X72558072Y-91440000D01*
X73488057Y-91440000D01*
X73515764Y-91721309D01*
X73597818Y-91991808D01*
X73731068Y-92241101D01*
X73910392Y-92459608D01*
X74128899Y-92638932D01*
X74378192Y-92772182D01*
X74648691Y-92854236D01*
X74859508Y-92875000D01*
X75000492Y-92875000D01*
X75211309Y-92854236D01*
X75481808Y-92772182D01*
X75731101Y-92638932D01*
X75949608Y-92459608D01*
X76128932Y-92241101D01*
X76262182Y-91991808D01*
X76344236Y-91721309D01*
X76371943Y-91440000D01*
X77298057Y-91440000D01*
X77325764Y-91721309D01*
X77407818Y-91991808D01*
X77541068Y-92241101D01*
X77720392Y-92459608D01*
X77938899Y-92638932D01*
X78188192Y-92772182D01*
X78458691Y-92854236D01*
X78669508Y-92875000D01*
X78810492Y-92875000D01*
X79021309Y-92854236D01*
X79291808Y-92772182D01*
X79541101Y-92638932D01*
X79759608Y-92459608D01*
X79938932Y-92241101D01*
X80072182Y-91991808D01*
X80154236Y-91721309D01*
X80181943Y-91440000D01*
X80154236Y-91158691D01*
X80072182Y-90888192D01*
X79938932Y-90638899D01*
X79759608Y-90420392D01*
X79541101Y-90241068D01*
X79291808Y-90107818D01*
X79021309Y-90025764D01*
X78810492Y-90005000D01*
X78669508Y-90005000D01*
X78458691Y-90025764D01*
X78188192Y-90107818D01*
X77938899Y-90241068D01*
X77720392Y-90420392D01*
X77541068Y-90638899D01*
X77407818Y-90888192D01*
X77325764Y-91158691D01*
X77298057Y-91440000D01*
X76371943Y-91440000D01*
X76344236Y-91158691D01*
X76262182Y-90888192D01*
X76128932Y-90638899D01*
X75949608Y-90420392D01*
X75731101Y-90241068D01*
X75481808Y-90107818D01*
X75211309Y-90025764D01*
X75000492Y-90005000D01*
X74859508Y-90005000D01*
X74648691Y-90025764D01*
X74378192Y-90107818D01*
X74128899Y-90241068D01*
X73910392Y-90420392D01*
X73731068Y-90638899D01*
X73597818Y-90888192D01*
X73515764Y-91158691D01*
X73488057Y-91440000D01*
X72558072Y-91440000D01*
X72558072Y-90640000D01*
X72545812Y-90515518D01*
X72509502Y-90395820D01*
X72450537Y-90285506D01*
X72371185Y-90188815D01*
X72274494Y-90109463D01*
X72164180Y-90050498D01*
X72044482Y-90014188D01*
X71920000Y-90001928D01*
X70320000Y-90001928D01*
X70195518Y-90014188D01*
X70075820Y-90050498D01*
X69965506Y-90109463D01*
X69868815Y-90188815D01*
X69789463Y-90285506D01*
X69730498Y-90395820D01*
X69694188Y-90515518D01*
X69681928Y-90640000D01*
X68719247Y-90640000D01*
X68773513Y-90461111D01*
X68802185Y-90170000D01*
X68773513Y-89878889D01*
X68688599Y-89598966D01*
X68550706Y-89340986D01*
X68365134Y-89114866D01*
X68139014Y-88929294D01*
X68074477Y-88894799D01*
X68191355Y-88825178D01*
X68407588Y-88630269D01*
X68581641Y-88396920D01*
X68706825Y-88134099D01*
X68751476Y-87986890D01*
X68630155Y-87757000D01*
X67437000Y-87757000D01*
X67437000Y-87777000D01*
X67183000Y-87777000D01*
X67183000Y-87757000D01*
X65989845Y-87757000D01*
X65868524Y-87986890D01*
X65913175Y-88134099D01*
X66038359Y-88396920D01*
X66212412Y-88630269D01*
X66428645Y-88825178D01*
X66545523Y-88894799D01*
X66480986Y-88929294D01*
X66254866Y-89114866D01*
X66069294Y-89340986D01*
X65931401Y-89598966D01*
X65846487Y-89878889D01*
X65817815Y-90170000D01*
X65430000Y-90170000D01*
X65430000Y-84240000D01*
X65821928Y-84240000D01*
X65821928Y-85940000D01*
X65834188Y-86064482D01*
X65870498Y-86184180D01*
X65929463Y-86294494D01*
X66008815Y-86391185D01*
X66105506Y-86470537D01*
X66215820Y-86529502D01*
X66296466Y-86553966D01*
X66212412Y-86629731D01*
X66038359Y-86863080D01*
X65913175Y-87125901D01*
X65868524Y-87273110D01*
X65989845Y-87503000D01*
X67183000Y-87503000D01*
X67183000Y-87483000D01*
X67437000Y-87483000D01*
X67437000Y-87503000D01*
X68630155Y-87503000D01*
X68751476Y-87273110D01*
X68706825Y-87125901D01*
X68581641Y-86863080D01*
X68407588Y-86629731D01*
X68323534Y-86553966D01*
X68404180Y-86529502D01*
X68514494Y-86470537D01*
X68611185Y-86391185D01*
X68690537Y-86294494D01*
X68749502Y-86184180D01*
X68785812Y-86064482D01*
X68798072Y-85940000D01*
X68798072Y-84240000D01*
X68785812Y-84115518D01*
X68749502Y-83995820D01*
X68690537Y-83885506D01*
X68636778Y-83820000D01*
X69678057Y-83820000D01*
X69705764Y-84101309D01*
X69787818Y-84371808D01*
X69921068Y-84621101D01*
X70100392Y-84839608D01*
X70318899Y-85018932D01*
X70568192Y-85152182D01*
X70838691Y-85234236D01*
X71049508Y-85255000D01*
X71190492Y-85255000D01*
X71401309Y-85234236D01*
X71671808Y-85152182D01*
X71921101Y-85018932D01*
X72139608Y-84839608D01*
X72318932Y-84621101D01*
X72452182Y-84371808D01*
X72534236Y-84101309D01*
X72561943Y-83820000D01*
X72534236Y-83538691D01*
X72452182Y-83268192D01*
X72319521Y-83020000D01*
X73491928Y-83020000D01*
X73491928Y-84620000D01*
X73504188Y-84744482D01*
X73540498Y-84864180D01*
X73599463Y-84974494D01*
X73678815Y-85071185D01*
X73775506Y-85150537D01*
X73885820Y-85209502D01*
X74005518Y-85245812D01*
X74130000Y-85258072D01*
X75730000Y-85258072D01*
X75854482Y-85245812D01*
X75974180Y-85209502D01*
X76084494Y-85150537D01*
X76181185Y-85071185D01*
X76260537Y-84974494D01*
X76319502Y-84864180D01*
X76355812Y-84744482D01*
X76368072Y-84620000D01*
X76368072Y-83678665D01*
X77305000Y-83678665D01*
X77305000Y-83961335D01*
X77360147Y-84238574D01*
X77468320Y-84499727D01*
X77625363Y-84734759D01*
X77825241Y-84934637D01*
X78060273Y-85091680D01*
X78321426Y-85199853D01*
X78598665Y-85255000D01*
X78881335Y-85255000D01*
X79158574Y-85199853D01*
X79419727Y-85091680D01*
X79654759Y-84934637D01*
X79854637Y-84734759D01*
X80011680Y-84499727D01*
X80119853Y-84238574D01*
X80175000Y-83961335D01*
X80175000Y-83678665D01*
X80119853Y-83401426D01*
X80011680Y-83140273D01*
X79854637Y-82905241D01*
X79654759Y-82705363D01*
X79419727Y-82548320D01*
X79158574Y-82440147D01*
X78881335Y-82385000D01*
X78598665Y-82385000D01*
X78321426Y-82440147D01*
X78060273Y-82548320D01*
X77825241Y-82705363D01*
X77625363Y-82905241D01*
X77468320Y-83140273D01*
X77360147Y-83401426D01*
X77305000Y-83678665D01*
X76368072Y-83678665D01*
X76368072Y-83020000D01*
X76355812Y-82895518D01*
X76319502Y-82775820D01*
X76260537Y-82665506D01*
X76181185Y-82568815D01*
X76084494Y-82489463D01*
X75974180Y-82430498D01*
X75854482Y-82394188D01*
X75730000Y-82381928D01*
X74130000Y-82381928D01*
X74005518Y-82394188D01*
X73885820Y-82430498D01*
X73775506Y-82489463D01*
X73678815Y-82568815D01*
X73599463Y-82665506D01*
X73540498Y-82775820D01*
X73504188Y-82895518D01*
X73491928Y-83020000D01*
X72319521Y-83020000D01*
X72318932Y-83018899D01*
X72139608Y-82800392D01*
X71921101Y-82621068D01*
X71671808Y-82487818D01*
X71401309Y-82405764D01*
X71190492Y-82385000D01*
X71049508Y-82385000D01*
X70838691Y-82405764D01*
X70568192Y-82487818D01*
X70318899Y-82621068D01*
X70100392Y-82800392D01*
X69921068Y-83018899D01*
X69787818Y-83268192D01*
X69705764Y-83538691D01*
X69678057Y-83820000D01*
X68636778Y-83820000D01*
X68611185Y-83788815D01*
X68514494Y-83709463D01*
X68404180Y-83650498D01*
X68284482Y-83614188D01*
X68160000Y-83601928D01*
X66460000Y-83601928D01*
X66335518Y-83614188D01*
X66215820Y-83650498D01*
X66105506Y-83709463D01*
X66008815Y-83788815D01*
X65929463Y-83885506D01*
X65870498Y-83995820D01*
X65834188Y-84115518D01*
X65821928Y-84240000D01*
X65430000Y-84240000D01*
X65430000Y-80010000D01*
X68408057Y-80010000D01*
X68435764Y-80291309D01*
X68517818Y-80561808D01*
X68651068Y-80811101D01*
X68830392Y-81029608D01*
X69048899Y-81208932D01*
X69298192Y-81342182D01*
X69568691Y-81424236D01*
X69779508Y-81445000D01*
X69920492Y-81445000D01*
X70131309Y-81424236D01*
X70401808Y-81342182D01*
X70651101Y-81208932D01*
X70869608Y-81029608D01*
X71048932Y-80811101D01*
X71182182Y-80561808D01*
X71264236Y-80291309D01*
X71291943Y-80010000D01*
X71278023Y-79868665D01*
X76035000Y-79868665D01*
X76035000Y-80151335D01*
X76090147Y-80428574D01*
X76198320Y-80689727D01*
X76355363Y-80924759D01*
X76555241Y-81124637D01*
X76790273Y-81281680D01*
X77051426Y-81389853D01*
X77328665Y-81445000D01*
X77611335Y-81445000D01*
X77888574Y-81389853D01*
X78149727Y-81281680D01*
X78384759Y-81124637D01*
X78584637Y-80924759D01*
X78741680Y-80689727D01*
X78849853Y-80428574D01*
X78905000Y-80151335D01*
X78905000Y-80010000D01*
X80708057Y-80010000D01*
X80735764Y-80291309D01*
X80817818Y-80561808D01*
X80951068Y-80811101D01*
X81130392Y-81029608D01*
X81348899Y-81208932D01*
X81481858Y-81280000D01*
X81348899Y-81351068D01*
X81130392Y-81530392D01*
X80951068Y-81748899D01*
X80817818Y-81998192D01*
X80735764Y-82268691D01*
X80708057Y-82550000D01*
X80735764Y-82831309D01*
X80817818Y-83101808D01*
X80951068Y-83351101D01*
X81130392Y-83569608D01*
X81348899Y-83748932D01*
X81481858Y-83820000D01*
X81348899Y-83891068D01*
X81130392Y-84070392D01*
X80951068Y-84288899D01*
X80817818Y-84538192D01*
X80735764Y-84808691D01*
X80708057Y-85090000D01*
X80735764Y-85371309D01*
X80817818Y-85641808D01*
X80951068Y-85891101D01*
X81130392Y-86109608D01*
X81348899Y-86288932D01*
X81481858Y-86360000D01*
X81348899Y-86431068D01*
X81130392Y-86610392D01*
X80951068Y-86828899D01*
X80817818Y-87078192D01*
X80735764Y-87348691D01*
X80708057Y-87630000D01*
X80735764Y-87911309D01*
X80817818Y-88181808D01*
X80951068Y-88431101D01*
X81130392Y-88649608D01*
X81348899Y-88828932D01*
X81481858Y-88900000D01*
X81348899Y-88971068D01*
X81130392Y-89150392D01*
X80951068Y-89368899D01*
X80817818Y-89618192D01*
X80735764Y-89888691D01*
X80708057Y-90170000D01*
X80735764Y-90451309D01*
X80817818Y-90721808D01*
X80951068Y-90971101D01*
X81130392Y-91189608D01*
X81348899Y-91368932D01*
X81481858Y-91440000D01*
X81348899Y-91511068D01*
X81130392Y-91690392D01*
X80951068Y-91908899D01*
X80817818Y-92158192D01*
X80735764Y-92428691D01*
X80708057Y-92710000D01*
X80735764Y-92991309D01*
X80817818Y-93261808D01*
X80951068Y-93511101D01*
X81130392Y-93729608D01*
X81348899Y-93908932D01*
X81598192Y-94042182D01*
X81868691Y-94124236D01*
X82079508Y-94145000D01*
X83020492Y-94145000D01*
X83231309Y-94124236D01*
X83501808Y-94042182D01*
X83751101Y-93908932D01*
X83969608Y-93729608D01*
X84148932Y-93511101D01*
X84282182Y-93261808D01*
X84364236Y-92991309D01*
X84391943Y-92710000D01*
X84364236Y-92428691D01*
X84282182Y-92158192D01*
X84148932Y-91908899D01*
X83969608Y-91690392D01*
X83751101Y-91511068D01*
X83618142Y-91440000D01*
X83751101Y-91368932D01*
X83969608Y-91189608D01*
X84148932Y-90971101D01*
X84282182Y-90721808D01*
X84364236Y-90451309D01*
X84391943Y-90170000D01*
X84364236Y-89888691D01*
X84282182Y-89618192D01*
X84148932Y-89368899D01*
X83969608Y-89150392D01*
X83751101Y-88971068D01*
X83618142Y-88900000D01*
X83751101Y-88828932D01*
X83969608Y-88649608D01*
X84148932Y-88431101D01*
X84282182Y-88181808D01*
X84364236Y-87911309D01*
X84391943Y-87630000D01*
X84364236Y-87348691D01*
X84282182Y-87078192D01*
X84148932Y-86828899D01*
X83969608Y-86610392D01*
X83751101Y-86431068D01*
X83618142Y-86360000D01*
X83751101Y-86288932D01*
X83969608Y-86109608D01*
X84148932Y-85891101D01*
X84282182Y-85641808D01*
X84364236Y-85371309D01*
X84391943Y-85090000D01*
X84364236Y-84808691D01*
X84282182Y-84538192D01*
X84148932Y-84288899D01*
X83969608Y-84070392D01*
X83751101Y-83891068D01*
X83618142Y-83820000D01*
X83751101Y-83748932D01*
X83969608Y-83569608D01*
X84148932Y-83351101D01*
X84282182Y-83101808D01*
X84364236Y-82831309D01*
X84391943Y-82550000D01*
X84364236Y-82268691D01*
X84282182Y-81998192D01*
X84148932Y-81748899D01*
X83969608Y-81530392D01*
X83751101Y-81351068D01*
X83618142Y-81280000D01*
X83751101Y-81208932D01*
X83969608Y-81029608D01*
X84148932Y-80811101D01*
X84282182Y-80561808D01*
X84364236Y-80291309D01*
X84391943Y-80010000D01*
X84364236Y-79728691D01*
X84282182Y-79458192D01*
X84148932Y-79208899D01*
X83969608Y-78990392D01*
X83751101Y-78811068D01*
X83623259Y-78742735D01*
X83852839Y-78592601D01*
X84054500Y-78394895D01*
X84213715Y-78161646D01*
X84324367Y-77901818D01*
X84341904Y-77819039D01*
X84219915Y-77597000D01*
X82677000Y-77597000D01*
X82677000Y-77617000D01*
X82423000Y-77617000D01*
X82423000Y-77597000D01*
X80880085Y-77597000D01*
X80758096Y-77819039D01*
X80775633Y-77901818D01*
X80886285Y-78161646D01*
X81045500Y-78394895D01*
X81247161Y-78592601D01*
X81476741Y-78742735D01*
X81348899Y-78811068D01*
X81130392Y-78990392D01*
X80951068Y-79208899D01*
X80817818Y-79458192D01*
X80735764Y-79728691D01*
X80708057Y-80010000D01*
X78905000Y-80010000D01*
X78905000Y-79868665D01*
X78849853Y-79591426D01*
X78741680Y-79330273D01*
X78584637Y-79095241D01*
X78384759Y-78895363D01*
X78149727Y-78738320D01*
X77888574Y-78630147D01*
X77611335Y-78575000D01*
X77328665Y-78575000D01*
X77051426Y-78630147D01*
X76790273Y-78738320D01*
X76555241Y-78895363D01*
X76355363Y-79095241D01*
X76198320Y-79330273D01*
X76090147Y-79591426D01*
X76035000Y-79868665D01*
X71278023Y-79868665D01*
X71264236Y-79728691D01*
X71182182Y-79458192D01*
X71048932Y-79208899D01*
X70869608Y-78990392D01*
X70651101Y-78811068D01*
X70401808Y-78677818D01*
X70131309Y-78595764D01*
X69920492Y-78575000D01*
X69779508Y-78575000D01*
X69568691Y-78595764D01*
X69298192Y-78677818D01*
X69048899Y-78811068D01*
X68830392Y-78990392D01*
X68651068Y-79208899D01*
X68517818Y-79458192D01*
X68435764Y-79728691D01*
X68408057Y-80010000D01*
X65430000Y-80010000D01*
X65430000Y-75690000D01*
X76031928Y-75690000D01*
X76044188Y-75814482D01*
X76080498Y-75934180D01*
X76139463Y-76044494D01*
X76218815Y-76141185D01*
X76315506Y-76220537D01*
X76425820Y-76279502D01*
X76545518Y-76315812D01*
X76670000Y-76328072D01*
X77184250Y-76325000D01*
X77343000Y-76166250D01*
X77343000Y-75017000D01*
X77597000Y-75017000D01*
X77597000Y-76166250D01*
X77755750Y-76325000D01*
X78270000Y-76328072D01*
X78394482Y-76315812D01*
X78514180Y-76279502D01*
X78624494Y-76220537D01*
X78721185Y-76141185D01*
X78800537Y-76044494D01*
X78859502Y-75934180D01*
X78895812Y-75814482D01*
X78908072Y-75690000D01*
X78905000Y-75175750D01*
X78746250Y-75017000D01*
X77597000Y-75017000D01*
X77343000Y-75017000D01*
X76193750Y-75017000D01*
X76035000Y-75175750D01*
X76031928Y-75690000D01*
X65430000Y-75690000D01*
X65430000Y-73518665D01*
X67185000Y-73518665D01*
X67185000Y-73801335D01*
X67240147Y-74078574D01*
X67348320Y-74339727D01*
X67505363Y-74574759D01*
X67705241Y-74774637D01*
X67940273Y-74931680D01*
X68201426Y-75039853D01*
X68478665Y-75095000D01*
X68761335Y-75095000D01*
X69038574Y-75039853D01*
X69299727Y-74931680D01*
X69534759Y-74774637D01*
X69701339Y-74608057D01*
X69730498Y-74704180D01*
X69789463Y-74814494D01*
X69868815Y-74911185D01*
X69965506Y-74990537D01*
X70075820Y-75049502D01*
X70195518Y-75085812D01*
X70320000Y-75098072D01*
X71920000Y-75098072D01*
X72044482Y-75085812D01*
X72164180Y-75049502D01*
X72274494Y-74990537D01*
X72348258Y-74930000D01*
X80708057Y-74930000D01*
X80735764Y-75211309D01*
X80817818Y-75481808D01*
X80951068Y-75731101D01*
X81130392Y-75949608D01*
X81348899Y-76128932D01*
X81476741Y-76197265D01*
X81247161Y-76347399D01*
X81045500Y-76545105D01*
X80886285Y-76778354D01*
X80775633Y-77038182D01*
X80758096Y-77120961D01*
X80880085Y-77343000D01*
X82423000Y-77343000D01*
X82423000Y-77323000D01*
X82677000Y-77323000D01*
X82677000Y-77343000D01*
X84219915Y-77343000D01*
X84341904Y-77120961D01*
X84324367Y-77038182D01*
X84213715Y-76778354D01*
X84054500Y-76545105D01*
X83852839Y-76347399D01*
X83623259Y-76197265D01*
X83751101Y-76128932D01*
X83969608Y-75949608D01*
X84148932Y-75731101D01*
X84282182Y-75481808D01*
X84364236Y-75211309D01*
X84391943Y-74930000D01*
X84364236Y-74648691D01*
X84282182Y-74378192D01*
X84148932Y-74128899D01*
X83969608Y-73910392D01*
X83856518Y-73817581D01*
X83874482Y-73815812D01*
X83994180Y-73779502D01*
X84104494Y-73720537D01*
X84201185Y-73641185D01*
X84280537Y-73544494D01*
X84339502Y-73434180D01*
X84375812Y-73314482D01*
X84388072Y-73190000D01*
X84388072Y-72390000D01*
X88328057Y-72390000D01*
X88355764Y-72671309D01*
X88437818Y-72941808D01*
X88571068Y-73191101D01*
X88750392Y-73409608D01*
X88968899Y-73588932D01*
X89101858Y-73660000D01*
X88968899Y-73731068D01*
X88750392Y-73910392D01*
X88571068Y-74128899D01*
X88437818Y-74378192D01*
X88355764Y-74648691D01*
X88328057Y-74930000D01*
X88355764Y-75211309D01*
X88437818Y-75481808D01*
X88571068Y-75731101D01*
X88750392Y-75949608D01*
X88968899Y-76128932D01*
X89101858Y-76200000D01*
X88968899Y-76271068D01*
X88750392Y-76450392D01*
X88571068Y-76668899D01*
X88437818Y-76918192D01*
X88355764Y-77188691D01*
X88328057Y-77470000D01*
X88355764Y-77751309D01*
X88437818Y-78021808D01*
X88571068Y-78271101D01*
X88750392Y-78489608D01*
X88968899Y-78668932D01*
X89101858Y-78740000D01*
X88968899Y-78811068D01*
X88750392Y-78990392D01*
X88571068Y-79208899D01*
X88437818Y-79458192D01*
X88355764Y-79728691D01*
X88328057Y-80010000D01*
X88355764Y-80291309D01*
X88437818Y-80561808D01*
X88571068Y-80811101D01*
X88750392Y-81029608D01*
X88968899Y-81208932D01*
X89101858Y-81280000D01*
X88968899Y-81351068D01*
X88750392Y-81530392D01*
X88571068Y-81748899D01*
X88437818Y-81998192D01*
X88355764Y-82268691D01*
X88328057Y-82550000D01*
X88355764Y-82831309D01*
X88437818Y-83101808D01*
X88571068Y-83351101D01*
X88750392Y-83569608D01*
X88968899Y-83748932D01*
X89101858Y-83820000D01*
X88968899Y-83891068D01*
X88750392Y-84070392D01*
X88571068Y-84288899D01*
X88437818Y-84538192D01*
X88355764Y-84808691D01*
X88328057Y-85090000D01*
X88355764Y-85371309D01*
X88437818Y-85641808D01*
X88571068Y-85891101D01*
X88750392Y-86109608D01*
X88968899Y-86288932D01*
X89101858Y-86360000D01*
X88968899Y-86431068D01*
X88750392Y-86610392D01*
X88571068Y-86828899D01*
X88437818Y-87078192D01*
X88355764Y-87348691D01*
X88328057Y-87630000D01*
X88355764Y-87911309D01*
X88437818Y-88181808D01*
X88571068Y-88431101D01*
X88750392Y-88649608D01*
X88968899Y-88828932D01*
X89101858Y-88900000D01*
X88968899Y-88971068D01*
X88750392Y-89150392D01*
X88571068Y-89368899D01*
X88437818Y-89618192D01*
X88355764Y-89888691D01*
X88328057Y-90170000D01*
X88355764Y-90451309D01*
X88437818Y-90721808D01*
X88571068Y-90971101D01*
X88750392Y-91189608D01*
X88968899Y-91368932D01*
X89101858Y-91440000D01*
X88968899Y-91511068D01*
X88750392Y-91690392D01*
X88571068Y-91908899D01*
X88437818Y-92158192D01*
X88355764Y-92428691D01*
X88328057Y-92710000D01*
X88355764Y-92991309D01*
X88437818Y-93261808D01*
X88571068Y-93511101D01*
X88750392Y-93729608D01*
X88968899Y-93908932D01*
X89218192Y-94042182D01*
X89488691Y-94124236D01*
X89699508Y-94145000D01*
X90640492Y-94145000D01*
X90851309Y-94124236D01*
X91121808Y-94042182D01*
X91371101Y-93908932D01*
X91589608Y-93729608D01*
X91768932Y-93511101D01*
X91902182Y-93261808D01*
X91984236Y-92991309D01*
X92011943Y-92710000D01*
X91984236Y-92428691D01*
X91902182Y-92158192D01*
X91768932Y-91908899D01*
X91589608Y-91690392D01*
X91371101Y-91511068D01*
X91238142Y-91440000D01*
X91371101Y-91368932D01*
X91589608Y-91189608D01*
X91768932Y-90971101D01*
X91902182Y-90721808D01*
X91984236Y-90451309D01*
X92011943Y-90170000D01*
X91984236Y-89888691D01*
X91902182Y-89618192D01*
X91768932Y-89368899D01*
X91589608Y-89150392D01*
X91371101Y-88971068D01*
X91238142Y-88900000D01*
X91371101Y-88828932D01*
X91589608Y-88649608D01*
X91768932Y-88431101D01*
X91902182Y-88181808D01*
X91984236Y-87911309D01*
X92011943Y-87630000D01*
X91984236Y-87348691D01*
X91902182Y-87078192D01*
X91768932Y-86828899D01*
X91589608Y-86610392D01*
X91371101Y-86431068D01*
X91238142Y-86360000D01*
X91371101Y-86288932D01*
X91589608Y-86109608D01*
X91768932Y-85891101D01*
X91902182Y-85641808D01*
X91984236Y-85371309D01*
X92011943Y-85090000D01*
X91984236Y-84808691D01*
X91902182Y-84538192D01*
X91768932Y-84288899D01*
X91589608Y-84070392D01*
X91371101Y-83891068D01*
X91238142Y-83820000D01*
X91371101Y-83748932D01*
X91589608Y-83569608D01*
X91768932Y-83351101D01*
X91902182Y-83101808D01*
X91984236Y-82831309D01*
X92011943Y-82550000D01*
X91984236Y-82268691D01*
X91902182Y-81998192D01*
X91768932Y-81748899D01*
X91589608Y-81530392D01*
X91371101Y-81351068D01*
X91238142Y-81280000D01*
X91371101Y-81208932D01*
X91589608Y-81029608D01*
X91768932Y-80811101D01*
X91902182Y-80561808D01*
X91984236Y-80291309D01*
X92011943Y-80010000D01*
X91984236Y-79728691D01*
X91902182Y-79458192D01*
X91768932Y-79208899D01*
X91589608Y-78990392D01*
X91371101Y-78811068D01*
X91238142Y-78740000D01*
X91371101Y-78668932D01*
X91589608Y-78489608D01*
X91768932Y-78271101D01*
X91902182Y-78021808D01*
X91984236Y-77751309D01*
X92011943Y-77470000D01*
X91984236Y-77188691D01*
X91902182Y-76918192D01*
X91768932Y-76668899D01*
X91589608Y-76450392D01*
X91371101Y-76271068D01*
X91238142Y-76200000D01*
X91371101Y-76128932D01*
X91589608Y-75949608D01*
X91768932Y-75731101D01*
X91902182Y-75481808D01*
X91984236Y-75211309D01*
X92011943Y-74930000D01*
X91984236Y-74648691D01*
X91902182Y-74378192D01*
X91768932Y-74128899D01*
X91589608Y-73910392D01*
X91371101Y-73731068D01*
X91238142Y-73660000D01*
X91371101Y-73588932D01*
X91589608Y-73409608D01*
X91768932Y-73191101D01*
X91902182Y-72941808D01*
X91984236Y-72671309D01*
X92011943Y-72390000D01*
X91984236Y-72108691D01*
X91902182Y-71838192D01*
X91768932Y-71588899D01*
X91589608Y-71370392D01*
X91371101Y-71191068D01*
X91121808Y-71057818D01*
X90851309Y-70975764D01*
X90640492Y-70955000D01*
X89699508Y-70955000D01*
X89488691Y-70975764D01*
X89218192Y-71057818D01*
X88968899Y-71191068D01*
X88750392Y-71370392D01*
X88571068Y-71588899D01*
X88437818Y-71838192D01*
X88355764Y-72108691D01*
X88328057Y-72390000D01*
X84388072Y-72390000D01*
X84388072Y-71590000D01*
X84375812Y-71465518D01*
X84339502Y-71345820D01*
X84280537Y-71235506D01*
X84201185Y-71138815D01*
X84104494Y-71059463D01*
X83994180Y-71000498D01*
X83874482Y-70964188D01*
X83750000Y-70951928D01*
X81350000Y-70951928D01*
X81225518Y-70964188D01*
X81105820Y-71000498D01*
X80995506Y-71059463D01*
X80898815Y-71138815D01*
X80819463Y-71235506D01*
X80760498Y-71345820D01*
X80724188Y-71465518D01*
X80711928Y-71590000D01*
X80711928Y-73190000D01*
X80724188Y-73314482D01*
X80760498Y-73434180D01*
X80819463Y-73544494D01*
X80898815Y-73641185D01*
X80995506Y-73720537D01*
X81105820Y-73779502D01*
X81225518Y-73815812D01*
X81243482Y-73817581D01*
X81130392Y-73910392D01*
X80951068Y-74128899D01*
X80817818Y-74378192D01*
X80735764Y-74648691D01*
X80708057Y-74930000D01*
X72348258Y-74930000D01*
X72371185Y-74911185D01*
X72450537Y-74814494D01*
X72509502Y-74704180D01*
X72545812Y-74584482D01*
X72558072Y-74460000D01*
X72558072Y-74090000D01*
X76031928Y-74090000D01*
X76035000Y-74604250D01*
X76193750Y-74763000D01*
X77343000Y-74763000D01*
X77343000Y-74743000D01*
X77597000Y-74743000D01*
X77597000Y-74763000D01*
X78746250Y-74763000D01*
X78905000Y-74604250D01*
X78908072Y-74090000D01*
X78895812Y-73965518D01*
X78859502Y-73845820D01*
X78800537Y-73735506D01*
X78721185Y-73638815D01*
X78624494Y-73559463D01*
X78514180Y-73500498D01*
X78418057Y-73471339D01*
X78584637Y-73304759D01*
X78741680Y-73069727D01*
X78849853Y-72808574D01*
X78905000Y-72531335D01*
X78905000Y-72248665D01*
X78849853Y-71971426D01*
X78741680Y-71710273D01*
X78584637Y-71475241D01*
X78384759Y-71275363D01*
X78149727Y-71118320D01*
X77888574Y-71010147D01*
X77611335Y-70955000D01*
X77328665Y-70955000D01*
X77051426Y-71010147D01*
X76790273Y-71118320D01*
X76555241Y-71275363D01*
X76355363Y-71475241D01*
X76198320Y-71710273D01*
X76090147Y-71971426D01*
X76035000Y-72248665D01*
X76035000Y-72531335D01*
X76090147Y-72808574D01*
X76198320Y-73069727D01*
X76355363Y-73304759D01*
X76521943Y-73471339D01*
X76425820Y-73500498D01*
X76315506Y-73559463D01*
X76218815Y-73638815D01*
X76139463Y-73735506D01*
X76080498Y-73845820D01*
X76044188Y-73965518D01*
X76031928Y-74090000D01*
X72558072Y-74090000D01*
X72558072Y-72860000D01*
X72545812Y-72735518D01*
X72509502Y-72615820D01*
X72450537Y-72505506D01*
X72371185Y-72408815D01*
X72274494Y-72329463D01*
X72164180Y-72270498D01*
X72044482Y-72234188D01*
X71920000Y-72221928D01*
X70320000Y-72221928D01*
X70195518Y-72234188D01*
X70075820Y-72270498D01*
X69965506Y-72329463D01*
X69868815Y-72408815D01*
X69789463Y-72505506D01*
X69730498Y-72615820D01*
X69701339Y-72711943D01*
X69534759Y-72545363D01*
X69299727Y-72388320D01*
X69038574Y-72280147D01*
X68761335Y-72225000D01*
X68478665Y-72225000D01*
X68201426Y-72280147D01*
X67940273Y-72388320D01*
X67705241Y-72545363D01*
X67505363Y-72745241D01*
X67348320Y-72980273D01*
X67240147Y-73241426D01*
X67185000Y-73518665D01*
X65430000Y-73518665D01*
X65430000Y-69875000D01*
X92544388Y-69875000D01*
X92490498Y-69975820D01*
X92490498Y-69975820D01*
G37*
X92490498Y-69975820D02*
X92454188Y-70095518D01*
X92441928Y-70220000D01*
X92441928Y-72020000D01*
X92454188Y-72144482D01*
X92490498Y-72264180D01*
X92549463Y-72374494D01*
X92628815Y-72471185D01*
X92701835Y-72531111D01*
X92628815Y-72591037D01*
X92549463Y-72687728D01*
X92490498Y-72798042D01*
X92454188Y-72917740D01*
X92441928Y-73042222D01*
X92441928Y-74842222D01*
X92454188Y-74966704D01*
X92490498Y-75086402D01*
X92549463Y-75196716D01*
X92628815Y-75293407D01*
X92701835Y-75353333D01*
X92628815Y-75413259D01*
X92549463Y-75509950D01*
X92490498Y-75620264D01*
X92454188Y-75739962D01*
X92441928Y-75864444D01*
X92441928Y-77664444D01*
X92454188Y-77788926D01*
X92490498Y-77908624D01*
X92549463Y-78018938D01*
X92628815Y-78115629D01*
X92701835Y-78175555D01*
X92628815Y-78235481D01*
X92549463Y-78332172D01*
X92490498Y-78442486D01*
X92454188Y-78562184D01*
X92441928Y-78686666D01*
X92441928Y-80486666D01*
X92454188Y-80611148D01*
X92490498Y-80730846D01*
X92549463Y-80841160D01*
X92628815Y-80937851D01*
X92701835Y-80997777D01*
X92628815Y-81057703D01*
X92549463Y-81154394D01*
X92490498Y-81264708D01*
X92454188Y-81384406D01*
X92441928Y-81508888D01*
X92441928Y-83308888D01*
X92454188Y-83433370D01*
X92490498Y-83553068D01*
X92549463Y-83663382D01*
X92628815Y-83760073D01*
X92701835Y-83819999D01*
X92628815Y-83879925D01*
X92549463Y-83976616D01*
X92490498Y-84086930D01*
X92454188Y-84206628D01*
X92441928Y-84331110D01*
X92441928Y-86131110D01*
X92454188Y-86255592D01*
X92490498Y-86375290D01*
X92549463Y-86485604D01*
X92628815Y-86582295D01*
X92701835Y-86642221D01*
X92628815Y-86702147D01*
X92549463Y-86798838D01*
X92490498Y-86909152D01*
X92454188Y-87028850D01*
X92441928Y-87153332D01*
X92441928Y-88953332D01*
X92454188Y-89077814D01*
X92490498Y-89197512D01*
X92549463Y-89307826D01*
X92628815Y-89404517D01*
X92701835Y-89464443D01*
X92628815Y-89524369D01*
X92549463Y-89621060D01*
X92490498Y-89731374D01*
X92454188Y-89851072D01*
X92441928Y-89975554D01*
X92441928Y-91775554D01*
X92454188Y-91900036D01*
X92490498Y-92019734D01*
X92549463Y-92130048D01*
X92628815Y-92226739D01*
X92701835Y-92286665D01*
X92628815Y-92346591D01*
X92549463Y-92443282D01*
X92490498Y-92553596D01*
X92454188Y-92673294D01*
X92441928Y-92797776D01*
X92441928Y-94597776D01*
X92454188Y-94722258D01*
X92490498Y-94841956D01*
X92549463Y-94952270D01*
X92628815Y-95048961D01*
X92701836Y-95108888D01*
X92628815Y-95168815D01*
X92549463Y-95265506D01*
X92490498Y-95375820D01*
X92454188Y-95495518D01*
X92441928Y-95620000D01*
X92441928Y-97420000D01*
X92454188Y-97544482D01*
X92490498Y-97664180D01*
X92549463Y-97774494D01*
X92628815Y-97871185D01*
X92725506Y-97950537D01*
X92835820Y-98009502D01*
X92955518Y-98045812D01*
X93080000Y-98058072D01*
X94880000Y-98058072D01*
X95004482Y-98045812D01*
X95124180Y-98009502D01*
X95234494Y-97950537D01*
X95331185Y-97871185D01*
X95410537Y-97774494D01*
X95469502Y-97664180D01*
X95472813Y-97653265D01*
X95519578Y-97700030D01*
X95635526Y-97584082D01*
X95719208Y-97838261D01*
X95991775Y-97969158D01*
X96284642Y-98044365D01*
X96586553Y-98060991D01*
X96885907Y-98018397D01*
X97171199Y-97918222D01*
X97320792Y-97838261D01*
X97404475Y-97584080D01*
X96520000Y-96699605D01*
X96505858Y-96713748D01*
X96326253Y-96534143D01*
X96340395Y-96520000D01*
X96699605Y-96520000D01*
X97584080Y-97404475D01*
X97838261Y-97320792D01*
X97969158Y-97048225D01*
X98044365Y-96755358D01*
X98060991Y-96453447D01*
X98018397Y-96154093D01*
X97918222Y-95868801D01*
X97838261Y-95719208D01*
X97584080Y-95635525D01*
X96699605Y-96520000D01*
X96340395Y-96520000D01*
X96326253Y-96505858D01*
X96505858Y-96326253D01*
X96520000Y-96340395D01*
X97404475Y-95455920D01*
X97320792Y-95201739D01*
X97130422Y-95110316D01*
X97171199Y-95095998D01*
X97320792Y-95016037D01*
X97404475Y-94761856D01*
X96520000Y-93877381D01*
X96505858Y-93891524D01*
X96326253Y-93711919D01*
X96340395Y-93697776D01*
X96699605Y-93697776D01*
X97584080Y-94582251D01*
X97838261Y-94498568D01*
X97969158Y-94226001D01*
X98044365Y-93933134D01*
X98060991Y-93631223D01*
X98018397Y-93331869D01*
X97918222Y-93046577D01*
X97838261Y-92896984D01*
X97584080Y-92813301D01*
X96699605Y-93697776D01*
X96340395Y-93697776D01*
X96326253Y-93683634D01*
X96505858Y-93504029D01*
X96520000Y-93518171D01*
X97404475Y-92633696D01*
X97320792Y-92379515D01*
X97130424Y-92288093D01*
X97171199Y-92273776D01*
X97320792Y-92193815D01*
X97404475Y-91939634D01*
X96520000Y-91055159D01*
X96505858Y-91069302D01*
X96326253Y-90889697D01*
X96340395Y-90875554D01*
X96699605Y-90875554D01*
X97584080Y-91760029D01*
X97838261Y-91676346D01*
X97969158Y-91403779D01*
X98044365Y-91110912D01*
X98060991Y-90809001D01*
X98018397Y-90509647D01*
X97918222Y-90224355D01*
X97838261Y-90074762D01*
X97584080Y-89991079D01*
X96699605Y-90875554D01*
X96340395Y-90875554D01*
X96326253Y-90861412D01*
X96505858Y-90681807D01*
X96520000Y-90695949D01*
X97404475Y-89811474D01*
X97320792Y-89557293D01*
X97130424Y-89465871D01*
X97171199Y-89451554D01*
X97320792Y-89371593D01*
X97404475Y-89117412D01*
X96520000Y-88232937D01*
X96505858Y-88247080D01*
X96326253Y-88067475D01*
X96340395Y-88053332D01*
X96699605Y-88053332D01*
X97584080Y-88937807D01*
X97838261Y-88854124D01*
X97969158Y-88581557D01*
X98044365Y-88288690D01*
X98060991Y-87986779D01*
X98018397Y-87687425D01*
X97918222Y-87402133D01*
X97838261Y-87252540D01*
X97584080Y-87168857D01*
X96699605Y-88053332D01*
X96340395Y-88053332D01*
X96326253Y-88039190D01*
X96505858Y-87859585D01*
X96520000Y-87873727D01*
X97404475Y-86989252D01*
X97320792Y-86735071D01*
X97130424Y-86643649D01*
X97171199Y-86629332D01*
X97320792Y-86549371D01*
X97404475Y-86295190D01*
X96520000Y-85410715D01*
X96505858Y-85424858D01*
X96326253Y-85245253D01*
X96340395Y-85231110D01*
X96699605Y-85231110D01*
X97584080Y-86115585D01*
X97838261Y-86031902D01*
X97969158Y-85759335D01*
X98044365Y-85466468D01*
X98060991Y-85164557D01*
X98018397Y-84865203D01*
X97918222Y-84579911D01*
X97838261Y-84430318D01*
X97584080Y-84346635D01*
X96699605Y-85231110D01*
X96340395Y-85231110D01*
X96326253Y-85216968D01*
X96505858Y-85037363D01*
X96520000Y-85051505D01*
X97404475Y-84167030D01*
X97320792Y-83912849D01*
X97130424Y-83821427D01*
X97171199Y-83807110D01*
X97320792Y-83727149D01*
X97404475Y-83472968D01*
X96520000Y-82588493D01*
X96505858Y-82602636D01*
X96326253Y-82423031D01*
X96340395Y-82408888D01*
X96699605Y-82408888D01*
X97584080Y-83293363D01*
X97838261Y-83209680D01*
X97969158Y-82937113D01*
X98044365Y-82644246D01*
X98060991Y-82342335D01*
X98018397Y-82042981D01*
X97918222Y-81757689D01*
X97838261Y-81608096D01*
X97584080Y-81524413D01*
X96699605Y-82408888D01*
X96340395Y-82408888D01*
X96326253Y-82394746D01*
X96505858Y-82215141D01*
X96520000Y-82229283D01*
X97404475Y-81344808D01*
X97320792Y-81090627D01*
X97130424Y-80999205D01*
X97171199Y-80984888D01*
X97320792Y-80904927D01*
X97404475Y-80650746D01*
X96520000Y-79766271D01*
X96505858Y-79780414D01*
X96326253Y-79600809D01*
X96340395Y-79586666D01*
X96699605Y-79586666D01*
X97584080Y-80471141D01*
X97838261Y-80387458D01*
X97969158Y-80114891D01*
X98044365Y-79822024D01*
X98060991Y-79520113D01*
X98018397Y-79220759D01*
X97918222Y-78935467D01*
X97838261Y-78785874D01*
X97584080Y-78702191D01*
X96699605Y-79586666D01*
X96340395Y-79586666D01*
X96326253Y-79572524D01*
X96505858Y-79392919D01*
X96520000Y-79407061D01*
X97404475Y-78522586D01*
X97320792Y-78268405D01*
X97130424Y-78176983D01*
X97171199Y-78162666D01*
X97320792Y-78082705D01*
X97404475Y-77828524D01*
X96520000Y-76944049D01*
X96505858Y-76958192D01*
X96326253Y-76778587D01*
X96340395Y-76764444D01*
X96699605Y-76764444D01*
X97584080Y-77648919D01*
X97838261Y-77565236D01*
X97969158Y-77292669D01*
X98044365Y-76999802D01*
X98060991Y-76697891D01*
X98018397Y-76398537D01*
X97918222Y-76113245D01*
X97838261Y-75963652D01*
X97584080Y-75879969D01*
X96699605Y-76764444D01*
X96340395Y-76764444D01*
X96326253Y-76750302D01*
X96505858Y-76570697D01*
X96520000Y-76584839D01*
X97404475Y-75700364D01*
X97320792Y-75446183D01*
X97130424Y-75354761D01*
X97171199Y-75340444D01*
X97320792Y-75260483D01*
X97404475Y-75006302D01*
X96520000Y-74121827D01*
X96505858Y-74135970D01*
X96326253Y-73956365D01*
X96340395Y-73942222D01*
X96699605Y-73942222D01*
X97584080Y-74826697D01*
X97838261Y-74743014D01*
X97969158Y-74470447D01*
X98044365Y-74177580D01*
X98060991Y-73875669D01*
X98018397Y-73576315D01*
X97918222Y-73291023D01*
X97838261Y-73141430D01*
X97584080Y-73057747D01*
X96699605Y-73942222D01*
X96340395Y-73942222D01*
X96326253Y-73928080D01*
X96505858Y-73748475D01*
X96520000Y-73762617D01*
X97404475Y-72878142D01*
X97320792Y-72623961D01*
X97130424Y-72532539D01*
X97171199Y-72518222D01*
X97320792Y-72438261D01*
X97404475Y-72184080D01*
X96520000Y-71299605D01*
X96505858Y-71313748D01*
X96326253Y-71134143D01*
X96340395Y-71120000D01*
X96699605Y-71120000D01*
X97584080Y-72004475D01*
X97838261Y-71920792D01*
X97969158Y-71648225D01*
X98044365Y-71355358D01*
X98060991Y-71053447D01*
X98018397Y-70754093D01*
X97918222Y-70468801D01*
X97838261Y-70319208D01*
X97584080Y-70235525D01*
X96699605Y-71120000D01*
X96340395Y-71120000D01*
X96326253Y-71105858D01*
X96505858Y-70926253D01*
X96520000Y-70940395D01*
X97404475Y-70055920D01*
X97344911Y-69875000D01*
X98400000Y-69875000D01*
X98400001Y-99035000D01*
X65430000Y-99035000D01*
X65430000Y-94196000D01*
X74761928Y-94196000D01*
X74761928Y-95796000D01*
X74774188Y-95920482D01*
X74810498Y-96040180D01*
X74869463Y-96150494D01*
X74948815Y-96247185D01*
X75045506Y-96326537D01*
X75155820Y-96385502D01*
X75251943Y-96414661D01*
X75085363Y-96581241D01*
X74928320Y-96816273D01*
X74820147Y-97077426D01*
X74765000Y-97354665D01*
X74765000Y-97637335D01*
X74820147Y-97914574D01*
X74928320Y-98175727D01*
X75085363Y-98410759D01*
X75285241Y-98610637D01*
X75520273Y-98767680D01*
X75781426Y-98875853D01*
X76058665Y-98931000D01*
X76341335Y-98931000D01*
X76618574Y-98875853D01*
X76879727Y-98767680D01*
X77114759Y-98610637D01*
X77314637Y-98410759D01*
X77471680Y-98175727D01*
X77579853Y-97914574D01*
X77635000Y-97637335D01*
X77635000Y-97354665D01*
X77579853Y-97077426D01*
X77471680Y-96816273D01*
X77314637Y-96581241D01*
X77148057Y-96414661D01*
X77244180Y-96385502D01*
X77256970Y-96378665D01*
X81115000Y-96378665D01*
X81115000Y-96661335D01*
X81170147Y-96938574D01*
X81278320Y-97199727D01*
X81435363Y-97434759D01*
X81635241Y-97634637D01*
X81870273Y-97791680D01*
X82131426Y-97899853D01*
X82408665Y-97955000D01*
X82691335Y-97955000D01*
X82968574Y-97899853D01*
X83229727Y-97791680D01*
X83464759Y-97634637D01*
X83664637Y-97434759D01*
X83821680Y-97199727D01*
X83929853Y-96938574D01*
X83985000Y-96661335D01*
X83985000Y-96520000D01*
X88728057Y-96520000D01*
X88755764Y-96801309D01*
X88837818Y-97071808D01*
X88971068Y-97321101D01*
X89150392Y-97539608D01*
X89368899Y-97718932D01*
X89618192Y-97852182D01*
X89888691Y-97934236D01*
X90099508Y-97955000D01*
X90240492Y-97955000D01*
X90451309Y-97934236D01*
X90721808Y-97852182D01*
X90971101Y-97718932D01*
X91189608Y-97539608D01*
X91368932Y-97321101D01*
X91502182Y-97071808D01*
X91584236Y-96801309D01*
X91611943Y-96520000D01*
X91584236Y-96238691D01*
X91502182Y-95968192D01*
X91368932Y-95718899D01*
X91189608Y-95500392D01*
X90971101Y-95321068D01*
X90721808Y-95187818D01*
X90451309Y-95105764D01*
X90240492Y-95085000D01*
X90099508Y-95085000D01*
X89888691Y-95105764D01*
X89618192Y-95187818D01*
X89368899Y-95321068D01*
X89150392Y-95500392D01*
X88971068Y-95718899D01*
X88837818Y-95968192D01*
X88755764Y-96238691D01*
X88728057Y-96520000D01*
X83985000Y-96520000D01*
X83985000Y-96378665D01*
X83929853Y-96101426D01*
X83821680Y-95840273D01*
X83664637Y-95605241D01*
X83464759Y-95405363D01*
X83229727Y-95248320D01*
X82968574Y-95140147D01*
X82691335Y-95085000D01*
X82408665Y-95085000D01*
X82131426Y-95140147D01*
X81870273Y-95248320D01*
X81635241Y-95405363D01*
X81435363Y-95605241D01*
X81278320Y-95840273D01*
X81170147Y-96101426D01*
X81115000Y-96378665D01*
X77256970Y-96378665D01*
X77354494Y-96326537D01*
X77451185Y-96247185D01*
X77530537Y-96150494D01*
X77589502Y-96040180D01*
X77625812Y-95920482D01*
X77638072Y-95796000D01*
X77638072Y-94196000D01*
X77625812Y-94071518D01*
X77589502Y-93951820D01*
X77530537Y-93841506D01*
X77451185Y-93744815D01*
X77354494Y-93665463D01*
X77244180Y-93606498D01*
X77124482Y-93570188D01*
X77000000Y-93557928D01*
X75400000Y-93557928D01*
X75275518Y-93570188D01*
X75155820Y-93606498D01*
X75045506Y-93665463D01*
X74948815Y-93744815D01*
X74869463Y-93841506D01*
X74810498Y-93951820D01*
X74774188Y-94071518D01*
X74761928Y-94196000D01*
X65430000Y-94196000D01*
X65430000Y-90170000D01*
X65817815Y-90170000D01*
X65846487Y-90461111D01*
X65931401Y-90741034D01*
X66069294Y-90999014D01*
X66254866Y-91225134D01*
X66480986Y-91410706D01*
X66535791Y-91440000D01*
X66480986Y-91469294D01*
X66254866Y-91654866D01*
X66069294Y-91880986D01*
X65931401Y-92138966D01*
X65846487Y-92418889D01*
X65817815Y-92710000D01*
X65846487Y-93001111D01*
X65931401Y-93281034D01*
X66069294Y-93539014D01*
X66254866Y-93765134D01*
X66480986Y-93950706D01*
X66738966Y-94088599D01*
X67018889Y-94173513D01*
X67237050Y-94195000D01*
X67382950Y-94195000D01*
X67601111Y-94173513D01*
X67881034Y-94088599D01*
X68139014Y-93950706D01*
X68365134Y-93765134D01*
X68550706Y-93539014D01*
X68688599Y-93281034D01*
X68773513Y-93001111D01*
X68802185Y-92710000D01*
X68773513Y-92418889D01*
X68688599Y-92138966D01*
X68550706Y-91880986D01*
X68365134Y-91654866D01*
X68139014Y-91469294D01*
X68084209Y-91440000D01*
X68139014Y-91410706D01*
X68365134Y-91225134D01*
X68550706Y-90999014D01*
X68688599Y-90741034D01*
X68719247Y-90640000D01*
X69681928Y-90640000D01*
X69681928Y-92240000D01*
X69694188Y-92364482D01*
X69730498Y-92484180D01*
X69789463Y-92594494D01*
X69868815Y-92691185D01*
X69965506Y-92770537D01*
X70075820Y-92829502D01*
X70195518Y-92865812D01*
X70320000Y-92878072D01*
X71920000Y-92878072D01*
X72044482Y-92865812D01*
X72164180Y-92829502D01*
X72274494Y-92770537D01*
X72371185Y-92691185D01*
X72450537Y-92594494D01*
X72509502Y-92484180D01*
X72545812Y-92364482D01*
X72558072Y-92240000D01*
X72558072Y-91440000D01*
X73488057Y-91440000D01*
X73515764Y-91721309D01*
X73597818Y-91991808D01*
X73731068Y-92241101D01*
X73910392Y-92459608D01*
X74128899Y-92638932D01*
X74378192Y-92772182D01*
X74648691Y-92854236D01*
X74859508Y-92875000D01*
X75000492Y-92875000D01*
X75211309Y-92854236D01*
X75481808Y-92772182D01*
X75731101Y-92638932D01*
X75949608Y-92459608D01*
X76128932Y-92241101D01*
X76262182Y-91991808D01*
X76344236Y-91721309D01*
X76371943Y-91440000D01*
X77298057Y-91440000D01*
X77325764Y-91721309D01*
X77407818Y-91991808D01*
X77541068Y-92241101D01*
X77720392Y-92459608D01*
X77938899Y-92638932D01*
X78188192Y-92772182D01*
X78458691Y-92854236D01*
X78669508Y-92875000D01*
X78810492Y-92875000D01*
X79021309Y-92854236D01*
X79291808Y-92772182D01*
X79541101Y-92638932D01*
X79759608Y-92459608D01*
X79938932Y-92241101D01*
X80072182Y-91991808D01*
X80154236Y-91721309D01*
X80181943Y-91440000D01*
X80154236Y-91158691D01*
X80072182Y-90888192D01*
X79938932Y-90638899D01*
X79759608Y-90420392D01*
X79541101Y-90241068D01*
X79291808Y-90107818D01*
X79021309Y-90025764D01*
X78810492Y-90005000D01*
X78669508Y-90005000D01*
X78458691Y-90025764D01*
X78188192Y-90107818D01*
X77938899Y-90241068D01*
X77720392Y-90420392D01*
X77541068Y-90638899D01*
X77407818Y-90888192D01*
X77325764Y-91158691D01*
X77298057Y-91440000D01*
X76371943Y-91440000D01*
X76344236Y-91158691D01*
X76262182Y-90888192D01*
X76128932Y-90638899D01*
X75949608Y-90420392D01*
X75731101Y-90241068D01*
X75481808Y-90107818D01*
X75211309Y-90025764D01*
X75000492Y-90005000D01*
X74859508Y-90005000D01*
X74648691Y-90025764D01*
X74378192Y-90107818D01*
X74128899Y-90241068D01*
X73910392Y-90420392D01*
X73731068Y-90638899D01*
X73597818Y-90888192D01*
X73515764Y-91158691D01*
X73488057Y-91440000D01*
X72558072Y-91440000D01*
X72558072Y-90640000D01*
X72545812Y-90515518D01*
X72509502Y-90395820D01*
X72450537Y-90285506D01*
X72371185Y-90188815D01*
X72274494Y-90109463D01*
X72164180Y-90050498D01*
X72044482Y-90014188D01*
X71920000Y-90001928D01*
X70320000Y-90001928D01*
X70195518Y-90014188D01*
X70075820Y-90050498D01*
X69965506Y-90109463D01*
X69868815Y-90188815D01*
X69789463Y-90285506D01*
X69730498Y-90395820D01*
X69694188Y-90515518D01*
X69681928Y-90640000D01*
X68719247Y-90640000D01*
X68773513Y-90461111D01*
X68802185Y-90170000D01*
X68773513Y-89878889D01*
X68688599Y-89598966D01*
X68550706Y-89340986D01*
X68365134Y-89114866D01*
X68139014Y-88929294D01*
X68074477Y-88894799D01*
X68191355Y-88825178D01*
X68407588Y-88630269D01*
X68581641Y-88396920D01*
X68706825Y-88134099D01*
X68751476Y-87986890D01*
X68630155Y-87757000D01*
X67437000Y-87757000D01*
X67437000Y-87777000D01*
X67183000Y-87777000D01*
X67183000Y-87757000D01*
X65989845Y-87757000D01*
X65868524Y-87986890D01*
X65913175Y-88134099D01*
X66038359Y-88396920D01*
X66212412Y-88630269D01*
X66428645Y-88825178D01*
X66545523Y-88894799D01*
X66480986Y-88929294D01*
X66254866Y-89114866D01*
X66069294Y-89340986D01*
X65931401Y-89598966D01*
X65846487Y-89878889D01*
X65817815Y-90170000D01*
X65430000Y-90170000D01*
X65430000Y-84240000D01*
X65821928Y-84240000D01*
X65821928Y-85940000D01*
X65834188Y-86064482D01*
X65870498Y-86184180D01*
X65929463Y-86294494D01*
X66008815Y-86391185D01*
X66105506Y-86470537D01*
X66215820Y-86529502D01*
X66296466Y-86553966D01*
X66212412Y-86629731D01*
X66038359Y-86863080D01*
X65913175Y-87125901D01*
X65868524Y-87273110D01*
X65989845Y-87503000D01*
X67183000Y-87503000D01*
X67183000Y-87483000D01*
X67437000Y-87483000D01*
X67437000Y-87503000D01*
X68630155Y-87503000D01*
X68751476Y-87273110D01*
X68706825Y-87125901D01*
X68581641Y-86863080D01*
X68407588Y-86629731D01*
X68323534Y-86553966D01*
X68404180Y-86529502D01*
X68514494Y-86470537D01*
X68611185Y-86391185D01*
X68690537Y-86294494D01*
X68749502Y-86184180D01*
X68785812Y-86064482D01*
X68798072Y-85940000D01*
X68798072Y-84240000D01*
X68785812Y-84115518D01*
X68749502Y-83995820D01*
X68690537Y-83885506D01*
X68636778Y-83820000D01*
X69678057Y-83820000D01*
X69705764Y-84101309D01*
X69787818Y-84371808D01*
X69921068Y-84621101D01*
X70100392Y-84839608D01*
X70318899Y-85018932D01*
X70568192Y-85152182D01*
X70838691Y-85234236D01*
X71049508Y-85255000D01*
X71190492Y-85255000D01*
X71401309Y-85234236D01*
X71671808Y-85152182D01*
X71921101Y-85018932D01*
X72139608Y-84839608D01*
X72318932Y-84621101D01*
X72452182Y-84371808D01*
X72534236Y-84101309D01*
X72561943Y-83820000D01*
X72534236Y-83538691D01*
X72452182Y-83268192D01*
X72319521Y-83020000D01*
X73491928Y-83020000D01*
X73491928Y-84620000D01*
X73504188Y-84744482D01*
X73540498Y-84864180D01*
X73599463Y-84974494D01*
X73678815Y-85071185D01*
X73775506Y-85150537D01*
X73885820Y-85209502D01*
X74005518Y-85245812D01*
X74130000Y-85258072D01*
X75730000Y-85258072D01*
X75854482Y-85245812D01*
X75974180Y-85209502D01*
X76084494Y-85150537D01*
X76181185Y-85071185D01*
X76260537Y-84974494D01*
X76319502Y-84864180D01*
X76355812Y-84744482D01*
X76368072Y-84620000D01*
X76368072Y-83678665D01*
X77305000Y-83678665D01*
X77305000Y-83961335D01*
X77360147Y-84238574D01*
X77468320Y-84499727D01*
X77625363Y-84734759D01*
X77825241Y-84934637D01*
X78060273Y-85091680D01*
X78321426Y-85199853D01*
X78598665Y-85255000D01*
X78881335Y-85255000D01*
X79158574Y-85199853D01*
X79419727Y-85091680D01*
X79654759Y-84934637D01*
X79854637Y-84734759D01*
X80011680Y-84499727D01*
X80119853Y-84238574D01*
X80175000Y-83961335D01*
X80175000Y-83678665D01*
X80119853Y-83401426D01*
X80011680Y-83140273D01*
X79854637Y-82905241D01*
X79654759Y-82705363D01*
X79419727Y-82548320D01*
X79158574Y-82440147D01*
X78881335Y-82385000D01*
X78598665Y-82385000D01*
X78321426Y-82440147D01*
X78060273Y-82548320D01*
X77825241Y-82705363D01*
X77625363Y-82905241D01*
X77468320Y-83140273D01*
X77360147Y-83401426D01*
X77305000Y-83678665D01*
X76368072Y-83678665D01*
X76368072Y-83020000D01*
X76355812Y-82895518D01*
X76319502Y-82775820D01*
X76260537Y-82665506D01*
X76181185Y-82568815D01*
X76084494Y-82489463D01*
X75974180Y-82430498D01*
X75854482Y-82394188D01*
X75730000Y-82381928D01*
X74130000Y-82381928D01*
X74005518Y-82394188D01*
X73885820Y-82430498D01*
X73775506Y-82489463D01*
X73678815Y-82568815D01*
X73599463Y-82665506D01*
X73540498Y-82775820D01*
X73504188Y-82895518D01*
X73491928Y-83020000D01*
X72319521Y-83020000D01*
X72318932Y-83018899D01*
X72139608Y-82800392D01*
X71921101Y-82621068D01*
X71671808Y-82487818D01*
X71401309Y-82405764D01*
X71190492Y-82385000D01*
X71049508Y-82385000D01*
X70838691Y-82405764D01*
X70568192Y-82487818D01*
X70318899Y-82621068D01*
X70100392Y-82800392D01*
X69921068Y-83018899D01*
X69787818Y-83268192D01*
X69705764Y-83538691D01*
X69678057Y-83820000D01*
X68636778Y-83820000D01*
X68611185Y-83788815D01*
X68514494Y-83709463D01*
X68404180Y-83650498D01*
X68284482Y-83614188D01*
X68160000Y-83601928D01*
X66460000Y-83601928D01*
X66335518Y-83614188D01*
X66215820Y-83650498D01*
X66105506Y-83709463D01*
X66008815Y-83788815D01*
X65929463Y-83885506D01*
X65870498Y-83995820D01*
X65834188Y-84115518D01*
X65821928Y-84240000D01*
X65430000Y-84240000D01*
X65430000Y-80010000D01*
X68408057Y-80010000D01*
X68435764Y-80291309D01*
X68517818Y-80561808D01*
X68651068Y-80811101D01*
X68830392Y-81029608D01*
X69048899Y-81208932D01*
X69298192Y-81342182D01*
X69568691Y-81424236D01*
X69779508Y-81445000D01*
X69920492Y-81445000D01*
X70131309Y-81424236D01*
X70401808Y-81342182D01*
X70651101Y-81208932D01*
X70869608Y-81029608D01*
X71048932Y-80811101D01*
X71182182Y-80561808D01*
X71264236Y-80291309D01*
X71291943Y-80010000D01*
X71278023Y-79868665D01*
X76035000Y-79868665D01*
X76035000Y-80151335D01*
X76090147Y-80428574D01*
X76198320Y-80689727D01*
X76355363Y-80924759D01*
X76555241Y-81124637D01*
X76790273Y-81281680D01*
X77051426Y-81389853D01*
X77328665Y-81445000D01*
X77611335Y-81445000D01*
X77888574Y-81389853D01*
X78149727Y-81281680D01*
X78384759Y-81124637D01*
X78584637Y-80924759D01*
X78741680Y-80689727D01*
X78849853Y-80428574D01*
X78905000Y-80151335D01*
X78905000Y-80010000D01*
X80708057Y-80010000D01*
X80735764Y-80291309D01*
X80817818Y-80561808D01*
X80951068Y-80811101D01*
X81130392Y-81029608D01*
X81348899Y-81208932D01*
X81481858Y-81280000D01*
X81348899Y-81351068D01*
X81130392Y-81530392D01*
X80951068Y-81748899D01*
X80817818Y-81998192D01*
X80735764Y-82268691D01*
X80708057Y-82550000D01*
X80735764Y-82831309D01*
X80817818Y-83101808D01*
X80951068Y-83351101D01*
X81130392Y-83569608D01*
X81348899Y-83748932D01*
X81481858Y-83820000D01*
X81348899Y-83891068D01*
X81130392Y-84070392D01*
X80951068Y-84288899D01*
X80817818Y-84538192D01*
X80735764Y-84808691D01*
X80708057Y-85090000D01*
X80735764Y-85371309D01*
X80817818Y-85641808D01*
X80951068Y-85891101D01*
X81130392Y-86109608D01*
X81348899Y-86288932D01*
X81481858Y-86360000D01*
X81348899Y-86431068D01*
X81130392Y-86610392D01*
X80951068Y-86828899D01*
X80817818Y-87078192D01*
X80735764Y-87348691D01*
X80708057Y-87630000D01*
X80735764Y-87911309D01*
X80817818Y-88181808D01*
X80951068Y-88431101D01*
X81130392Y-88649608D01*
X81348899Y-88828932D01*
X81481858Y-88900000D01*
X81348899Y-88971068D01*
X81130392Y-89150392D01*
X80951068Y-89368899D01*
X80817818Y-89618192D01*
X80735764Y-89888691D01*
X80708057Y-90170000D01*
X80735764Y-90451309D01*
X80817818Y-90721808D01*
X80951068Y-90971101D01*
X81130392Y-91189608D01*
X81348899Y-91368932D01*
X81481858Y-91440000D01*
X81348899Y-91511068D01*
X81130392Y-91690392D01*
X80951068Y-91908899D01*
X80817818Y-92158192D01*
X80735764Y-92428691D01*
X80708057Y-92710000D01*
X80735764Y-92991309D01*
X80817818Y-93261808D01*
X80951068Y-93511101D01*
X81130392Y-93729608D01*
X81348899Y-93908932D01*
X81598192Y-94042182D01*
X81868691Y-94124236D01*
X82079508Y-94145000D01*
X83020492Y-94145000D01*
X83231309Y-94124236D01*
X83501808Y-94042182D01*
X83751101Y-93908932D01*
X83969608Y-93729608D01*
X84148932Y-93511101D01*
X84282182Y-93261808D01*
X84364236Y-92991309D01*
X84391943Y-92710000D01*
X84364236Y-92428691D01*
X84282182Y-92158192D01*
X84148932Y-91908899D01*
X83969608Y-91690392D01*
X83751101Y-91511068D01*
X83618142Y-91440000D01*
X83751101Y-91368932D01*
X83969608Y-91189608D01*
X84148932Y-90971101D01*
X84282182Y-90721808D01*
X84364236Y-90451309D01*
X84391943Y-90170000D01*
X84364236Y-89888691D01*
X84282182Y-89618192D01*
X84148932Y-89368899D01*
X83969608Y-89150392D01*
X83751101Y-88971068D01*
X83618142Y-88900000D01*
X83751101Y-88828932D01*
X83969608Y-88649608D01*
X84148932Y-88431101D01*
X84282182Y-88181808D01*
X84364236Y-87911309D01*
X84391943Y-87630000D01*
X84364236Y-87348691D01*
X84282182Y-87078192D01*
X84148932Y-86828899D01*
X83969608Y-86610392D01*
X83751101Y-86431068D01*
X83618142Y-86360000D01*
X83751101Y-86288932D01*
X83969608Y-86109608D01*
X84148932Y-85891101D01*
X84282182Y-85641808D01*
X84364236Y-85371309D01*
X84391943Y-85090000D01*
X84364236Y-84808691D01*
X84282182Y-84538192D01*
X84148932Y-84288899D01*
X83969608Y-84070392D01*
X83751101Y-83891068D01*
X83618142Y-83820000D01*
X83751101Y-83748932D01*
X83969608Y-83569608D01*
X84148932Y-83351101D01*
X84282182Y-83101808D01*
X84364236Y-82831309D01*
X84391943Y-82550000D01*
X84364236Y-82268691D01*
X84282182Y-81998192D01*
X84148932Y-81748899D01*
X83969608Y-81530392D01*
X83751101Y-81351068D01*
X83618142Y-81280000D01*
X83751101Y-81208932D01*
X83969608Y-81029608D01*
X84148932Y-80811101D01*
X84282182Y-80561808D01*
X84364236Y-80291309D01*
X84391943Y-80010000D01*
X84364236Y-79728691D01*
X84282182Y-79458192D01*
X84148932Y-79208899D01*
X83969608Y-78990392D01*
X83751101Y-78811068D01*
X83623259Y-78742735D01*
X83852839Y-78592601D01*
X84054500Y-78394895D01*
X84213715Y-78161646D01*
X84324367Y-77901818D01*
X84341904Y-77819039D01*
X84219915Y-77597000D01*
X82677000Y-77597000D01*
X82677000Y-77617000D01*
X82423000Y-77617000D01*
X82423000Y-77597000D01*
X80880085Y-77597000D01*
X80758096Y-77819039D01*
X80775633Y-77901818D01*
X80886285Y-78161646D01*
X81045500Y-78394895D01*
X81247161Y-78592601D01*
X81476741Y-78742735D01*
X81348899Y-78811068D01*
X81130392Y-78990392D01*
X80951068Y-79208899D01*
X80817818Y-79458192D01*
X80735764Y-79728691D01*
X80708057Y-80010000D01*
X78905000Y-80010000D01*
X78905000Y-79868665D01*
X78849853Y-79591426D01*
X78741680Y-79330273D01*
X78584637Y-79095241D01*
X78384759Y-78895363D01*
X78149727Y-78738320D01*
X77888574Y-78630147D01*
X77611335Y-78575000D01*
X77328665Y-78575000D01*
X77051426Y-78630147D01*
X76790273Y-78738320D01*
X76555241Y-78895363D01*
X76355363Y-79095241D01*
X76198320Y-79330273D01*
X76090147Y-79591426D01*
X76035000Y-79868665D01*
X71278023Y-79868665D01*
X71264236Y-79728691D01*
X71182182Y-79458192D01*
X71048932Y-79208899D01*
X70869608Y-78990392D01*
X70651101Y-78811068D01*
X70401808Y-78677818D01*
X70131309Y-78595764D01*
X69920492Y-78575000D01*
X69779508Y-78575000D01*
X69568691Y-78595764D01*
X69298192Y-78677818D01*
X69048899Y-78811068D01*
X68830392Y-78990392D01*
X68651068Y-79208899D01*
X68517818Y-79458192D01*
X68435764Y-79728691D01*
X68408057Y-80010000D01*
X65430000Y-80010000D01*
X65430000Y-75690000D01*
X76031928Y-75690000D01*
X76044188Y-75814482D01*
X76080498Y-75934180D01*
X76139463Y-76044494D01*
X76218815Y-76141185D01*
X76315506Y-76220537D01*
X76425820Y-76279502D01*
X76545518Y-76315812D01*
X76670000Y-76328072D01*
X77184250Y-76325000D01*
X77343000Y-76166250D01*
X77343000Y-75017000D01*
X77597000Y-75017000D01*
X77597000Y-76166250D01*
X77755750Y-76325000D01*
X78270000Y-76328072D01*
X78394482Y-76315812D01*
X78514180Y-76279502D01*
X78624494Y-76220537D01*
X78721185Y-76141185D01*
X78800537Y-76044494D01*
X78859502Y-75934180D01*
X78895812Y-75814482D01*
X78908072Y-75690000D01*
X78905000Y-75175750D01*
X78746250Y-75017000D01*
X77597000Y-75017000D01*
X77343000Y-75017000D01*
X76193750Y-75017000D01*
X76035000Y-75175750D01*
X76031928Y-75690000D01*
X65430000Y-75690000D01*
X65430000Y-73518665D01*
X67185000Y-73518665D01*
X67185000Y-73801335D01*
X67240147Y-74078574D01*
X67348320Y-74339727D01*
X67505363Y-74574759D01*
X67705241Y-74774637D01*
X67940273Y-74931680D01*
X68201426Y-75039853D01*
X68478665Y-75095000D01*
X68761335Y-75095000D01*
X69038574Y-75039853D01*
X69299727Y-74931680D01*
X69534759Y-74774637D01*
X69701339Y-74608057D01*
X69730498Y-74704180D01*
X69789463Y-74814494D01*
X69868815Y-74911185D01*
X69965506Y-74990537D01*
X70075820Y-75049502D01*
X70195518Y-75085812D01*
X70320000Y-75098072D01*
X71920000Y-75098072D01*
X72044482Y-75085812D01*
X72164180Y-75049502D01*
X72274494Y-74990537D01*
X72348258Y-74930000D01*
X80708057Y-74930000D01*
X80735764Y-75211309D01*
X80817818Y-75481808D01*
X80951068Y-75731101D01*
X81130392Y-75949608D01*
X81348899Y-76128932D01*
X81476741Y-76197265D01*
X81247161Y-76347399D01*
X81045500Y-76545105D01*
X80886285Y-76778354D01*
X80775633Y-77038182D01*
X80758096Y-77120961D01*
X80880085Y-77343000D01*
X82423000Y-77343000D01*
X82423000Y-77323000D01*
X82677000Y-77323000D01*
X82677000Y-77343000D01*
X84219915Y-77343000D01*
X84341904Y-77120961D01*
X84324367Y-77038182D01*
X84213715Y-76778354D01*
X84054500Y-76545105D01*
X83852839Y-76347399D01*
X83623259Y-76197265D01*
X83751101Y-76128932D01*
X83969608Y-75949608D01*
X84148932Y-75731101D01*
X84282182Y-75481808D01*
X84364236Y-75211309D01*
X84391943Y-74930000D01*
X84364236Y-74648691D01*
X84282182Y-74378192D01*
X84148932Y-74128899D01*
X83969608Y-73910392D01*
X83856518Y-73817581D01*
X83874482Y-73815812D01*
X83994180Y-73779502D01*
X84104494Y-73720537D01*
X84201185Y-73641185D01*
X84280537Y-73544494D01*
X84339502Y-73434180D01*
X84375812Y-73314482D01*
X84388072Y-73190000D01*
X84388072Y-72390000D01*
X88328057Y-72390000D01*
X88355764Y-72671309D01*
X88437818Y-72941808D01*
X88571068Y-73191101D01*
X88750392Y-73409608D01*
X88968899Y-73588932D01*
X89101858Y-73660000D01*
X88968899Y-73731068D01*
X88750392Y-73910392D01*
X88571068Y-74128899D01*
X88437818Y-74378192D01*
X88355764Y-74648691D01*
X88328057Y-74930000D01*
X88355764Y-75211309D01*
X88437818Y-75481808D01*
X88571068Y-75731101D01*
X88750392Y-75949608D01*
X88968899Y-76128932D01*
X89101858Y-76200000D01*
X88968899Y-76271068D01*
X88750392Y-76450392D01*
X88571068Y-76668899D01*
X88437818Y-76918192D01*
X88355764Y-77188691D01*
X88328057Y-77470000D01*
X88355764Y-77751309D01*
X88437818Y-78021808D01*
X88571068Y-78271101D01*
X88750392Y-78489608D01*
X88968899Y-78668932D01*
X89101858Y-78740000D01*
X88968899Y-78811068D01*
X88750392Y-78990392D01*
X88571068Y-79208899D01*
X88437818Y-79458192D01*
X88355764Y-79728691D01*
X88328057Y-80010000D01*
X88355764Y-80291309D01*
X88437818Y-80561808D01*
X88571068Y-80811101D01*
X88750392Y-81029608D01*
X88968899Y-81208932D01*
X89101858Y-81280000D01*
X88968899Y-81351068D01*
X88750392Y-81530392D01*
X88571068Y-81748899D01*
X88437818Y-81998192D01*
X88355764Y-82268691D01*
X88328057Y-82550000D01*
X88355764Y-82831309D01*
X88437818Y-83101808D01*
X88571068Y-83351101D01*
X88750392Y-83569608D01*
X88968899Y-83748932D01*
X89101858Y-83820000D01*
X88968899Y-83891068D01*
X88750392Y-84070392D01*
X88571068Y-84288899D01*
X88437818Y-84538192D01*
X88355764Y-84808691D01*
X88328057Y-85090000D01*
X88355764Y-85371309D01*
X88437818Y-85641808D01*
X88571068Y-85891101D01*
X88750392Y-86109608D01*
X88968899Y-86288932D01*
X89101858Y-86360000D01*
X88968899Y-86431068D01*
X88750392Y-86610392D01*
X88571068Y-86828899D01*
X88437818Y-87078192D01*
X88355764Y-87348691D01*
X88328057Y-87630000D01*
X88355764Y-87911309D01*
X88437818Y-88181808D01*
X88571068Y-88431101D01*
X88750392Y-88649608D01*
X88968899Y-88828932D01*
X89101858Y-88900000D01*
X88968899Y-88971068D01*
X88750392Y-89150392D01*
X88571068Y-89368899D01*
X88437818Y-89618192D01*
X88355764Y-89888691D01*
X88328057Y-90170000D01*
X88355764Y-90451309D01*
X88437818Y-90721808D01*
X88571068Y-90971101D01*
X88750392Y-91189608D01*
X88968899Y-91368932D01*
X89101858Y-91440000D01*
X88968899Y-91511068D01*
X88750392Y-91690392D01*
X88571068Y-91908899D01*
X88437818Y-92158192D01*
X88355764Y-92428691D01*
X88328057Y-92710000D01*
X88355764Y-92991309D01*
X88437818Y-93261808D01*
X88571068Y-93511101D01*
X88750392Y-93729608D01*
X88968899Y-93908932D01*
X89218192Y-94042182D01*
X89488691Y-94124236D01*
X89699508Y-94145000D01*
X90640492Y-94145000D01*
X90851309Y-94124236D01*
X91121808Y-94042182D01*
X91371101Y-93908932D01*
X91589608Y-93729608D01*
X91768932Y-93511101D01*
X91902182Y-93261808D01*
X91984236Y-92991309D01*
X92011943Y-92710000D01*
X91984236Y-92428691D01*
X91902182Y-92158192D01*
X91768932Y-91908899D01*
X91589608Y-91690392D01*
X91371101Y-91511068D01*
X91238142Y-91440000D01*
X91371101Y-91368932D01*
X91589608Y-91189608D01*
X91768932Y-90971101D01*
X91902182Y-90721808D01*
X91984236Y-90451309D01*
X92011943Y-90170000D01*
X91984236Y-89888691D01*
X91902182Y-89618192D01*
X91768932Y-89368899D01*
X91589608Y-89150392D01*
X91371101Y-88971068D01*
X91238142Y-88900000D01*
X91371101Y-88828932D01*
X91589608Y-88649608D01*
X91768932Y-88431101D01*
X91902182Y-88181808D01*
X91984236Y-87911309D01*
X92011943Y-87630000D01*
X91984236Y-87348691D01*
X91902182Y-87078192D01*
X91768932Y-86828899D01*
X91589608Y-86610392D01*
X91371101Y-86431068D01*
X91238142Y-86360000D01*
X91371101Y-86288932D01*
X91589608Y-86109608D01*
X91768932Y-85891101D01*
X91902182Y-85641808D01*
X91984236Y-85371309D01*
X92011943Y-85090000D01*
X91984236Y-84808691D01*
X91902182Y-84538192D01*
X91768932Y-84288899D01*
X91589608Y-84070392D01*
X91371101Y-83891068D01*
X91238142Y-83820000D01*
X91371101Y-83748932D01*
X91589608Y-83569608D01*
X91768932Y-83351101D01*
X91902182Y-83101808D01*
X91984236Y-82831309D01*
X92011943Y-82550000D01*
X91984236Y-82268691D01*
X91902182Y-81998192D01*
X91768932Y-81748899D01*
X91589608Y-81530392D01*
X91371101Y-81351068D01*
X91238142Y-81280000D01*
X91371101Y-81208932D01*
X91589608Y-81029608D01*
X91768932Y-80811101D01*
X91902182Y-80561808D01*
X91984236Y-80291309D01*
X92011943Y-80010000D01*
X91984236Y-79728691D01*
X91902182Y-79458192D01*
X91768932Y-79208899D01*
X91589608Y-78990392D01*
X91371101Y-78811068D01*
X91238142Y-78740000D01*
X91371101Y-78668932D01*
X91589608Y-78489608D01*
X91768932Y-78271101D01*
X91902182Y-78021808D01*
X91984236Y-77751309D01*
X92011943Y-77470000D01*
X91984236Y-77188691D01*
X91902182Y-76918192D01*
X91768932Y-76668899D01*
X91589608Y-76450392D01*
X91371101Y-76271068D01*
X91238142Y-76200000D01*
X91371101Y-76128932D01*
X91589608Y-75949608D01*
X91768932Y-75731101D01*
X91902182Y-75481808D01*
X91984236Y-75211309D01*
X92011943Y-74930000D01*
X91984236Y-74648691D01*
X91902182Y-74378192D01*
X91768932Y-74128899D01*
X91589608Y-73910392D01*
X91371101Y-73731068D01*
X91238142Y-73660000D01*
X91371101Y-73588932D01*
X91589608Y-73409608D01*
X91768932Y-73191101D01*
X91902182Y-72941808D01*
X91984236Y-72671309D01*
X92011943Y-72390000D01*
X91984236Y-72108691D01*
X91902182Y-71838192D01*
X91768932Y-71588899D01*
X91589608Y-71370392D01*
X91371101Y-71191068D01*
X91121808Y-71057818D01*
X90851309Y-70975764D01*
X90640492Y-70955000D01*
X89699508Y-70955000D01*
X89488691Y-70975764D01*
X89218192Y-71057818D01*
X88968899Y-71191068D01*
X88750392Y-71370392D01*
X88571068Y-71588899D01*
X88437818Y-71838192D01*
X88355764Y-72108691D01*
X88328057Y-72390000D01*
X84388072Y-72390000D01*
X84388072Y-71590000D01*
X84375812Y-71465518D01*
X84339502Y-71345820D01*
X84280537Y-71235506D01*
X84201185Y-71138815D01*
X84104494Y-71059463D01*
X83994180Y-71000498D01*
X83874482Y-70964188D01*
X83750000Y-70951928D01*
X81350000Y-70951928D01*
X81225518Y-70964188D01*
X81105820Y-71000498D01*
X80995506Y-71059463D01*
X80898815Y-71138815D01*
X80819463Y-71235506D01*
X80760498Y-71345820D01*
X80724188Y-71465518D01*
X80711928Y-71590000D01*
X80711928Y-73190000D01*
X80724188Y-73314482D01*
X80760498Y-73434180D01*
X80819463Y-73544494D01*
X80898815Y-73641185D01*
X80995506Y-73720537D01*
X81105820Y-73779502D01*
X81225518Y-73815812D01*
X81243482Y-73817581D01*
X81130392Y-73910392D01*
X80951068Y-74128899D01*
X80817818Y-74378192D01*
X80735764Y-74648691D01*
X80708057Y-74930000D01*
X72348258Y-74930000D01*
X72371185Y-74911185D01*
X72450537Y-74814494D01*
X72509502Y-74704180D01*
X72545812Y-74584482D01*
X72558072Y-74460000D01*
X72558072Y-74090000D01*
X76031928Y-74090000D01*
X76035000Y-74604250D01*
X76193750Y-74763000D01*
X77343000Y-74763000D01*
X77343000Y-74743000D01*
X77597000Y-74743000D01*
X77597000Y-74763000D01*
X78746250Y-74763000D01*
X78905000Y-74604250D01*
X78908072Y-74090000D01*
X78895812Y-73965518D01*
X78859502Y-73845820D01*
X78800537Y-73735506D01*
X78721185Y-73638815D01*
X78624494Y-73559463D01*
X78514180Y-73500498D01*
X78418057Y-73471339D01*
X78584637Y-73304759D01*
X78741680Y-73069727D01*
X78849853Y-72808574D01*
X78905000Y-72531335D01*
X78905000Y-72248665D01*
X78849853Y-71971426D01*
X78741680Y-71710273D01*
X78584637Y-71475241D01*
X78384759Y-71275363D01*
X78149727Y-71118320D01*
X77888574Y-71010147D01*
X77611335Y-70955000D01*
X77328665Y-70955000D01*
X77051426Y-71010147D01*
X76790273Y-71118320D01*
X76555241Y-71275363D01*
X76355363Y-71475241D01*
X76198320Y-71710273D01*
X76090147Y-71971426D01*
X76035000Y-72248665D01*
X76035000Y-72531335D01*
X76090147Y-72808574D01*
X76198320Y-73069727D01*
X76355363Y-73304759D01*
X76521943Y-73471339D01*
X76425820Y-73500498D01*
X76315506Y-73559463D01*
X76218815Y-73638815D01*
X76139463Y-73735506D01*
X76080498Y-73845820D01*
X76044188Y-73965518D01*
X76031928Y-74090000D01*
X72558072Y-74090000D01*
X72558072Y-72860000D01*
X72545812Y-72735518D01*
X72509502Y-72615820D01*
X72450537Y-72505506D01*
X72371185Y-72408815D01*
X72274494Y-72329463D01*
X72164180Y-72270498D01*
X72044482Y-72234188D01*
X71920000Y-72221928D01*
X70320000Y-72221928D01*
X70195518Y-72234188D01*
X70075820Y-72270498D01*
X69965506Y-72329463D01*
X69868815Y-72408815D01*
X69789463Y-72505506D01*
X69730498Y-72615820D01*
X69701339Y-72711943D01*
X69534759Y-72545363D01*
X69299727Y-72388320D01*
X69038574Y-72280147D01*
X68761335Y-72225000D01*
X68478665Y-72225000D01*
X68201426Y-72280147D01*
X67940273Y-72388320D01*
X67705241Y-72545363D01*
X67505363Y-72745241D01*
X67348320Y-72980273D01*
X67240147Y-73241426D01*
X67185000Y-73518665D01*
X65430000Y-73518665D01*
X65430000Y-69875000D01*
X92544388Y-69875000D01*
X92490498Y-69975820D01*
M02*
