G04 #@! TF.GenerationSoftware,KiCad,Pcbnew,(5.1.4-0-10_14)*
G04 #@! TF.CreationDate,2019-08-30T09:08:26-07:00*
G04 #@! TF.ProjectId,VUMeter,56554d65-7465-4722-9e6b-696361645f70,rev?*
G04 #@! TF.SameCoordinates,Original*
G04 #@! TF.FileFunction,Copper,L1,Top*
G04 #@! TF.FilePolarity,Positive*
%FSLAX46Y46*%
G04 Gerber Fmt 4.6, Leading zero omitted, Abs format (unit mm)*
G04 Created by KiCad (PCBNEW (5.1.4-0-10_14)) date 2019-08-30 09:08:26*
%MOMM*%
%LPD*%
G04 APERTURE LIST*
%ADD10O,2.400000X1.600000*%
%ADD11R,2.400000X1.600000*%
%ADD12O,1.600000X1.600000*%
%ADD13C,1.600000*%
%ADD14O,1.700000X1.700000*%
%ADD15R,1.700000X1.700000*%
%ADD16R,1.600000X1.600000*%
%ADD17C,1.800000*%
%ADD18R,1.800000X1.800000*%
%ADD19C,0.508000*%
%ADD20C,0.254000*%
G04 APERTURE END LIST*
D10*
X90170000Y-72390000D03*
X82550000Y-92710000D03*
X90170000Y-74930000D03*
X82550000Y-90170000D03*
X90170000Y-77470000D03*
X82550000Y-87630000D03*
X90170000Y-80010000D03*
X82550000Y-85090000D03*
X90170000Y-82550000D03*
X82550000Y-82550000D03*
X90170000Y-85090000D03*
X82550000Y-80010000D03*
X90170000Y-87630000D03*
X82550000Y-77470000D03*
X90170000Y-90170000D03*
X82550000Y-74930000D03*
X90170000Y-92710000D03*
D11*
X82550000Y-72390000D03*
D12*
X90170000Y-96520000D03*
D13*
X82550000Y-96520000D03*
D12*
X69850000Y-80010000D03*
D13*
X77470000Y-80010000D03*
D12*
X78740000Y-91440000D03*
D13*
X78740000Y-83820000D03*
D14*
X67310000Y-92710000D03*
X67310000Y-90170000D03*
X67310000Y-87630000D03*
D15*
X67310000Y-85090000D03*
D12*
X71120000Y-83820000D03*
D16*
X71120000Y-91440000D03*
D17*
X96520000Y-96520000D03*
D18*
X93980000Y-96520000D03*
D12*
X74930000Y-91440000D03*
D16*
X74930000Y-83820000D03*
D17*
X96520000Y-93697776D03*
D18*
X93980000Y-93697776D03*
D17*
X96520000Y-90875554D03*
D18*
X93980000Y-90875554D03*
D17*
X96520000Y-88053332D03*
D18*
X93980000Y-88053332D03*
D17*
X96520000Y-85231110D03*
D18*
X93980000Y-85231110D03*
D17*
X96520000Y-82408888D03*
D18*
X93980000Y-82408888D03*
D17*
X96520000Y-79586666D03*
D18*
X93980000Y-79586666D03*
D17*
X96520000Y-76764444D03*
D18*
X93980000Y-76764444D03*
D17*
X96520000Y-73942222D03*
D18*
X93980000Y-73942222D03*
D17*
X96520000Y-71120000D03*
D18*
X93980000Y-71120000D03*
D13*
X68620000Y-73660000D03*
D16*
X71120000Y-73660000D03*
D13*
X76200000Y-97496000D03*
D16*
X76200000Y-94996000D03*
D13*
X77470000Y-72390000D03*
D16*
X77470000Y-74890000D03*
D19*
X74930000Y-97790000D02*
X76200000Y-97790000D01*
X67310000Y-90170000D02*
X74930000Y-97790000D01*
X76200000Y-92710000D02*
X74930000Y-91440000D01*
X76200000Y-95290000D02*
X76200000Y-92710000D01*
X74930000Y-91440000D02*
X71120000Y-91440000D01*
X76338630Y-80010000D02*
X77470000Y-80010000D01*
X76162000Y-80010000D02*
X76338630Y-80010000D01*
X71120000Y-74968000D02*
X76162000Y-80010000D01*
X71120000Y-73660000D02*
X71120000Y-74968000D01*
X80010000Y-82550000D02*
X77470000Y-80010000D01*
X82550000Y-82550000D02*
X80010000Y-82550000D01*
X74930000Y-82550000D02*
X77470000Y-80010000D01*
X74930000Y-83820000D02*
X74930000Y-82550000D01*
X92572000Y-71120000D02*
X93980000Y-71120000D01*
X85528000Y-71120000D02*
X92572000Y-71120000D01*
X84258000Y-72390000D02*
X85528000Y-71120000D01*
X82550000Y-72390000D02*
X84258000Y-72390000D01*
X92427778Y-72390000D02*
X93980000Y-73942222D01*
X90170000Y-72390000D02*
X92427778Y-72390000D01*
X92145556Y-74930000D02*
X93980000Y-76764444D01*
X90170000Y-74930000D02*
X92145556Y-74930000D01*
X91863334Y-77470000D02*
X93980000Y-79586666D01*
X90170000Y-77470000D02*
X91863334Y-77470000D01*
X91581112Y-80010000D02*
X93980000Y-82408888D01*
X90170000Y-80010000D02*
X91581112Y-80010000D01*
X91298890Y-82550000D02*
X93980000Y-85231110D01*
X90170000Y-82550000D02*
X91298890Y-82550000D01*
X91016668Y-85090000D02*
X93980000Y-88053332D01*
X90170000Y-85090000D02*
X91016668Y-85090000D01*
X93815554Y-90875554D02*
X93980000Y-90875554D01*
X90570000Y-87630000D02*
X93815554Y-90875554D01*
X90170000Y-87630000D02*
X90570000Y-87630000D01*
X93980000Y-93580000D02*
X93980000Y-93697776D01*
X90570000Y-90170000D02*
X93980000Y-93580000D01*
X90170000Y-90170000D02*
X90570000Y-90170000D01*
X90170000Y-92710000D02*
X93980000Y-96520000D01*
X80010000Y-90170000D02*
X78740000Y-91440000D01*
X82550000Y-90170000D02*
X80010000Y-90170000D01*
X78740000Y-92710000D02*
X82550000Y-96520000D01*
X78740000Y-91440000D02*
X78740000Y-92710000D01*
X81280000Y-83820000D02*
X82550000Y-85090000D01*
X78740000Y-83820000D02*
X81280000Y-83820000D01*
X82550000Y-85090000D02*
X82550000Y-87630000D01*
D20*
G36*
X92490498Y-69975820D02*
G01*
X92454188Y-70095518D01*
X92441928Y-70220000D01*
X92441928Y-70231000D01*
X85571659Y-70231000D01*
X85527999Y-70226700D01*
X85484339Y-70231000D01*
X85484333Y-70231000D01*
X85386924Y-70240594D01*
X85353724Y-70243864D01*
X85252058Y-70274704D01*
X85186149Y-70294697D01*
X85031709Y-70377247D01*
X84896341Y-70488341D01*
X84868506Y-70522259D01*
X84224067Y-71166697D01*
X84201185Y-71138815D01*
X84104494Y-71059463D01*
X83994180Y-71000498D01*
X83874482Y-70964188D01*
X83750000Y-70951928D01*
X81350000Y-70951928D01*
X81225518Y-70964188D01*
X81105820Y-71000498D01*
X80995506Y-71059463D01*
X80898815Y-71138815D01*
X80819463Y-71235506D01*
X80760498Y-71345820D01*
X80724188Y-71465518D01*
X80711928Y-71590000D01*
X80711928Y-73190000D01*
X80724188Y-73314482D01*
X80760498Y-73434180D01*
X80819463Y-73544494D01*
X80898815Y-73641185D01*
X80995506Y-73720537D01*
X81105820Y-73779502D01*
X81225518Y-73815812D01*
X81237387Y-73816981D01*
X81045500Y-74005105D01*
X80886285Y-74238354D01*
X80775633Y-74498182D01*
X80758096Y-74580961D01*
X80880085Y-74803000D01*
X82423000Y-74803000D01*
X82423000Y-74783000D01*
X82677000Y-74783000D01*
X82677000Y-74803000D01*
X84219915Y-74803000D01*
X84341904Y-74580961D01*
X84324367Y-74498182D01*
X84213715Y-74238354D01*
X84054500Y-74005105D01*
X83862613Y-73816981D01*
X83874482Y-73815812D01*
X83994180Y-73779502D01*
X84104494Y-73720537D01*
X84201185Y-73641185D01*
X84280537Y-73544494D01*
X84339502Y-73434180D01*
X84375812Y-73314482D01*
X84380067Y-73271278D01*
X84432274Y-73266136D01*
X84599851Y-73215303D01*
X84754291Y-73132753D01*
X84889659Y-73021659D01*
X84917499Y-72987736D01*
X85896236Y-72009000D01*
X88386005Y-72009000D01*
X88355764Y-72108691D01*
X88328057Y-72390000D01*
X88355764Y-72671309D01*
X88437818Y-72941808D01*
X88571068Y-73191101D01*
X88750392Y-73409608D01*
X88968899Y-73588932D01*
X89101858Y-73660000D01*
X88968899Y-73731068D01*
X88750392Y-73910392D01*
X88571068Y-74128899D01*
X88437818Y-74378192D01*
X88355764Y-74648691D01*
X88328057Y-74930000D01*
X88355764Y-75211309D01*
X88437818Y-75481808D01*
X88571068Y-75731101D01*
X88750392Y-75949608D01*
X88968899Y-76128932D01*
X89101858Y-76200000D01*
X88968899Y-76271068D01*
X88750392Y-76450392D01*
X88571068Y-76668899D01*
X88437818Y-76918192D01*
X88355764Y-77188691D01*
X88328057Y-77470000D01*
X88355764Y-77751309D01*
X88437818Y-78021808D01*
X88571068Y-78271101D01*
X88750392Y-78489608D01*
X88968899Y-78668932D01*
X89101858Y-78740000D01*
X88968899Y-78811068D01*
X88750392Y-78990392D01*
X88571068Y-79208899D01*
X88437818Y-79458192D01*
X88355764Y-79728691D01*
X88328057Y-80010000D01*
X88355764Y-80291309D01*
X88437818Y-80561808D01*
X88571068Y-80811101D01*
X88750392Y-81029608D01*
X88968899Y-81208932D01*
X89101858Y-81280000D01*
X88968899Y-81351068D01*
X88750392Y-81530392D01*
X88571068Y-81748899D01*
X88437818Y-81998192D01*
X88355764Y-82268691D01*
X88328057Y-82550000D01*
X88355764Y-82831309D01*
X88437818Y-83101808D01*
X88571068Y-83351101D01*
X88750392Y-83569608D01*
X88968899Y-83748932D01*
X89101858Y-83820000D01*
X88968899Y-83891068D01*
X88750392Y-84070392D01*
X88571068Y-84288899D01*
X88437818Y-84538192D01*
X88355764Y-84808691D01*
X88328057Y-85090000D01*
X88355764Y-85371309D01*
X88437818Y-85641808D01*
X88571068Y-85891101D01*
X88750392Y-86109608D01*
X88968899Y-86288932D01*
X89101858Y-86360000D01*
X88968899Y-86431068D01*
X88750392Y-86610392D01*
X88571068Y-86828899D01*
X88437818Y-87078192D01*
X88355764Y-87348691D01*
X88328057Y-87630000D01*
X88355764Y-87911309D01*
X88437818Y-88181808D01*
X88571068Y-88431101D01*
X88750392Y-88649608D01*
X88968899Y-88828932D01*
X89101858Y-88900000D01*
X88968899Y-88971068D01*
X88750392Y-89150392D01*
X88571068Y-89368899D01*
X88437818Y-89618192D01*
X88355764Y-89888691D01*
X88328057Y-90170000D01*
X88355764Y-90451309D01*
X88437818Y-90721808D01*
X88571068Y-90971101D01*
X88750392Y-91189608D01*
X88968899Y-91368932D01*
X89101858Y-91440000D01*
X88968899Y-91511068D01*
X88750392Y-91690392D01*
X88571068Y-91908899D01*
X88437818Y-92158192D01*
X88355764Y-92428691D01*
X88328057Y-92710000D01*
X88355764Y-92991309D01*
X88437818Y-93261808D01*
X88571068Y-93511101D01*
X88750392Y-93729608D01*
X88968899Y-93908932D01*
X89218192Y-94042182D01*
X89488691Y-94124236D01*
X89699508Y-94145000D01*
X90347765Y-94145000D01*
X92441928Y-96239164D01*
X92441928Y-97420000D01*
X92454188Y-97544482D01*
X92490498Y-97664180D01*
X92549463Y-97774494D01*
X92628815Y-97871185D01*
X92725506Y-97950537D01*
X92835820Y-98009502D01*
X92955518Y-98045812D01*
X93080000Y-98058072D01*
X94880000Y-98058072D01*
X95004482Y-98045812D01*
X95124180Y-98009502D01*
X95234494Y-97950537D01*
X95331185Y-97871185D01*
X95410537Y-97774494D01*
X95469502Y-97664180D01*
X95475056Y-97645873D01*
X95541495Y-97712312D01*
X95792905Y-97880299D01*
X96072257Y-97996011D01*
X96368816Y-98055000D01*
X96671184Y-98055000D01*
X96967743Y-97996011D01*
X97247095Y-97880299D01*
X97498505Y-97712312D01*
X97712312Y-97498505D01*
X97880299Y-97247095D01*
X97996011Y-96967743D01*
X98055000Y-96671184D01*
X98055000Y-96368816D01*
X97996011Y-96072257D01*
X97880299Y-95792905D01*
X97712312Y-95541495D01*
X97498505Y-95327688D01*
X97247095Y-95159701D01*
X97124422Y-95108888D01*
X97247095Y-95058075D01*
X97498505Y-94890088D01*
X97712312Y-94676281D01*
X97880299Y-94424871D01*
X97996011Y-94145519D01*
X98055000Y-93848960D01*
X98055000Y-93546592D01*
X97996011Y-93250033D01*
X97880299Y-92970681D01*
X97712312Y-92719271D01*
X97498505Y-92505464D01*
X97247095Y-92337477D01*
X97124425Y-92286665D01*
X97247095Y-92235853D01*
X97498505Y-92067866D01*
X97712312Y-91854059D01*
X97880299Y-91602649D01*
X97996011Y-91323297D01*
X98055000Y-91026738D01*
X98055000Y-90724370D01*
X97996011Y-90427811D01*
X97880299Y-90148459D01*
X97712312Y-89897049D01*
X97498505Y-89683242D01*
X97247095Y-89515255D01*
X97124425Y-89464443D01*
X97247095Y-89413631D01*
X97498505Y-89245644D01*
X97712312Y-89031837D01*
X97880299Y-88780427D01*
X97996011Y-88501075D01*
X98055000Y-88204516D01*
X98055000Y-87902148D01*
X97996011Y-87605589D01*
X97880299Y-87326237D01*
X97712312Y-87074827D01*
X97498505Y-86861020D01*
X97247095Y-86693033D01*
X97124425Y-86642221D01*
X97247095Y-86591409D01*
X97498505Y-86423422D01*
X97712312Y-86209615D01*
X97880299Y-85958205D01*
X97996011Y-85678853D01*
X98055000Y-85382294D01*
X98055000Y-85079926D01*
X97996011Y-84783367D01*
X97880299Y-84504015D01*
X97712312Y-84252605D01*
X97498505Y-84038798D01*
X97247095Y-83870811D01*
X97124425Y-83819999D01*
X97247095Y-83769187D01*
X97498505Y-83601200D01*
X97712312Y-83387393D01*
X97880299Y-83135983D01*
X97996011Y-82856631D01*
X98055000Y-82560072D01*
X98055000Y-82257704D01*
X97996011Y-81961145D01*
X97880299Y-81681793D01*
X97712312Y-81430383D01*
X97498505Y-81216576D01*
X97247095Y-81048589D01*
X97124425Y-80997777D01*
X97247095Y-80946965D01*
X97498505Y-80778978D01*
X97712312Y-80565171D01*
X97880299Y-80313761D01*
X97996011Y-80034409D01*
X98055000Y-79737850D01*
X98055000Y-79435482D01*
X97996011Y-79138923D01*
X97880299Y-78859571D01*
X97712312Y-78608161D01*
X97498505Y-78394354D01*
X97247095Y-78226367D01*
X97124425Y-78175555D01*
X97247095Y-78124743D01*
X97498505Y-77956756D01*
X97712312Y-77742949D01*
X97880299Y-77491539D01*
X97996011Y-77212187D01*
X98055000Y-76915628D01*
X98055000Y-76613260D01*
X97996011Y-76316701D01*
X97880299Y-76037349D01*
X97712312Y-75785939D01*
X97498505Y-75572132D01*
X97247095Y-75404145D01*
X97124425Y-75353333D01*
X97247095Y-75302521D01*
X97498505Y-75134534D01*
X97712312Y-74920727D01*
X97880299Y-74669317D01*
X97996011Y-74389965D01*
X98055000Y-74093406D01*
X98055000Y-73791038D01*
X97996011Y-73494479D01*
X97880299Y-73215127D01*
X97712312Y-72963717D01*
X97498505Y-72749910D01*
X97247095Y-72581923D01*
X97124425Y-72531111D01*
X97247095Y-72480299D01*
X97498505Y-72312312D01*
X97712312Y-72098505D01*
X97880299Y-71847095D01*
X97996011Y-71567743D01*
X98055000Y-71271184D01*
X98055000Y-70968816D01*
X97996011Y-70672257D01*
X97880299Y-70392905D01*
X97712312Y-70141495D01*
X97498505Y-69927688D01*
X97419652Y-69875000D01*
X98400000Y-69875000D01*
X98400001Y-99035000D01*
X65430000Y-99035000D01*
X65430000Y-93066890D01*
X65868524Y-93066890D01*
X65913175Y-93214099D01*
X66038359Y-93476920D01*
X66212412Y-93710269D01*
X66428645Y-93905178D01*
X66678748Y-94054157D01*
X66953109Y-94151481D01*
X67183000Y-94030814D01*
X67183000Y-92837000D01*
X65989845Y-92837000D01*
X65868524Y-93066890D01*
X65430000Y-93066890D01*
X65430000Y-87630000D01*
X65817815Y-87630000D01*
X65846487Y-87921111D01*
X65931401Y-88201034D01*
X66069294Y-88459014D01*
X66254866Y-88685134D01*
X66480986Y-88870706D01*
X66535791Y-88900000D01*
X66480986Y-88929294D01*
X66254866Y-89114866D01*
X66069294Y-89340986D01*
X65931401Y-89598966D01*
X65846487Y-89878889D01*
X65817815Y-90170000D01*
X65846487Y-90461111D01*
X65931401Y-90741034D01*
X66069294Y-90999014D01*
X66254866Y-91225134D01*
X66480986Y-91410706D01*
X66545523Y-91445201D01*
X66428645Y-91514822D01*
X66212412Y-91709731D01*
X66038359Y-91943080D01*
X65913175Y-92205901D01*
X65868524Y-92353110D01*
X65989845Y-92583000D01*
X67183000Y-92583000D01*
X67183000Y-92563000D01*
X67437000Y-92563000D01*
X67437000Y-92583000D01*
X67457000Y-92583000D01*
X67457000Y-92837000D01*
X67437000Y-92837000D01*
X67437000Y-94030814D01*
X67666891Y-94151481D01*
X67941252Y-94054157D01*
X68191355Y-93905178D01*
X68407588Y-93710269D01*
X68581641Y-93476920D01*
X68706825Y-93214099D01*
X68751476Y-93066890D01*
X68630156Y-92837002D01*
X68719767Y-92837002D01*
X74270501Y-98387736D01*
X74298341Y-98421659D01*
X74433709Y-98532753D01*
X74588149Y-98615303D01*
X74654058Y-98635296D01*
X74755724Y-98666136D01*
X74788924Y-98669406D01*
X74886333Y-98679000D01*
X74886339Y-98679000D01*
X74929999Y-98683300D01*
X74973659Y-98679000D01*
X75387554Y-98679000D01*
X75520273Y-98767680D01*
X75781426Y-98875853D01*
X76058665Y-98931000D01*
X76341335Y-98931000D01*
X76618574Y-98875853D01*
X76879727Y-98767680D01*
X77114759Y-98610637D01*
X77314637Y-98410759D01*
X77471680Y-98175727D01*
X77579853Y-97914574D01*
X77635000Y-97637335D01*
X77635000Y-97354665D01*
X77579853Y-97077426D01*
X77471680Y-96816273D01*
X77314637Y-96581241D01*
X77148057Y-96414661D01*
X77244180Y-96385502D01*
X77354494Y-96326537D01*
X77451185Y-96247185D01*
X77530537Y-96150494D01*
X77589502Y-96040180D01*
X77625812Y-95920482D01*
X77638072Y-95796000D01*
X77638072Y-94196000D01*
X77625812Y-94071518D01*
X77589502Y-93951820D01*
X77530537Y-93841506D01*
X77451185Y-93744815D01*
X77354494Y-93665463D01*
X77244180Y-93606498D01*
X77124482Y-93570188D01*
X77089000Y-93566693D01*
X77089000Y-92753659D01*
X77093300Y-92709999D01*
X77089000Y-92666339D01*
X77089000Y-92666333D01*
X77076136Y-92535726D01*
X77076136Y-92535724D01*
X77025302Y-92368147D01*
X76992132Y-92306091D01*
X76942753Y-92213709D01*
X76831659Y-92078341D01*
X76797741Y-92050505D01*
X76355382Y-91608146D01*
X76371943Y-91440000D01*
X76344236Y-91158691D01*
X76262182Y-90888192D01*
X76128932Y-90638899D01*
X75949608Y-90420392D01*
X75731101Y-90241068D01*
X75481808Y-90107818D01*
X75211309Y-90025764D01*
X75000492Y-90005000D01*
X74859508Y-90005000D01*
X74648691Y-90025764D01*
X74378192Y-90107818D01*
X74128899Y-90241068D01*
X73910392Y-90420392D01*
X73803205Y-90551000D01*
X72549307Y-90551000D01*
X72545812Y-90515518D01*
X72509502Y-90395820D01*
X72450537Y-90285506D01*
X72371185Y-90188815D01*
X72274494Y-90109463D01*
X72164180Y-90050498D01*
X72044482Y-90014188D01*
X71920000Y-90001928D01*
X70320000Y-90001928D01*
X70195518Y-90014188D01*
X70075820Y-90050498D01*
X69965506Y-90109463D01*
X69868815Y-90188815D01*
X69789463Y-90285506D01*
X69730498Y-90395820D01*
X69694188Y-90515518D01*
X69681928Y-90640000D01*
X69681928Y-91284693D01*
X68781119Y-90383884D01*
X68802185Y-90170000D01*
X68773513Y-89878889D01*
X68688599Y-89598966D01*
X68550706Y-89340986D01*
X68365134Y-89114866D01*
X68139014Y-88929294D01*
X68084209Y-88900000D01*
X68139014Y-88870706D01*
X68365134Y-88685134D01*
X68550706Y-88459014D01*
X68688599Y-88201034D01*
X68773513Y-87921111D01*
X68802185Y-87630000D01*
X68773513Y-87338889D01*
X68688599Y-87058966D01*
X68550706Y-86800986D01*
X68365134Y-86574866D01*
X68335313Y-86550393D01*
X68404180Y-86529502D01*
X68514494Y-86470537D01*
X68611185Y-86391185D01*
X68690537Y-86294494D01*
X68749502Y-86184180D01*
X68785812Y-86064482D01*
X68798072Y-85940000D01*
X68795000Y-85375750D01*
X68636250Y-85217000D01*
X67437000Y-85217000D01*
X67437000Y-85237000D01*
X67183000Y-85237000D01*
X67183000Y-85217000D01*
X65983750Y-85217000D01*
X65825000Y-85375750D01*
X65821928Y-85940000D01*
X65834188Y-86064482D01*
X65870498Y-86184180D01*
X65929463Y-86294494D01*
X66008815Y-86391185D01*
X66105506Y-86470537D01*
X66215820Y-86529502D01*
X66284687Y-86550393D01*
X66254866Y-86574866D01*
X66069294Y-86800986D01*
X65931401Y-87058966D01*
X65846487Y-87338889D01*
X65817815Y-87630000D01*
X65430000Y-87630000D01*
X65430000Y-84240000D01*
X65821928Y-84240000D01*
X65825000Y-84804250D01*
X65983750Y-84963000D01*
X67183000Y-84963000D01*
X67183000Y-83763750D01*
X67437000Y-83763750D01*
X67437000Y-84963000D01*
X68636250Y-84963000D01*
X68795000Y-84804250D01*
X68798072Y-84240000D01*
X68791084Y-84169040D01*
X69728091Y-84169040D01*
X69822930Y-84433881D01*
X69967615Y-84675131D01*
X70156586Y-84883519D01*
X70382580Y-85051037D01*
X70636913Y-85171246D01*
X70770961Y-85211904D01*
X70993000Y-85089915D01*
X70993000Y-83947000D01*
X71247000Y-83947000D01*
X71247000Y-85089915D01*
X71469039Y-85211904D01*
X71603087Y-85171246D01*
X71857420Y-85051037D01*
X72083414Y-84883519D01*
X72272385Y-84675131D01*
X72417070Y-84433881D01*
X72511909Y-84169040D01*
X72390624Y-83947000D01*
X71247000Y-83947000D01*
X70993000Y-83947000D01*
X69849376Y-83947000D01*
X69728091Y-84169040D01*
X68791084Y-84169040D01*
X68785812Y-84115518D01*
X68749502Y-83995820D01*
X68690537Y-83885506D01*
X68611185Y-83788815D01*
X68514494Y-83709463D01*
X68404180Y-83650498D01*
X68284482Y-83614188D01*
X68160000Y-83601928D01*
X67595750Y-83605000D01*
X67437000Y-83763750D01*
X67183000Y-83763750D01*
X67024250Y-83605000D01*
X66460000Y-83601928D01*
X66335518Y-83614188D01*
X66215820Y-83650498D01*
X66105506Y-83709463D01*
X66008815Y-83788815D01*
X65929463Y-83885506D01*
X65870498Y-83995820D01*
X65834188Y-84115518D01*
X65821928Y-84240000D01*
X65430000Y-84240000D01*
X65430000Y-83470960D01*
X69728091Y-83470960D01*
X69849376Y-83693000D01*
X70993000Y-83693000D01*
X70993000Y-82550085D01*
X71247000Y-82550085D01*
X71247000Y-83693000D01*
X72390624Y-83693000D01*
X72511909Y-83470960D01*
X72417070Y-83206119D01*
X72272385Y-82964869D01*
X72083414Y-82756481D01*
X71857420Y-82588963D01*
X71603087Y-82468754D01*
X71469039Y-82428096D01*
X71247000Y-82550085D01*
X70993000Y-82550085D01*
X70770961Y-82428096D01*
X70636913Y-82468754D01*
X70382580Y-82588963D01*
X70156586Y-82756481D01*
X69967615Y-82964869D01*
X69822930Y-83206119D01*
X69728091Y-83470960D01*
X65430000Y-83470960D01*
X65430000Y-80359039D01*
X68458096Y-80359039D01*
X68498754Y-80493087D01*
X68618963Y-80747420D01*
X68786481Y-80973414D01*
X68994869Y-81162385D01*
X69236119Y-81307070D01*
X69500960Y-81401909D01*
X69723000Y-81280624D01*
X69723000Y-80137000D01*
X69977000Y-80137000D01*
X69977000Y-81280624D01*
X70199040Y-81401909D01*
X70463881Y-81307070D01*
X70705131Y-81162385D01*
X70913519Y-80973414D01*
X71081037Y-80747420D01*
X71201246Y-80493087D01*
X71241904Y-80359039D01*
X71119915Y-80137000D01*
X69977000Y-80137000D01*
X69723000Y-80137000D01*
X68580085Y-80137000D01*
X68458096Y-80359039D01*
X65430000Y-80359039D01*
X65430000Y-79660961D01*
X68458096Y-79660961D01*
X68580085Y-79883000D01*
X69723000Y-79883000D01*
X69723000Y-78739376D01*
X69977000Y-78739376D01*
X69977000Y-79883000D01*
X71119915Y-79883000D01*
X71241904Y-79660961D01*
X71201246Y-79526913D01*
X71081037Y-79272580D01*
X70913519Y-79046586D01*
X70705131Y-78857615D01*
X70463881Y-78712930D01*
X70199040Y-78618091D01*
X69977000Y-78739376D01*
X69723000Y-78739376D01*
X69500960Y-78618091D01*
X69236119Y-78712930D01*
X68994869Y-78857615D01*
X68786481Y-79046586D01*
X68618963Y-79272580D01*
X68498754Y-79526913D01*
X68458096Y-79660961D01*
X65430000Y-79660961D01*
X65430000Y-74652702D01*
X67806903Y-74652702D01*
X67878486Y-74896671D01*
X68133996Y-75017571D01*
X68408184Y-75086300D01*
X68690512Y-75100217D01*
X68970130Y-75058787D01*
X69236292Y-74963603D01*
X69361514Y-74896671D01*
X69433097Y-74652702D01*
X68620000Y-73839605D01*
X67806903Y-74652702D01*
X65430000Y-74652702D01*
X65430000Y-73730512D01*
X67179783Y-73730512D01*
X67221213Y-74010130D01*
X67316397Y-74276292D01*
X67383329Y-74401514D01*
X67627298Y-74473097D01*
X68440395Y-73660000D01*
X68799605Y-73660000D01*
X69612702Y-74473097D01*
X69681928Y-74452785D01*
X69681928Y-74460000D01*
X69694188Y-74584482D01*
X69730498Y-74704180D01*
X69789463Y-74814494D01*
X69868815Y-74911185D01*
X69965506Y-74990537D01*
X70075820Y-75049502D01*
X70195518Y-75085812D01*
X70238722Y-75090067D01*
X70243864Y-75142274D01*
X70294698Y-75309852D01*
X70377248Y-75464291D01*
X70488342Y-75599659D01*
X70522259Y-75627494D01*
X75502504Y-80607740D01*
X75530341Y-80641659D01*
X75558223Y-80664541D01*
X74332260Y-81890505D01*
X74298342Y-81918341D01*
X74270507Y-81952258D01*
X74270505Y-81952260D01*
X74187248Y-82053709D01*
X74104698Y-82208148D01*
X74053864Y-82375726D01*
X74052501Y-82389561D01*
X74005518Y-82394188D01*
X73885820Y-82430498D01*
X73775506Y-82489463D01*
X73678815Y-82568815D01*
X73599463Y-82665506D01*
X73540498Y-82775820D01*
X73504188Y-82895518D01*
X73491928Y-83020000D01*
X73491928Y-84620000D01*
X73504188Y-84744482D01*
X73540498Y-84864180D01*
X73599463Y-84974494D01*
X73678815Y-85071185D01*
X73775506Y-85150537D01*
X73885820Y-85209502D01*
X74005518Y-85245812D01*
X74130000Y-85258072D01*
X75730000Y-85258072D01*
X75854482Y-85245812D01*
X75974180Y-85209502D01*
X76084494Y-85150537D01*
X76181185Y-85071185D01*
X76260537Y-84974494D01*
X76319502Y-84864180D01*
X76355812Y-84744482D01*
X76368072Y-84620000D01*
X76368072Y-83020000D01*
X76355812Y-82895518D01*
X76319502Y-82775820D01*
X76260537Y-82665506D01*
X76181185Y-82568815D01*
X76174174Y-82563061D01*
X77298280Y-81438956D01*
X77328665Y-81445000D01*
X77611335Y-81445000D01*
X77641721Y-81438956D01*
X78589573Y-82386809D01*
X78321426Y-82440147D01*
X78060273Y-82548320D01*
X77825241Y-82705363D01*
X77625363Y-82905241D01*
X77468320Y-83140273D01*
X77360147Y-83401426D01*
X77305000Y-83678665D01*
X77305000Y-83961335D01*
X77360147Y-84238574D01*
X77468320Y-84499727D01*
X77625363Y-84734759D01*
X77825241Y-84934637D01*
X78060273Y-85091680D01*
X78321426Y-85199853D01*
X78598665Y-85255000D01*
X78881335Y-85255000D01*
X79158574Y-85199853D01*
X79419727Y-85091680D01*
X79654759Y-84934637D01*
X79854637Y-84734759D01*
X79871849Y-84709000D01*
X80766005Y-84709000D01*
X80735764Y-84808691D01*
X80708057Y-85090000D01*
X80735764Y-85371309D01*
X80817818Y-85641808D01*
X80951068Y-85891101D01*
X81130392Y-86109608D01*
X81348899Y-86288932D01*
X81481858Y-86360000D01*
X81348899Y-86431068D01*
X81130392Y-86610392D01*
X80951068Y-86828899D01*
X80817818Y-87078192D01*
X80735764Y-87348691D01*
X80708057Y-87630000D01*
X80735764Y-87911309D01*
X80817818Y-88181808D01*
X80951068Y-88431101D01*
X81130392Y-88649608D01*
X81348899Y-88828932D01*
X81481858Y-88900000D01*
X81348899Y-88971068D01*
X81130392Y-89150392D01*
X81023205Y-89281000D01*
X80053659Y-89281000D01*
X80009999Y-89276700D01*
X79966339Y-89281000D01*
X79966333Y-89281000D01*
X79868924Y-89290594D01*
X79835724Y-89293864D01*
X79734058Y-89324704D01*
X79668149Y-89344697D01*
X79513709Y-89427247D01*
X79378341Y-89538341D01*
X79350506Y-89572259D01*
X78908146Y-90014618D01*
X78810492Y-90005000D01*
X78669508Y-90005000D01*
X78458691Y-90025764D01*
X78188192Y-90107818D01*
X77938899Y-90241068D01*
X77720392Y-90420392D01*
X77541068Y-90638899D01*
X77407818Y-90888192D01*
X77325764Y-91158691D01*
X77298057Y-91440000D01*
X77325764Y-91721309D01*
X77407818Y-91991808D01*
X77541068Y-92241101D01*
X77720392Y-92459608D01*
X77851001Y-92566796D01*
X77851001Y-92666331D01*
X77846700Y-92710000D01*
X77863864Y-92884274D01*
X77914698Y-93051852D01*
X77931726Y-93083708D01*
X77997248Y-93206291D01*
X78108342Y-93341659D01*
X78142259Y-93369494D01*
X81121044Y-96348280D01*
X81115000Y-96378665D01*
X81115000Y-96661335D01*
X81170147Y-96938574D01*
X81278320Y-97199727D01*
X81435363Y-97434759D01*
X81635241Y-97634637D01*
X81870273Y-97791680D01*
X82131426Y-97899853D01*
X82408665Y-97955000D01*
X82691335Y-97955000D01*
X82968574Y-97899853D01*
X83229727Y-97791680D01*
X83464759Y-97634637D01*
X83664637Y-97434759D01*
X83821680Y-97199727D01*
X83929853Y-96938574D01*
X83943684Y-96869039D01*
X88778096Y-96869039D01*
X88818754Y-97003087D01*
X88938963Y-97257420D01*
X89106481Y-97483414D01*
X89314869Y-97672385D01*
X89556119Y-97817070D01*
X89820960Y-97911909D01*
X90043000Y-97790624D01*
X90043000Y-96647000D01*
X90297000Y-96647000D01*
X90297000Y-97790624D01*
X90519040Y-97911909D01*
X90783881Y-97817070D01*
X91025131Y-97672385D01*
X91233519Y-97483414D01*
X91401037Y-97257420D01*
X91521246Y-97003087D01*
X91561904Y-96869039D01*
X91439915Y-96647000D01*
X90297000Y-96647000D01*
X90043000Y-96647000D01*
X88900085Y-96647000D01*
X88778096Y-96869039D01*
X83943684Y-96869039D01*
X83985000Y-96661335D01*
X83985000Y-96378665D01*
X83943685Y-96170961D01*
X88778096Y-96170961D01*
X88900085Y-96393000D01*
X90043000Y-96393000D01*
X90043000Y-95249376D01*
X90297000Y-95249376D01*
X90297000Y-96393000D01*
X91439915Y-96393000D01*
X91561904Y-96170961D01*
X91521246Y-96036913D01*
X91401037Y-95782580D01*
X91233519Y-95556586D01*
X91025131Y-95367615D01*
X90783881Y-95222930D01*
X90519040Y-95128091D01*
X90297000Y-95249376D01*
X90043000Y-95249376D01*
X89820960Y-95128091D01*
X89556119Y-95222930D01*
X89314869Y-95367615D01*
X89106481Y-95556586D01*
X88938963Y-95782580D01*
X88818754Y-96036913D01*
X88778096Y-96170961D01*
X83943685Y-96170961D01*
X83929853Y-96101426D01*
X83821680Y-95840273D01*
X83664637Y-95605241D01*
X83464759Y-95405363D01*
X83229727Y-95248320D01*
X82968574Y-95140147D01*
X82691335Y-95085000D01*
X82408665Y-95085000D01*
X82378280Y-95091044D01*
X79752597Y-92465362D01*
X79759608Y-92459608D01*
X79938932Y-92241101D01*
X80072182Y-91991808D01*
X80154236Y-91721309D01*
X80181943Y-91440000D01*
X80165382Y-91271854D01*
X80378236Y-91059000D01*
X81023205Y-91059000D01*
X81130392Y-91189608D01*
X81348899Y-91368932D01*
X81481858Y-91440000D01*
X81348899Y-91511068D01*
X81130392Y-91690392D01*
X80951068Y-91908899D01*
X80817818Y-92158192D01*
X80735764Y-92428691D01*
X80708057Y-92710000D01*
X80735764Y-92991309D01*
X80817818Y-93261808D01*
X80951068Y-93511101D01*
X81130392Y-93729608D01*
X81348899Y-93908932D01*
X81598192Y-94042182D01*
X81868691Y-94124236D01*
X82079508Y-94145000D01*
X83020492Y-94145000D01*
X83231309Y-94124236D01*
X83501808Y-94042182D01*
X83751101Y-93908932D01*
X83969608Y-93729608D01*
X84148932Y-93511101D01*
X84282182Y-93261808D01*
X84364236Y-92991309D01*
X84391943Y-92710000D01*
X84364236Y-92428691D01*
X84282182Y-92158192D01*
X84148932Y-91908899D01*
X83969608Y-91690392D01*
X83751101Y-91511068D01*
X83618142Y-91440000D01*
X83751101Y-91368932D01*
X83969608Y-91189608D01*
X84148932Y-90971101D01*
X84282182Y-90721808D01*
X84364236Y-90451309D01*
X84391943Y-90170000D01*
X84364236Y-89888691D01*
X84282182Y-89618192D01*
X84148932Y-89368899D01*
X83969608Y-89150392D01*
X83751101Y-88971068D01*
X83618142Y-88900000D01*
X83751101Y-88828932D01*
X83969608Y-88649608D01*
X84148932Y-88431101D01*
X84282182Y-88181808D01*
X84364236Y-87911309D01*
X84391943Y-87630000D01*
X84364236Y-87348691D01*
X84282182Y-87078192D01*
X84148932Y-86828899D01*
X83969608Y-86610392D01*
X83751101Y-86431068D01*
X83618142Y-86360000D01*
X83751101Y-86288932D01*
X83969608Y-86109608D01*
X84148932Y-85891101D01*
X84282182Y-85641808D01*
X84364236Y-85371309D01*
X84391943Y-85090000D01*
X84364236Y-84808691D01*
X84282182Y-84538192D01*
X84148932Y-84288899D01*
X83969608Y-84070392D01*
X83751101Y-83891068D01*
X83618142Y-83820000D01*
X83751101Y-83748932D01*
X83969608Y-83569608D01*
X84148932Y-83351101D01*
X84282182Y-83101808D01*
X84364236Y-82831309D01*
X84391943Y-82550000D01*
X84364236Y-82268691D01*
X84282182Y-81998192D01*
X84148932Y-81748899D01*
X83969608Y-81530392D01*
X83751101Y-81351068D01*
X83623259Y-81282735D01*
X83852839Y-81132601D01*
X84054500Y-80934895D01*
X84213715Y-80701646D01*
X84324367Y-80441818D01*
X84341904Y-80359039D01*
X84219915Y-80137000D01*
X82677000Y-80137000D01*
X82677000Y-80157000D01*
X82423000Y-80157000D01*
X82423000Y-80137000D01*
X80880085Y-80137000D01*
X80758096Y-80359039D01*
X80775633Y-80441818D01*
X80886285Y-80701646D01*
X81045500Y-80934895D01*
X81247161Y-81132601D01*
X81476741Y-81282735D01*
X81348899Y-81351068D01*
X81130392Y-81530392D01*
X81023205Y-81661000D01*
X80378236Y-81661000D01*
X78898956Y-80181721D01*
X78905000Y-80151335D01*
X78905000Y-79868665D01*
X78849853Y-79591426D01*
X78741680Y-79330273D01*
X78584637Y-79095241D01*
X78384759Y-78895363D01*
X78149727Y-78738320D01*
X77888574Y-78630147D01*
X77611335Y-78575000D01*
X77328665Y-78575000D01*
X77051426Y-78630147D01*
X76790273Y-78738320D01*
X76555241Y-78895363D01*
X76429920Y-79020684D01*
X74879236Y-77470000D01*
X80708057Y-77470000D01*
X80735764Y-77751309D01*
X80817818Y-78021808D01*
X80951068Y-78271101D01*
X81130392Y-78489608D01*
X81348899Y-78668932D01*
X81476741Y-78737265D01*
X81247161Y-78887399D01*
X81045500Y-79085105D01*
X80886285Y-79318354D01*
X80775633Y-79578182D01*
X80758096Y-79660961D01*
X80880085Y-79883000D01*
X82423000Y-79883000D01*
X82423000Y-79863000D01*
X82677000Y-79863000D01*
X82677000Y-79883000D01*
X84219915Y-79883000D01*
X84341904Y-79660961D01*
X84324367Y-79578182D01*
X84213715Y-79318354D01*
X84054500Y-79085105D01*
X83852839Y-78887399D01*
X83623259Y-78737265D01*
X83751101Y-78668932D01*
X83969608Y-78489608D01*
X84148932Y-78271101D01*
X84282182Y-78021808D01*
X84364236Y-77751309D01*
X84391943Y-77470000D01*
X84364236Y-77188691D01*
X84282182Y-76918192D01*
X84148932Y-76668899D01*
X83969608Y-76450392D01*
X83751101Y-76271068D01*
X83623259Y-76202735D01*
X83852839Y-76052601D01*
X84054500Y-75854895D01*
X84213715Y-75621646D01*
X84324367Y-75361818D01*
X84341904Y-75279039D01*
X84219915Y-75057000D01*
X82677000Y-75057000D01*
X82677000Y-75077000D01*
X82423000Y-75077000D01*
X82423000Y-75057000D01*
X80880085Y-75057000D01*
X80758096Y-75279039D01*
X80775633Y-75361818D01*
X80886285Y-75621646D01*
X81045500Y-75854895D01*
X81247161Y-76052601D01*
X81476741Y-76202735D01*
X81348899Y-76271068D01*
X81130392Y-76450392D01*
X80951068Y-76668899D01*
X80817818Y-76918192D01*
X80735764Y-77188691D01*
X80708057Y-77470000D01*
X74879236Y-77470000D01*
X72343303Y-74934067D01*
X72371185Y-74911185D01*
X72450537Y-74814494D01*
X72509502Y-74704180D01*
X72545812Y-74584482D01*
X72558072Y-74460000D01*
X72558072Y-74090000D01*
X76031928Y-74090000D01*
X76031928Y-75690000D01*
X76044188Y-75814482D01*
X76080498Y-75934180D01*
X76139463Y-76044494D01*
X76218815Y-76141185D01*
X76315506Y-76220537D01*
X76425820Y-76279502D01*
X76545518Y-76315812D01*
X76670000Y-76328072D01*
X78270000Y-76328072D01*
X78394482Y-76315812D01*
X78514180Y-76279502D01*
X78624494Y-76220537D01*
X78721185Y-76141185D01*
X78800537Y-76044494D01*
X78859502Y-75934180D01*
X78895812Y-75814482D01*
X78908072Y-75690000D01*
X78908072Y-74090000D01*
X78895812Y-73965518D01*
X78859502Y-73845820D01*
X78800537Y-73735506D01*
X78721185Y-73638815D01*
X78624494Y-73559463D01*
X78514180Y-73500498D01*
X78394482Y-73464188D01*
X78270000Y-73451928D01*
X78262785Y-73451928D01*
X78283097Y-73382702D01*
X77470000Y-72569605D01*
X76656903Y-73382702D01*
X76677215Y-73451928D01*
X76670000Y-73451928D01*
X76545518Y-73464188D01*
X76425820Y-73500498D01*
X76315506Y-73559463D01*
X76218815Y-73638815D01*
X76139463Y-73735506D01*
X76080498Y-73845820D01*
X76044188Y-73965518D01*
X76031928Y-74090000D01*
X72558072Y-74090000D01*
X72558072Y-72860000D01*
X72545812Y-72735518D01*
X72509502Y-72615820D01*
X72450537Y-72505506D01*
X72413612Y-72460512D01*
X76029783Y-72460512D01*
X76071213Y-72740130D01*
X76166397Y-73006292D01*
X76233329Y-73131514D01*
X76477298Y-73203097D01*
X77290395Y-72390000D01*
X77649605Y-72390000D01*
X78462702Y-73203097D01*
X78706671Y-73131514D01*
X78827571Y-72876004D01*
X78896300Y-72601816D01*
X78910217Y-72319488D01*
X78868787Y-72039870D01*
X78773603Y-71773708D01*
X78706671Y-71648486D01*
X78462702Y-71576903D01*
X77649605Y-72390000D01*
X77290395Y-72390000D01*
X76477298Y-71576903D01*
X76233329Y-71648486D01*
X76112429Y-71903996D01*
X76043700Y-72178184D01*
X76029783Y-72460512D01*
X72413612Y-72460512D01*
X72371185Y-72408815D01*
X72274494Y-72329463D01*
X72164180Y-72270498D01*
X72044482Y-72234188D01*
X71920000Y-72221928D01*
X70320000Y-72221928D01*
X70195518Y-72234188D01*
X70075820Y-72270498D01*
X69965506Y-72329463D01*
X69868815Y-72408815D01*
X69789463Y-72505506D01*
X69730498Y-72615820D01*
X69694188Y-72735518D01*
X69681928Y-72860000D01*
X69681928Y-72867215D01*
X69612702Y-72846903D01*
X68799605Y-73660000D01*
X68440395Y-73660000D01*
X67627298Y-72846903D01*
X67383329Y-72918486D01*
X67262429Y-73173996D01*
X67193700Y-73448184D01*
X67179783Y-73730512D01*
X65430000Y-73730512D01*
X65430000Y-72667298D01*
X67806903Y-72667298D01*
X68620000Y-73480395D01*
X69433097Y-72667298D01*
X69361514Y-72423329D01*
X69106004Y-72302429D01*
X68831816Y-72233700D01*
X68549488Y-72219783D01*
X68269870Y-72261213D01*
X68003708Y-72356397D01*
X67878486Y-72423329D01*
X67806903Y-72667298D01*
X65430000Y-72667298D01*
X65430000Y-71397298D01*
X76656903Y-71397298D01*
X77470000Y-72210395D01*
X78283097Y-71397298D01*
X78211514Y-71153329D01*
X77956004Y-71032429D01*
X77681816Y-70963700D01*
X77399488Y-70949783D01*
X77119870Y-70991213D01*
X76853708Y-71086397D01*
X76728486Y-71153329D01*
X76656903Y-71397298D01*
X65430000Y-71397298D01*
X65430000Y-69875000D01*
X92544388Y-69875000D01*
X92490498Y-69975820D01*
X92490498Y-69975820D01*
G37*
X92490498Y-69975820D02*
X92454188Y-70095518D01*
X92441928Y-70220000D01*
X92441928Y-70231000D01*
X85571659Y-70231000D01*
X85527999Y-70226700D01*
X85484339Y-70231000D01*
X85484333Y-70231000D01*
X85386924Y-70240594D01*
X85353724Y-70243864D01*
X85252058Y-70274704D01*
X85186149Y-70294697D01*
X85031709Y-70377247D01*
X84896341Y-70488341D01*
X84868506Y-70522259D01*
X84224067Y-71166697D01*
X84201185Y-71138815D01*
X84104494Y-71059463D01*
X83994180Y-71000498D01*
X83874482Y-70964188D01*
X83750000Y-70951928D01*
X81350000Y-70951928D01*
X81225518Y-70964188D01*
X81105820Y-71000498D01*
X80995506Y-71059463D01*
X80898815Y-71138815D01*
X80819463Y-71235506D01*
X80760498Y-71345820D01*
X80724188Y-71465518D01*
X80711928Y-71590000D01*
X80711928Y-73190000D01*
X80724188Y-73314482D01*
X80760498Y-73434180D01*
X80819463Y-73544494D01*
X80898815Y-73641185D01*
X80995506Y-73720537D01*
X81105820Y-73779502D01*
X81225518Y-73815812D01*
X81237387Y-73816981D01*
X81045500Y-74005105D01*
X80886285Y-74238354D01*
X80775633Y-74498182D01*
X80758096Y-74580961D01*
X80880085Y-74803000D01*
X82423000Y-74803000D01*
X82423000Y-74783000D01*
X82677000Y-74783000D01*
X82677000Y-74803000D01*
X84219915Y-74803000D01*
X84341904Y-74580961D01*
X84324367Y-74498182D01*
X84213715Y-74238354D01*
X84054500Y-74005105D01*
X83862613Y-73816981D01*
X83874482Y-73815812D01*
X83994180Y-73779502D01*
X84104494Y-73720537D01*
X84201185Y-73641185D01*
X84280537Y-73544494D01*
X84339502Y-73434180D01*
X84375812Y-73314482D01*
X84380067Y-73271278D01*
X84432274Y-73266136D01*
X84599851Y-73215303D01*
X84754291Y-73132753D01*
X84889659Y-73021659D01*
X84917499Y-72987736D01*
X85896236Y-72009000D01*
X88386005Y-72009000D01*
X88355764Y-72108691D01*
X88328057Y-72390000D01*
X88355764Y-72671309D01*
X88437818Y-72941808D01*
X88571068Y-73191101D01*
X88750392Y-73409608D01*
X88968899Y-73588932D01*
X89101858Y-73660000D01*
X88968899Y-73731068D01*
X88750392Y-73910392D01*
X88571068Y-74128899D01*
X88437818Y-74378192D01*
X88355764Y-74648691D01*
X88328057Y-74930000D01*
X88355764Y-75211309D01*
X88437818Y-75481808D01*
X88571068Y-75731101D01*
X88750392Y-75949608D01*
X88968899Y-76128932D01*
X89101858Y-76200000D01*
X88968899Y-76271068D01*
X88750392Y-76450392D01*
X88571068Y-76668899D01*
X88437818Y-76918192D01*
X88355764Y-77188691D01*
X88328057Y-77470000D01*
X88355764Y-77751309D01*
X88437818Y-78021808D01*
X88571068Y-78271101D01*
X88750392Y-78489608D01*
X88968899Y-78668932D01*
X89101858Y-78740000D01*
X88968899Y-78811068D01*
X88750392Y-78990392D01*
X88571068Y-79208899D01*
X88437818Y-79458192D01*
X88355764Y-79728691D01*
X88328057Y-80010000D01*
X88355764Y-80291309D01*
X88437818Y-80561808D01*
X88571068Y-80811101D01*
X88750392Y-81029608D01*
X88968899Y-81208932D01*
X89101858Y-81280000D01*
X88968899Y-81351068D01*
X88750392Y-81530392D01*
X88571068Y-81748899D01*
X88437818Y-81998192D01*
X88355764Y-82268691D01*
X88328057Y-82550000D01*
X88355764Y-82831309D01*
X88437818Y-83101808D01*
X88571068Y-83351101D01*
X88750392Y-83569608D01*
X88968899Y-83748932D01*
X89101858Y-83820000D01*
X88968899Y-83891068D01*
X88750392Y-84070392D01*
X88571068Y-84288899D01*
X88437818Y-84538192D01*
X88355764Y-84808691D01*
X88328057Y-85090000D01*
X88355764Y-85371309D01*
X88437818Y-85641808D01*
X88571068Y-85891101D01*
X88750392Y-86109608D01*
X88968899Y-86288932D01*
X89101858Y-86360000D01*
X88968899Y-86431068D01*
X88750392Y-86610392D01*
X88571068Y-86828899D01*
X88437818Y-87078192D01*
X88355764Y-87348691D01*
X88328057Y-87630000D01*
X88355764Y-87911309D01*
X88437818Y-88181808D01*
X88571068Y-88431101D01*
X88750392Y-88649608D01*
X88968899Y-88828932D01*
X89101858Y-88900000D01*
X88968899Y-88971068D01*
X88750392Y-89150392D01*
X88571068Y-89368899D01*
X88437818Y-89618192D01*
X88355764Y-89888691D01*
X88328057Y-90170000D01*
X88355764Y-90451309D01*
X88437818Y-90721808D01*
X88571068Y-90971101D01*
X88750392Y-91189608D01*
X88968899Y-91368932D01*
X89101858Y-91440000D01*
X88968899Y-91511068D01*
X88750392Y-91690392D01*
X88571068Y-91908899D01*
X88437818Y-92158192D01*
X88355764Y-92428691D01*
X88328057Y-92710000D01*
X88355764Y-92991309D01*
X88437818Y-93261808D01*
X88571068Y-93511101D01*
X88750392Y-93729608D01*
X88968899Y-93908932D01*
X89218192Y-94042182D01*
X89488691Y-94124236D01*
X89699508Y-94145000D01*
X90347765Y-94145000D01*
X92441928Y-96239164D01*
X92441928Y-97420000D01*
X92454188Y-97544482D01*
X92490498Y-97664180D01*
X92549463Y-97774494D01*
X92628815Y-97871185D01*
X92725506Y-97950537D01*
X92835820Y-98009502D01*
X92955518Y-98045812D01*
X93080000Y-98058072D01*
X94880000Y-98058072D01*
X95004482Y-98045812D01*
X95124180Y-98009502D01*
X95234494Y-97950537D01*
X95331185Y-97871185D01*
X95410537Y-97774494D01*
X95469502Y-97664180D01*
X95475056Y-97645873D01*
X95541495Y-97712312D01*
X95792905Y-97880299D01*
X96072257Y-97996011D01*
X96368816Y-98055000D01*
X96671184Y-98055000D01*
X96967743Y-97996011D01*
X97247095Y-97880299D01*
X97498505Y-97712312D01*
X97712312Y-97498505D01*
X97880299Y-97247095D01*
X97996011Y-96967743D01*
X98055000Y-96671184D01*
X98055000Y-96368816D01*
X97996011Y-96072257D01*
X97880299Y-95792905D01*
X97712312Y-95541495D01*
X97498505Y-95327688D01*
X97247095Y-95159701D01*
X97124422Y-95108888D01*
X97247095Y-95058075D01*
X97498505Y-94890088D01*
X97712312Y-94676281D01*
X97880299Y-94424871D01*
X97996011Y-94145519D01*
X98055000Y-93848960D01*
X98055000Y-93546592D01*
X97996011Y-93250033D01*
X97880299Y-92970681D01*
X97712312Y-92719271D01*
X97498505Y-92505464D01*
X97247095Y-92337477D01*
X97124425Y-92286665D01*
X97247095Y-92235853D01*
X97498505Y-92067866D01*
X97712312Y-91854059D01*
X97880299Y-91602649D01*
X97996011Y-91323297D01*
X98055000Y-91026738D01*
X98055000Y-90724370D01*
X97996011Y-90427811D01*
X97880299Y-90148459D01*
X97712312Y-89897049D01*
X97498505Y-89683242D01*
X97247095Y-89515255D01*
X97124425Y-89464443D01*
X97247095Y-89413631D01*
X97498505Y-89245644D01*
X97712312Y-89031837D01*
X97880299Y-88780427D01*
X97996011Y-88501075D01*
X98055000Y-88204516D01*
X98055000Y-87902148D01*
X97996011Y-87605589D01*
X97880299Y-87326237D01*
X97712312Y-87074827D01*
X97498505Y-86861020D01*
X97247095Y-86693033D01*
X97124425Y-86642221D01*
X97247095Y-86591409D01*
X97498505Y-86423422D01*
X97712312Y-86209615D01*
X97880299Y-85958205D01*
X97996011Y-85678853D01*
X98055000Y-85382294D01*
X98055000Y-85079926D01*
X97996011Y-84783367D01*
X97880299Y-84504015D01*
X97712312Y-84252605D01*
X97498505Y-84038798D01*
X97247095Y-83870811D01*
X97124425Y-83819999D01*
X97247095Y-83769187D01*
X97498505Y-83601200D01*
X97712312Y-83387393D01*
X97880299Y-83135983D01*
X97996011Y-82856631D01*
X98055000Y-82560072D01*
X98055000Y-82257704D01*
X97996011Y-81961145D01*
X97880299Y-81681793D01*
X97712312Y-81430383D01*
X97498505Y-81216576D01*
X97247095Y-81048589D01*
X97124425Y-80997777D01*
X97247095Y-80946965D01*
X97498505Y-80778978D01*
X97712312Y-80565171D01*
X97880299Y-80313761D01*
X97996011Y-80034409D01*
X98055000Y-79737850D01*
X98055000Y-79435482D01*
X97996011Y-79138923D01*
X97880299Y-78859571D01*
X97712312Y-78608161D01*
X97498505Y-78394354D01*
X97247095Y-78226367D01*
X97124425Y-78175555D01*
X97247095Y-78124743D01*
X97498505Y-77956756D01*
X97712312Y-77742949D01*
X97880299Y-77491539D01*
X97996011Y-77212187D01*
X98055000Y-76915628D01*
X98055000Y-76613260D01*
X97996011Y-76316701D01*
X97880299Y-76037349D01*
X97712312Y-75785939D01*
X97498505Y-75572132D01*
X97247095Y-75404145D01*
X97124425Y-75353333D01*
X97247095Y-75302521D01*
X97498505Y-75134534D01*
X97712312Y-74920727D01*
X97880299Y-74669317D01*
X97996011Y-74389965D01*
X98055000Y-74093406D01*
X98055000Y-73791038D01*
X97996011Y-73494479D01*
X97880299Y-73215127D01*
X97712312Y-72963717D01*
X97498505Y-72749910D01*
X97247095Y-72581923D01*
X97124425Y-72531111D01*
X97247095Y-72480299D01*
X97498505Y-72312312D01*
X97712312Y-72098505D01*
X97880299Y-71847095D01*
X97996011Y-71567743D01*
X98055000Y-71271184D01*
X98055000Y-70968816D01*
X97996011Y-70672257D01*
X97880299Y-70392905D01*
X97712312Y-70141495D01*
X97498505Y-69927688D01*
X97419652Y-69875000D01*
X98400000Y-69875000D01*
X98400001Y-99035000D01*
X65430000Y-99035000D01*
X65430000Y-93066890D01*
X65868524Y-93066890D01*
X65913175Y-93214099D01*
X66038359Y-93476920D01*
X66212412Y-93710269D01*
X66428645Y-93905178D01*
X66678748Y-94054157D01*
X66953109Y-94151481D01*
X67183000Y-94030814D01*
X67183000Y-92837000D01*
X65989845Y-92837000D01*
X65868524Y-93066890D01*
X65430000Y-93066890D01*
X65430000Y-87630000D01*
X65817815Y-87630000D01*
X65846487Y-87921111D01*
X65931401Y-88201034D01*
X66069294Y-88459014D01*
X66254866Y-88685134D01*
X66480986Y-88870706D01*
X66535791Y-88900000D01*
X66480986Y-88929294D01*
X66254866Y-89114866D01*
X66069294Y-89340986D01*
X65931401Y-89598966D01*
X65846487Y-89878889D01*
X65817815Y-90170000D01*
X65846487Y-90461111D01*
X65931401Y-90741034D01*
X66069294Y-90999014D01*
X66254866Y-91225134D01*
X66480986Y-91410706D01*
X66545523Y-91445201D01*
X66428645Y-91514822D01*
X66212412Y-91709731D01*
X66038359Y-91943080D01*
X65913175Y-92205901D01*
X65868524Y-92353110D01*
X65989845Y-92583000D01*
X67183000Y-92583000D01*
X67183000Y-92563000D01*
X67437000Y-92563000D01*
X67437000Y-92583000D01*
X67457000Y-92583000D01*
X67457000Y-92837000D01*
X67437000Y-92837000D01*
X67437000Y-94030814D01*
X67666891Y-94151481D01*
X67941252Y-94054157D01*
X68191355Y-93905178D01*
X68407588Y-93710269D01*
X68581641Y-93476920D01*
X68706825Y-93214099D01*
X68751476Y-93066890D01*
X68630156Y-92837002D01*
X68719767Y-92837002D01*
X74270501Y-98387736D01*
X74298341Y-98421659D01*
X74433709Y-98532753D01*
X74588149Y-98615303D01*
X74654058Y-98635296D01*
X74755724Y-98666136D01*
X74788924Y-98669406D01*
X74886333Y-98679000D01*
X74886339Y-98679000D01*
X74929999Y-98683300D01*
X74973659Y-98679000D01*
X75387554Y-98679000D01*
X75520273Y-98767680D01*
X75781426Y-98875853D01*
X76058665Y-98931000D01*
X76341335Y-98931000D01*
X76618574Y-98875853D01*
X76879727Y-98767680D01*
X77114759Y-98610637D01*
X77314637Y-98410759D01*
X77471680Y-98175727D01*
X77579853Y-97914574D01*
X77635000Y-97637335D01*
X77635000Y-97354665D01*
X77579853Y-97077426D01*
X77471680Y-96816273D01*
X77314637Y-96581241D01*
X77148057Y-96414661D01*
X77244180Y-96385502D01*
X77354494Y-96326537D01*
X77451185Y-96247185D01*
X77530537Y-96150494D01*
X77589502Y-96040180D01*
X77625812Y-95920482D01*
X77638072Y-95796000D01*
X77638072Y-94196000D01*
X77625812Y-94071518D01*
X77589502Y-93951820D01*
X77530537Y-93841506D01*
X77451185Y-93744815D01*
X77354494Y-93665463D01*
X77244180Y-93606498D01*
X77124482Y-93570188D01*
X77089000Y-93566693D01*
X77089000Y-92753659D01*
X77093300Y-92709999D01*
X77089000Y-92666339D01*
X77089000Y-92666333D01*
X77076136Y-92535726D01*
X77076136Y-92535724D01*
X77025302Y-92368147D01*
X76992132Y-92306091D01*
X76942753Y-92213709D01*
X76831659Y-92078341D01*
X76797741Y-92050505D01*
X76355382Y-91608146D01*
X76371943Y-91440000D01*
X76344236Y-91158691D01*
X76262182Y-90888192D01*
X76128932Y-90638899D01*
X75949608Y-90420392D01*
X75731101Y-90241068D01*
X75481808Y-90107818D01*
X75211309Y-90025764D01*
X75000492Y-90005000D01*
X74859508Y-90005000D01*
X74648691Y-90025764D01*
X74378192Y-90107818D01*
X74128899Y-90241068D01*
X73910392Y-90420392D01*
X73803205Y-90551000D01*
X72549307Y-90551000D01*
X72545812Y-90515518D01*
X72509502Y-90395820D01*
X72450537Y-90285506D01*
X72371185Y-90188815D01*
X72274494Y-90109463D01*
X72164180Y-90050498D01*
X72044482Y-90014188D01*
X71920000Y-90001928D01*
X70320000Y-90001928D01*
X70195518Y-90014188D01*
X70075820Y-90050498D01*
X69965506Y-90109463D01*
X69868815Y-90188815D01*
X69789463Y-90285506D01*
X69730498Y-90395820D01*
X69694188Y-90515518D01*
X69681928Y-90640000D01*
X69681928Y-91284693D01*
X68781119Y-90383884D01*
X68802185Y-90170000D01*
X68773513Y-89878889D01*
X68688599Y-89598966D01*
X68550706Y-89340986D01*
X68365134Y-89114866D01*
X68139014Y-88929294D01*
X68084209Y-88900000D01*
X68139014Y-88870706D01*
X68365134Y-88685134D01*
X68550706Y-88459014D01*
X68688599Y-88201034D01*
X68773513Y-87921111D01*
X68802185Y-87630000D01*
X68773513Y-87338889D01*
X68688599Y-87058966D01*
X68550706Y-86800986D01*
X68365134Y-86574866D01*
X68335313Y-86550393D01*
X68404180Y-86529502D01*
X68514494Y-86470537D01*
X68611185Y-86391185D01*
X68690537Y-86294494D01*
X68749502Y-86184180D01*
X68785812Y-86064482D01*
X68798072Y-85940000D01*
X68795000Y-85375750D01*
X68636250Y-85217000D01*
X67437000Y-85217000D01*
X67437000Y-85237000D01*
X67183000Y-85237000D01*
X67183000Y-85217000D01*
X65983750Y-85217000D01*
X65825000Y-85375750D01*
X65821928Y-85940000D01*
X65834188Y-86064482D01*
X65870498Y-86184180D01*
X65929463Y-86294494D01*
X66008815Y-86391185D01*
X66105506Y-86470537D01*
X66215820Y-86529502D01*
X66284687Y-86550393D01*
X66254866Y-86574866D01*
X66069294Y-86800986D01*
X65931401Y-87058966D01*
X65846487Y-87338889D01*
X65817815Y-87630000D01*
X65430000Y-87630000D01*
X65430000Y-84240000D01*
X65821928Y-84240000D01*
X65825000Y-84804250D01*
X65983750Y-84963000D01*
X67183000Y-84963000D01*
X67183000Y-83763750D01*
X67437000Y-83763750D01*
X67437000Y-84963000D01*
X68636250Y-84963000D01*
X68795000Y-84804250D01*
X68798072Y-84240000D01*
X68791084Y-84169040D01*
X69728091Y-84169040D01*
X69822930Y-84433881D01*
X69967615Y-84675131D01*
X70156586Y-84883519D01*
X70382580Y-85051037D01*
X70636913Y-85171246D01*
X70770961Y-85211904D01*
X70993000Y-85089915D01*
X70993000Y-83947000D01*
X71247000Y-83947000D01*
X71247000Y-85089915D01*
X71469039Y-85211904D01*
X71603087Y-85171246D01*
X71857420Y-85051037D01*
X72083414Y-84883519D01*
X72272385Y-84675131D01*
X72417070Y-84433881D01*
X72511909Y-84169040D01*
X72390624Y-83947000D01*
X71247000Y-83947000D01*
X70993000Y-83947000D01*
X69849376Y-83947000D01*
X69728091Y-84169040D01*
X68791084Y-84169040D01*
X68785812Y-84115518D01*
X68749502Y-83995820D01*
X68690537Y-83885506D01*
X68611185Y-83788815D01*
X68514494Y-83709463D01*
X68404180Y-83650498D01*
X68284482Y-83614188D01*
X68160000Y-83601928D01*
X67595750Y-83605000D01*
X67437000Y-83763750D01*
X67183000Y-83763750D01*
X67024250Y-83605000D01*
X66460000Y-83601928D01*
X66335518Y-83614188D01*
X66215820Y-83650498D01*
X66105506Y-83709463D01*
X66008815Y-83788815D01*
X65929463Y-83885506D01*
X65870498Y-83995820D01*
X65834188Y-84115518D01*
X65821928Y-84240000D01*
X65430000Y-84240000D01*
X65430000Y-83470960D01*
X69728091Y-83470960D01*
X69849376Y-83693000D01*
X70993000Y-83693000D01*
X70993000Y-82550085D01*
X71247000Y-82550085D01*
X71247000Y-83693000D01*
X72390624Y-83693000D01*
X72511909Y-83470960D01*
X72417070Y-83206119D01*
X72272385Y-82964869D01*
X72083414Y-82756481D01*
X71857420Y-82588963D01*
X71603087Y-82468754D01*
X71469039Y-82428096D01*
X71247000Y-82550085D01*
X70993000Y-82550085D01*
X70770961Y-82428096D01*
X70636913Y-82468754D01*
X70382580Y-82588963D01*
X70156586Y-82756481D01*
X69967615Y-82964869D01*
X69822930Y-83206119D01*
X69728091Y-83470960D01*
X65430000Y-83470960D01*
X65430000Y-80359039D01*
X68458096Y-80359039D01*
X68498754Y-80493087D01*
X68618963Y-80747420D01*
X68786481Y-80973414D01*
X68994869Y-81162385D01*
X69236119Y-81307070D01*
X69500960Y-81401909D01*
X69723000Y-81280624D01*
X69723000Y-80137000D01*
X69977000Y-80137000D01*
X69977000Y-81280624D01*
X70199040Y-81401909D01*
X70463881Y-81307070D01*
X70705131Y-81162385D01*
X70913519Y-80973414D01*
X71081037Y-80747420D01*
X71201246Y-80493087D01*
X71241904Y-80359039D01*
X71119915Y-80137000D01*
X69977000Y-80137000D01*
X69723000Y-80137000D01*
X68580085Y-80137000D01*
X68458096Y-80359039D01*
X65430000Y-80359039D01*
X65430000Y-79660961D01*
X68458096Y-79660961D01*
X68580085Y-79883000D01*
X69723000Y-79883000D01*
X69723000Y-78739376D01*
X69977000Y-78739376D01*
X69977000Y-79883000D01*
X71119915Y-79883000D01*
X71241904Y-79660961D01*
X71201246Y-79526913D01*
X71081037Y-79272580D01*
X70913519Y-79046586D01*
X70705131Y-78857615D01*
X70463881Y-78712930D01*
X70199040Y-78618091D01*
X69977000Y-78739376D01*
X69723000Y-78739376D01*
X69500960Y-78618091D01*
X69236119Y-78712930D01*
X68994869Y-78857615D01*
X68786481Y-79046586D01*
X68618963Y-79272580D01*
X68498754Y-79526913D01*
X68458096Y-79660961D01*
X65430000Y-79660961D01*
X65430000Y-74652702D01*
X67806903Y-74652702D01*
X67878486Y-74896671D01*
X68133996Y-75017571D01*
X68408184Y-75086300D01*
X68690512Y-75100217D01*
X68970130Y-75058787D01*
X69236292Y-74963603D01*
X69361514Y-74896671D01*
X69433097Y-74652702D01*
X68620000Y-73839605D01*
X67806903Y-74652702D01*
X65430000Y-74652702D01*
X65430000Y-73730512D01*
X67179783Y-73730512D01*
X67221213Y-74010130D01*
X67316397Y-74276292D01*
X67383329Y-74401514D01*
X67627298Y-74473097D01*
X68440395Y-73660000D01*
X68799605Y-73660000D01*
X69612702Y-74473097D01*
X69681928Y-74452785D01*
X69681928Y-74460000D01*
X69694188Y-74584482D01*
X69730498Y-74704180D01*
X69789463Y-74814494D01*
X69868815Y-74911185D01*
X69965506Y-74990537D01*
X70075820Y-75049502D01*
X70195518Y-75085812D01*
X70238722Y-75090067D01*
X70243864Y-75142274D01*
X70294698Y-75309852D01*
X70377248Y-75464291D01*
X70488342Y-75599659D01*
X70522259Y-75627494D01*
X75502504Y-80607740D01*
X75530341Y-80641659D01*
X75558223Y-80664541D01*
X74332260Y-81890505D01*
X74298342Y-81918341D01*
X74270507Y-81952258D01*
X74270505Y-81952260D01*
X74187248Y-82053709D01*
X74104698Y-82208148D01*
X74053864Y-82375726D01*
X74052501Y-82389561D01*
X74005518Y-82394188D01*
X73885820Y-82430498D01*
X73775506Y-82489463D01*
X73678815Y-82568815D01*
X73599463Y-82665506D01*
X73540498Y-82775820D01*
X73504188Y-82895518D01*
X73491928Y-83020000D01*
X73491928Y-84620000D01*
X73504188Y-84744482D01*
X73540498Y-84864180D01*
X73599463Y-84974494D01*
X73678815Y-85071185D01*
X73775506Y-85150537D01*
X73885820Y-85209502D01*
X74005518Y-85245812D01*
X74130000Y-85258072D01*
X75730000Y-85258072D01*
X75854482Y-85245812D01*
X75974180Y-85209502D01*
X76084494Y-85150537D01*
X76181185Y-85071185D01*
X76260537Y-84974494D01*
X76319502Y-84864180D01*
X76355812Y-84744482D01*
X76368072Y-84620000D01*
X76368072Y-83020000D01*
X76355812Y-82895518D01*
X76319502Y-82775820D01*
X76260537Y-82665506D01*
X76181185Y-82568815D01*
X76174174Y-82563061D01*
X77298280Y-81438956D01*
X77328665Y-81445000D01*
X77611335Y-81445000D01*
X77641721Y-81438956D01*
X78589573Y-82386809D01*
X78321426Y-82440147D01*
X78060273Y-82548320D01*
X77825241Y-82705363D01*
X77625363Y-82905241D01*
X77468320Y-83140273D01*
X77360147Y-83401426D01*
X77305000Y-83678665D01*
X77305000Y-83961335D01*
X77360147Y-84238574D01*
X77468320Y-84499727D01*
X77625363Y-84734759D01*
X77825241Y-84934637D01*
X78060273Y-85091680D01*
X78321426Y-85199853D01*
X78598665Y-85255000D01*
X78881335Y-85255000D01*
X79158574Y-85199853D01*
X79419727Y-85091680D01*
X79654759Y-84934637D01*
X79854637Y-84734759D01*
X79871849Y-84709000D01*
X80766005Y-84709000D01*
X80735764Y-84808691D01*
X80708057Y-85090000D01*
X80735764Y-85371309D01*
X80817818Y-85641808D01*
X80951068Y-85891101D01*
X81130392Y-86109608D01*
X81348899Y-86288932D01*
X81481858Y-86360000D01*
X81348899Y-86431068D01*
X81130392Y-86610392D01*
X80951068Y-86828899D01*
X80817818Y-87078192D01*
X80735764Y-87348691D01*
X80708057Y-87630000D01*
X80735764Y-87911309D01*
X80817818Y-88181808D01*
X80951068Y-88431101D01*
X81130392Y-88649608D01*
X81348899Y-88828932D01*
X81481858Y-88900000D01*
X81348899Y-88971068D01*
X81130392Y-89150392D01*
X81023205Y-89281000D01*
X80053659Y-89281000D01*
X80009999Y-89276700D01*
X79966339Y-89281000D01*
X79966333Y-89281000D01*
X79868924Y-89290594D01*
X79835724Y-89293864D01*
X79734058Y-89324704D01*
X79668149Y-89344697D01*
X79513709Y-89427247D01*
X79378341Y-89538341D01*
X79350506Y-89572259D01*
X78908146Y-90014618D01*
X78810492Y-90005000D01*
X78669508Y-90005000D01*
X78458691Y-90025764D01*
X78188192Y-90107818D01*
X77938899Y-90241068D01*
X77720392Y-90420392D01*
X77541068Y-90638899D01*
X77407818Y-90888192D01*
X77325764Y-91158691D01*
X77298057Y-91440000D01*
X77325764Y-91721309D01*
X77407818Y-91991808D01*
X77541068Y-92241101D01*
X77720392Y-92459608D01*
X77851001Y-92566796D01*
X77851001Y-92666331D01*
X77846700Y-92710000D01*
X77863864Y-92884274D01*
X77914698Y-93051852D01*
X77931726Y-93083708D01*
X77997248Y-93206291D01*
X78108342Y-93341659D01*
X78142259Y-93369494D01*
X81121044Y-96348280D01*
X81115000Y-96378665D01*
X81115000Y-96661335D01*
X81170147Y-96938574D01*
X81278320Y-97199727D01*
X81435363Y-97434759D01*
X81635241Y-97634637D01*
X81870273Y-97791680D01*
X82131426Y-97899853D01*
X82408665Y-97955000D01*
X82691335Y-97955000D01*
X82968574Y-97899853D01*
X83229727Y-97791680D01*
X83464759Y-97634637D01*
X83664637Y-97434759D01*
X83821680Y-97199727D01*
X83929853Y-96938574D01*
X83943684Y-96869039D01*
X88778096Y-96869039D01*
X88818754Y-97003087D01*
X88938963Y-97257420D01*
X89106481Y-97483414D01*
X89314869Y-97672385D01*
X89556119Y-97817070D01*
X89820960Y-97911909D01*
X90043000Y-97790624D01*
X90043000Y-96647000D01*
X90297000Y-96647000D01*
X90297000Y-97790624D01*
X90519040Y-97911909D01*
X90783881Y-97817070D01*
X91025131Y-97672385D01*
X91233519Y-97483414D01*
X91401037Y-97257420D01*
X91521246Y-97003087D01*
X91561904Y-96869039D01*
X91439915Y-96647000D01*
X90297000Y-96647000D01*
X90043000Y-96647000D01*
X88900085Y-96647000D01*
X88778096Y-96869039D01*
X83943684Y-96869039D01*
X83985000Y-96661335D01*
X83985000Y-96378665D01*
X83943685Y-96170961D01*
X88778096Y-96170961D01*
X88900085Y-96393000D01*
X90043000Y-96393000D01*
X90043000Y-95249376D01*
X90297000Y-95249376D01*
X90297000Y-96393000D01*
X91439915Y-96393000D01*
X91561904Y-96170961D01*
X91521246Y-96036913D01*
X91401037Y-95782580D01*
X91233519Y-95556586D01*
X91025131Y-95367615D01*
X90783881Y-95222930D01*
X90519040Y-95128091D01*
X90297000Y-95249376D01*
X90043000Y-95249376D01*
X89820960Y-95128091D01*
X89556119Y-95222930D01*
X89314869Y-95367615D01*
X89106481Y-95556586D01*
X88938963Y-95782580D01*
X88818754Y-96036913D01*
X88778096Y-96170961D01*
X83943685Y-96170961D01*
X83929853Y-96101426D01*
X83821680Y-95840273D01*
X83664637Y-95605241D01*
X83464759Y-95405363D01*
X83229727Y-95248320D01*
X82968574Y-95140147D01*
X82691335Y-95085000D01*
X82408665Y-95085000D01*
X82378280Y-95091044D01*
X79752597Y-92465362D01*
X79759608Y-92459608D01*
X79938932Y-92241101D01*
X80072182Y-91991808D01*
X80154236Y-91721309D01*
X80181943Y-91440000D01*
X80165382Y-91271854D01*
X80378236Y-91059000D01*
X81023205Y-91059000D01*
X81130392Y-91189608D01*
X81348899Y-91368932D01*
X81481858Y-91440000D01*
X81348899Y-91511068D01*
X81130392Y-91690392D01*
X80951068Y-91908899D01*
X80817818Y-92158192D01*
X80735764Y-92428691D01*
X80708057Y-92710000D01*
X80735764Y-92991309D01*
X80817818Y-93261808D01*
X80951068Y-93511101D01*
X81130392Y-93729608D01*
X81348899Y-93908932D01*
X81598192Y-94042182D01*
X81868691Y-94124236D01*
X82079508Y-94145000D01*
X83020492Y-94145000D01*
X83231309Y-94124236D01*
X83501808Y-94042182D01*
X83751101Y-93908932D01*
X83969608Y-93729608D01*
X84148932Y-93511101D01*
X84282182Y-93261808D01*
X84364236Y-92991309D01*
X84391943Y-92710000D01*
X84364236Y-92428691D01*
X84282182Y-92158192D01*
X84148932Y-91908899D01*
X83969608Y-91690392D01*
X83751101Y-91511068D01*
X83618142Y-91440000D01*
X83751101Y-91368932D01*
X83969608Y-91189608D01*
X84148932Y-90971101D01*
X84282182Y-90721808D01*
X84364236Y-90451309D01*
X84391943Y-90170000D01*
X84364236Y-89888691D01*
X84282182Y-89618192D01*
X84148932Y-89368899D01*
X83969608Y-89150392D01*
X83751101Y-88971068D01*
X83618142Y-88900000D01*
X83751101Y-88828932D01*
X83969608Y-88649608D01*
X84148932Y-88431101D01*
X84282182Y-88181808D01*
X84364236Y-87911309D01*
X84391943Y-87630000D01*
X84364236Y-87348691D01*
X84282182Y-87078192D01*
X84148932Y-86828899D01*
X83969608Y-86610392D01*
X83751101Y-86431068D01*
X83618142Y-86360000D01*
X83751101Y-86288932D01*
X83969608Y-86109608D01*
X84148932Y-85891101D01*
X84282182Y-85641808D01*
X84364236Y-85371309D01*
X84391943Y-85090000D01*
X84364236Y-84808691D01*
X84282182Y-84538192D01*
X84148932Y-84288899D01*
X83969608Y-84070392D01*
X83751101Y-83891068D01*
X83618142Y-83820000D01*
X83751101Y-83748932D01*
X83969608Y-83569608D01*
X84148932Y-83351101D01*
X84282182Y-83101808D01*
X84364236Y-82831309D01*
X84391943Y-82550000D01*
X84364236Y-82268691D01*
X84282182Y-81998192D01*
X84148932Y-81748899D01*
X83969608Y-81530392D01*
X83751101Y-81351068D01*
X83623259Y-81282735D01*
X83852839Y-81132601D01*
X84054500Y-80934895D01*
X84213715Y-80701646D01*
X84324367Y-80441818D01*
X84341904Y-80359039D01*
X84219915Y-80137000D01*
X82677000Y-80137000D01*
X82677000Y-80157000D01*
X82423000Y-80157000D01*
X82423000Y-80137000D01*
X80880085Y-80137000D01*
X80758096Y-80359039D01*
X80775633Y-80441818D01*
X80886285Y-80701646D01*
X81045500Y-80934895D01*
X81247161Y-81132601D01*
X81476741Y-81282735D01*
X81348899Y-81351068D01*
X81130392Y-81530392D01*
X81023205Y-81661000D01*
X80378236Y-81661000D01*
X78898956Y-80181721D01*
X78905000Y-80151335D01*
X78905000Y-79868665D01*
X78849853Y-79591426D01*
X78741680Y-79330273D01*
X78584637Y-79095241D01*
X78384759Y-78895363D01*
X78149727Y-78738320D01*
X77888574Y-78630147D01*
X77611335Y-78575000D01*
X77328665Y-78575000D01*
X77051426Y-78630147D01*
X76790273Y-78738320D01*
X76555241Y-78895363D01*
X76429920Y-79020684D01*
X74879236Y-77470000D01*
X80708057Y-77470000D01*
X80735764Y-77751309D01*
X80817818Y-78021808D01*
X80951068Y-78271101D01*
X81130392Y-78489608D01*
X81348899Y-78668932D01*
X81476741Y-78737265D01*
X81247161Y-78887399D01*
X81045500Y-79085105D01*
X80886285Y-79318354D01*
X80775633Y-79578182D01*
X80758096Y-79660961D01*
X80880085Y-79883000D01*
X82423000Y-79883000D01*
X82423000Y-79863000D01*
X82677000Y-79863000D01*
X82677000Y-79883000D01*
X84219915Y-79883000D01*
X84341904Y-79660961D01*
X84324367Y-79578182D01*
X84213715Y-79318354D01*
X84054500Y-79085105D01*
X83852839Y-78887399D01*
X83623259Y-78737265D01*
X83751101Y-78668932D01*
X83969608Y-78489608D01*
X84148932Y-78271101D01*
X84282182Y-78021808D01*
X84364236Y-77751309D01*
X84391943Y-77470000D01*
X84364236Y-77188691D01*
X84282182Y-76918192D01*
X84148932Y-76668899D01*
X83969608Y-76450392D01*
X83751101Y-76271068D01*
X83623259Y-76202735D01*
X83852839Y-76052601D01*
X84054500Y-75854895D01*
X84213715Y-75621646D01*
X84324367Y-75361818D01*
X84341904Y-75279039D01*
X84219915Y-75057000D01*
X82677000Y-75057000D01*
X82677000Y-75077000D01*
X82423000Y-75077000D01*
X82423000Y-75057000D01*
X80880085Y-75057000D01*
X80758096Y-75279039D01*
X80775633Y-75361818D01*
X80886285Y-75621646D01*
X81045500Y-75854895D01*
X81247161Y-76052601D01*
X81476741Y-76202735D01*
X81348899Y-76271068D01*
X81130392Y-76450392D01*
X80951068Y-76668899D01*
X80817818Y-76918192D01*
X80735764Y-77188691D01*
X80708057Y-77470000D01*
X74879236Y-77470000D01*
X72343303Y-74934067D01*
X72371185Y-74911185D01*
X72450537Y-74814494D01*
X72509502Y-74704180D01*
X72545812Y-74584482D01*
X72558072Y-74460000D01*
X72558072Y-74090000D01*
X76031928Y-74090000D01*
X76031928Y-75690000D01*
X76044188Y-75814482D01*
X76080498Y-75934180D01*
X76139463Y-76044494D01*
X76218815Y-76141185D01*
X76315506Y-76220537D01*
X76425820Y-76279502D01*
X76545518Y-76315812D01*
X76670000Y-76328072D01*
X78270000Y-76328072D01*
X78394482Y-76315812D01*
X78514180Y-76279502D01*
X78624494Y-76220537D01*
X78721185Y-76141185D01*
X78800537Y-76044494D01*
X78859502Y-75934180D01*
X78895812Y-75814482D01*
X78908072Y-75690000D01*
X78908072Y-74090000D01*
X78895812Y-73965518D01*
X78859502Y-73845820D01*
X78800537Y-73735506D01*
X78721185Y-73638815D01*
X78624494Y-73559463D01*
X78514180Y-73500498D01*
X78394482Y-73464188D01*
X78270000Y-73451928D01*
X78262785Y-73451928D01*
X78283097Y-73382702D01*
X77470000Y-72569605D01*
X76656903Y-73382702D01*
X76677215Y-73451928D01*
X76670000Y-73451928D01*
X76545518Y-73464188D01*
X76425820Y-73500498D01*
X76315506Y-73559463D01*
X76218815Y-73638815D01*
X76139463Y-73735506D01*
X76080498Y-73845820D01*
X76044188Y-73965518D01*
X76031928Y-74090000D01*
X72558072Y-74090000D01*
X72558072Y-72860000D01*
X72545812Y-72735518D01*
X72509502Y-72615820D01*
X72450537Y-72505506D01*
X72413612Y-72460512D01*
X76029783Y-72460512D01*
X76071213Y-72740130D01*
X76166397Y-73006292D01*
X76233329Y-73131514D01*
X76477298Y-73203097D01*
X77290395Y-72390000D01*
X77649605Y-72390000D01*
X78462702Y-73203097D01*
X78706671Y-73131514D01*
X78827571Y-72876004D01*
X78896300Y-72601816D01*
X78910217Y-72319488D01*
X78868787Y-72039870D01*
X78773603Y-71773708D01*
X78706671Y-71648486D01*
X78462702Y-71576903D01*
X77649605Y-72390000D01*
X77290395Y-72390000D01*
X76477298Y-71576903D01*
X76233329Y-71648486D01*
X76112429Y-71903996D01*
X76043700Y-72178184D01*
X76029783Y-72460512D01*
X72413612Y-72460512D01*
X72371185Y-72408815D01*
X72274494Y-72329463D01*
X72164180Y-72270498D01*
X72044482Y-72234188D01*
X71920000Y-72221928D01*
X70320000Y-72221928D01*
X70195518Y-72234188D01*
X70075820Y-72270498D01*
X69965506Y-72329463D01*
X69868815Y-72408815D01*
X69789463Y-72505506D01*
X69730498Y-72615820D01*
X69694188Y-72735518D01*
X69681928Y-72860000D01*
X69681928Y-72867215D01*
X69612702Y-72846903D01*
X68799605Y-73660000D01*
X68440395Y-73660000D01*
X67627298Y-72846903D01*
X67383329Y-72918486D01*
X67262429Y-73173996D01*
X67193700Y-73448184D01*
X67179783Y-73730512D01*
X65430000Y-73730512D01*
X65430000Y-72667298D01*
X67806903Y-72667298D01*
X68620000Y-73480395D01*
X69433097Y-72667298D01*
X69361514Y-72423329D01*
X69106004Y-72302429D01*
X68831816Y-72233700D01*
X68549488Y-72219783D01*
X68269870Y-72261213D01*
X68003708Y-72356397D01*
X67878486Y-72423329D01*
X67806903Y-72667298D01*
X65430000Y-72667298D01*
X65430000Y-71397298D01*
X76656903Y-71397298D01*
X77470000Y-72210395D01*
X78283097Y-71397298D01*
X78211514Y-71153329D01*
X77956004Y-71032429D01*
X77681816Y-70963700D01*
X77399488Y-70949783D01*
X77119870Y-70991213D01*
X76853708Y-71086397D01*
X76728486Y-71153329D01*
X76656903Y-71397298D01*
X65430000Y-71397298D01*
X65430000Y-69875000D01*
X92544388Y-69875000D01*
X92490498Y-69975820D01*
M02*
